<svg width="23" height="23" viewBox="0 0 23 23" fill="none" xmlns="http://www.w3.org/2000/svg">
    <path d="M0.813243 12.3188C0.705382 12.3182 0.598704 12.2963 0.499354 12.2543C0.400003 12.2123 0.309943 12.151 0.234359 12.0741C0.158776 11.9971 0.0991619 11.9059 0.058951 11.8058C0.0187401 11.7057 -0.00127353 11.5987 6.27651e-05 11.4908C-0.000548614 11.3839 0.0200743 11.2779 0.0607353 11.179C0.101396 11.0801 0.161286 10.9903 0.236931 10.9147C0.312576 10.8391 0.402471 10.7793 0.501401 10.7388C0.600331 10.6982 0.706328 10.6777 0.813243 10.6784H10.6735V0.828C10.6735 0.608401 10.7607 0.397796 10.916 0.242516C11.0713 0.0872355 11.2818 0 11.5014 0C11.6093 0.00059845 11.716 0.0225316 11.8153 0.0645364C11.9147 0.106541 12.0047 0.167788 12.0803 0.244749C12.1559 0.32171 12.2155 0.412865 12.2557 0.512965C12.2959 0.613065 12.3159 0.720132 12.3146 0.828V10.6812H22.1721C22.2799 10.6799 22.3869 10.6998 22.4869 10.74C22.5869 10.7802 22.678 10.8397 22.755 10.9152C22.8319 10.9907 22.8932 11.0807 22.9352 11.1799C22.9773 11.2792 22.9993 11.3858 23 11.4936C23 11.7132 22.9128 11.9238 22.7575 12.079C22.6023 12.2343 22.3917 12.3216 22.1721 12.3216H12.3118V22.172C12.3132 22.2799 12.2932 22.3869 12.2529 22.487C12.2127 22.5871 12.1531 22.6783 12.0775 22.7553C12.002 22.8322 11.9119 22.8935 11.8125 22.9355C11.7132 22.9775 11.6065 22.9994 11.4987 23C11.2791 23 11.0685 22.9128 10.9132 22.7575C10.758 22.6022 10.6708 22.3916 10.6708 22.172V12.3188H0.813243Z" fill="#5CC04A"/>
</svg>
