<svg id="svg" version="1.1" xmlns="http://www.w3.org/2000/svg" xmlns:xlink="http://www.w3.org/1999/xlink" width="400" height="400" viewBox="0, 0, 400,400"><g id="svgg"><path id="path0" d="M54.705 57.247 C 51.537 57.587,49.931 59.634,50.499 62.607 C 50.656 63.425,50.504 63.483,48.033 63.554 C 43.429 63.687,43.596 63.426,43.481 70.675 C 43.436 73.494,43.343 75.305,43.273 74.700 C 43.103 73.221,42.710 73.311,41.093 75.200 C 40.142 76.311,39.403 76.800,38.676 76.800 C 38.053 76.800,37.462 77.111,37.218 77.566 C 36.801 78.346,36.783 322.456,37.200 322.201 C 37.310 322.133,37.448 322.727,37.506 323.521 C 37.738 326.668,39.544 328.706,42.286 328.915 C 43.393 328.999,43.401 329.020,43.526 332.200 C 43.687 336.260,43.997 336.609,47.414 336.571 L 50.000 336.542 50.000 337.804 C 50.000 338.499,50.135 339.202,50.300 339.368 C 50.465 339.534,50.600 340.231,50.600 340.918 C 50.600 341.848,50.856 342.298,51.600 342.678 C 52.856 343.319,353.280 343.454,354.963 342.814 C 356.103 342.381,356.561 341.135,356.584 338.400 L 356.600 336.600 359.331 336.600 C 362.773 336.600,363.200 336.133,363.200 332.366 C 363.200 329.563,363.435 329.200,365.253 329.200 C 367.680 329.200,368.618 327.995,369.443 323.816 C 370.041 320.782,370.227 80.081,369.633 78.000 C 369.404 77.201,369.111 77.014,368.173 77.069 C 367.528 77.106,367.315 77.048,367.700 76.939 C 368.572 76.693,368.572 76.706,367.586 74.772 C 367.018 73.659,366.242 72.918,365.023 72.326 L 363.275 71.477 363.138 67.971 C 362.972 63.760,363.047 63.850,359.498 63.600 L 356.660 63.400 356.199 61.083 C 355.622 58.183,354.986 57.546,352.310 57.183 C 349.133 56.751,70.061 56.738,67.754 57.169 C 66.686 57.368,65.630 57.412,65.407 57.266 C 64.895 56.931,57.758 56.919,54.705 57.247 M42.299 151.126 C 42.234 155.017,42.180 151.720,42.181 143.800 C 42.181 135.880,42.234 132.697,42.300 136.726 C 42.365 140.755,42.365 147.235,42.299 151.126 M324.094 143.361 C 324.570 144.073,324.443 144.502,323.826 144.265 C 323.510 144.144,323.180 144.260,323.092 144.522 C 323.004 144.785,322.843 144.535,322.734 143.967 C 322.527 142.883,323.488 142.454,324.094 143.361 M231.230 148.236 C 232.408 149.656,233.480 149.695,275.160 149.841 C 297.908 149.921,316.559 150.035,316.606 150.093 C 316.770 150.298,316.993 241.610,316.897 269.100 L 316.800 296.800 273.400 296.800 L 230.000 296.800 230.052 219.900 C 230.081 177.605,230.237 144.033,230.399 145.295 C 230.561 146.557,230.935 147.881,231.230 148.236 M322.283 150.095 C 322.187 150.593,322.105 150.280,322.101 149.400 C 322.096 148.520,322.175 148.113,322.275 148.495 C 322.375 148.878,322.379 149.598,322.283 150.095 M176.799 221.644 C 176.800 261.158,176.908 294.278,177.041 295.244 L 177.281 297.000 133.690 296.896 L 90.098 296.793 89.800 269.995 C 89.636 255.255,89.637 222.229,89.801 196.602 L 90.100 150.008 108.350 149.904 C 118.387 149.847,137.895 149.800,151.699 149.800 L 176.798 149.800 176.799 221.644 M228.292 175.491 C 228.205 176.321,228.133 175.740,228.131 174.200 C 228.129 172.660,228.200 171.981,228.289 172.691 C 228.377 173.401,228.379 174.661,228.292 175.491 M86.697 184.700 C 86.620 186.185,86.557 184.970,86.557 182.000 C 86.557 179.030,86.620 177.815,86.697 179.300 C 86.774 180.785,86.774 183.215,86.697 184.700 M89.097 183.684 C 89.018 185.068,88.953 184.040,88.953 181.400 C 88.952 178.760,89.016 177.628,89.095 178.884 C 89.174 180.141,89.175 182.301,89.097 183.684 M38.695 209.700 C 38.614 210.855,38.548 209.910,38.548 207.600 C 38.548 205.290,38.614 204.345,38.695 205.500 C 38.776 206.655,38.776 208.545,38.695 209.700 M41.892 209.091 C 41.805 209.921,41.733 209.340,41.731 207.800 C 41.729 206.260,41.800 205.581,41.889 206.291 C 41.977 207.001,41.979 208.261,41.892 209.091 M367.098 220.682 C 367.022 222.397,366.961 221.100,366.960 217.800 C 366.959 214.500,367.021 213.097,367.097 214.682 C 367.172 216.267,367.173 218.967,367.098 220.682 M317.876 215.100 C 317.775 215.485,317.693 215.170,317.693 214.400 C 317.693 213.630,317.775 213.315,317.876 213.700 C 317.976 214.085,317.976 214.715,317.876 215.100 M318.299 232.124 C 318.231 235.026,318.175 232.540,318.175 226.600 C 318.175 220.660,318.231 218.286,318.299 221.324 C 318.367 224.362,318.367 229.222,318.299 232.124 M320.299 232.076 C 320.231 235.004,320.175 232.720,320.174 227.000 C 320.174 221.280,320.230 218.884,320.299 221.676 C 320.367 224.468,320.368 229.148,320.299 232.076 M363.487 222.695 C 363.395 223.303,363.317 222.900,363.314 221.800 C 363.311 220.700,363.387 220.203,363.482 220.695 C 363.577 221.186,363.579 222.086,363.487 222.695 M365.476 225.500 C 365.375 225.885,365.293 225.570,365.293 224.800 C 365.293 224.030,365.375 223.715,365.476 224.100 C 365.576 224.485,365.576 225.115,365.476 225.500 M38.299 237.078 C 38.228 239.455,38.170 237.620,38.169 233.000 C 38.169 228.380,38.227 226.435,38.298 228.678 C 38.369 230.921,38.370 234.701,38.299 237.078 M39.498 235.082 C 39.422 236.797,39.361 235.500,39.360 232.200 C 39.359 228.900,39.421 227.497,39.497 229.082 C 39.572 230.667,39.573 233.367,39.498 235.082 M364.682 231.300 C 364.587 231.795,364.509 231.390,364.509 230.400 C 364.509 229.410,364.587 229.005,364.682 229.500 C 364.778 229.995,364.778 230.805,364.682 231.300 M41.482 237.300 C 41.387 237.795,41.309 237.390,41.309 236.400 C 41.309 235.410,41.387 235.005,41.482 235.500 C 41.578 235.995,41.578 236.805,41.482 237.300 M42.521 243.200 L 42.735 246.600 42.193 243.600 C 41.537 239.974,41.476 238.906,41.953 239.420 C 42.147 239.629,42.403 241.330,42.521 243.200 M368.572 244.300 C 368.208 249.427,368.000 249.488,368.000 244.467 C 368.000 241.868,368.153 240.400,368.424 240.400 C 368.713 240.400,368.760 241.645,368.572 244.300 M38.690 246.893 C 38.601 247.612,38.526 247.120,38.524 245.800 C 38.522 244.480,38.595 243.892,38.686 244.493 C 38.777 245.094,38.779 246.174,38.690 246.893 M368.437 255.351 C 368.464 257.274,368.377 258.957,368.243 259.090 C 368.109 259.224,368.000 257.563,368.000 255.400 C 368.000 253.237,368.087 251.554,368.194 251.661 C 368.301 251.767,368.410 253.428,368.437 255.351 M366.103 257.098 C 365.763 258.005,365.304 257.239,365.517 256.121 C 365.703 255.151,365.760 255.114,366.008 255.811 C 366.163 256.245,366.205 256.824,366.103 257.098 M41.876 265.500 C 41.775 265.885,41.693 265.570,41.693 264.800 C 41.693 264.030,41.775 263.715,41.876 264.100 C 41.976 264.485,41.976 265.115,41.876 265.500 M39.883 267.695 C 39.787 268.193,39.705 267.880,39.701 267.000 C 39.696 266.120,39.775 265.713,39.875 266.095 C 39.975 266.478,39.979 267.198,39.883 267.695 M42.918 268.367 C 42.565 268.865,42.242 267.503,42.405 266.200 C 42.466 265.718,42.611 265.956,42.771 266.800 C 42.917 267.570,42.983 268.275,42.918 268.367 M37.883 282.495 C 37.787 282.993,37.705 282.680,37.701 281.800 C 37.696 280.920,37.775 280.513,37.875 280.895 C 37.975 281.278,37.979 281.998,37.883 282.495 M39.083 289.695 C 38.987 290.193,38.905 289.880,38.901 289.000 C 38.896 288.120,38.975 287.713,39.075 288.095 C 39.175 288.478,39.179 289.198,39.083 289.695 M40.683 289.695 C 40.587 290.193,40.505 289.880,40.501 289.000 C 40.496 288.120,40.575 287.713,40.675 288.095 C 40.775 288.478,40.779 289.198,40.683 289.695 M155.331 297.900 C 143.413 297.959,123.793 297.959,111.731 297.900 C 99.669 297.841,109.420 297.793,133.400 297.793 C 157.380 297.793,167.249 297.841,155.331 297.900 M295.331 297.900 C 283.413 297.959,263.793 297.959,251.731 297.900 C 239.669 297.841,249.420 297.793,273.400 297.793 C 297.380 297.793,307.249 297.841,295.331 297.900 M366.287 302.695 C 366.195 303.303,366.117 302.900,366.114 301.800 C 366.111 300.700,366.187 300.203,366.282 300.695 C 366.377 301.186,366.379 302.086,366.287 302.695 M368.082 304.779 C 368.177 305.427,368.108 305.867,367.928 305.755 C 367.607 305.557,367.450 303.600,367.755 303.600 C 367.840 303.600,367.987 304.130,368.082 304.779 M367.493 315.689 C 367.409 316.630,367.339 315.960,367.337 314.200 C 367.336 312.440,367.405 311.670,367.491 312.489 C 367.577 313.309,367.578 314.749,367.493 315.689 M353.174 339.831 C 352.918 340.139,352.541 340.287,352.335 340.160 C 352.114 340.023,352.151 339.700,352.426 339.369 C 352.682 339.061,353.059 338.913,353.265 339.040 C 353.486 339.177,353.449 339.500,353.174 339.831 M78.400 342.400 C 78.400 342.620,78.040 342.800,77.600 342.800 C 77.160 342.800,76.800 342.620,76.800 342.400 C 76.800 342.180,77.160 342.000,77.600 342.000 C 78.040 342.000,78.400 342.180,78.400 342.400 M330.400 342.400 C 330.400 342.620,330.040 342.800,329.600 342.800 C 329.160 342.800,328.800 342.620,328.800 342.400 C 328.800 342.180,329.160 342.000,329.600 342.000 C 330.040 342.000,330.400 342.180,330.400 342.400 M231.931 342.700 C 216.603 342.758,191.403 342.758,175.931 342.700 C 160.459 342.642,173.000 342.595,203.800 342.594 C 234.600 342.594,247.259 342.642,231.931 342.700 " stroke="none" fill="#74c404" fill-rule="evenodd"></path><path id="path1" d="M57.200 57.206 C 56.778 57.482,57.015 57.523,58.000 57.342 C 59.725 57.025,60.051 56.798,58.767 56.806 C 58.235 56.809,57.530 56.989,57.200 57.206 M65.420 57.162 C 65.633 57.366,66.502 57.386,67.400 57.208 L 69.000 56.892 67.020 56.846 C 65.826 56.818,65.191 56.944,65.420 57.162 M74.882 57.096 C 76.358 57.173,78.878 57.173,80.482 57.097 C 82.087 57.021,80.880 56.958,77.800 56.958 C 74.720 56.957,73.407 57.019,74.882 57.096 M322.721 57.099 C 324.988 57.170,328.588 57.170,330.721 57.098 C 332.855 57.026,331.000 56.968,326.600 56.968 C 322.200 56.968,320.455 57.027,322.721 57.099 M338.705 57.083 C 339.202 57.179,339.922 57.175,340.305 57.075 C 340.687 56.975,340.280 56.896,339.400 56.901 C 338.520 56.905,338.207 56.987,338.705 57.083 M347.300 57.076 C 347.685 57.176,348.315 57.176,348.700 57.076 C 349.085 56.975,348.770 56.893,348.000 56.893 C 347.230 56.893,346.915 56.975,347.300 57.076 M43.293 74.400 C 43.293 75.170,43.375 75.485,43.476 75.100 C 43.576 74.715,43.576 74.085,43.476 73.700 C 43.375 73.315,43.293 73.630,43.293 74.400 M36.931 83.000 C 36.933 84.540,37.005 85.121,37.092 84.291 C 37.179 83.461,37.177 82.201,37.089 81.491 C 37.000 80.781,36.929 81.460,36.931 83.000 M36.928 94.000 C 36.928 95.430,37.001 96.015,37.089 95.300 C 37.178 94.585,37.178 93.415,37.089 92.700 C 37.001 91.985,36.928 92.570,36.928 94.000 M42.181 143.800 C 42.180 151.720,42.234 155.017,42.299 151.126 C 42.365 147.235,42.365 140.755,42.300 136.726 C 42.234 132.697,42.181 135.880,42.181 143.800 M322.734 143.967 C 322.843 144.535,323.004 144.785,323.092 144.522 C 323.180 144.260,323.510 144.144,323.826 144.265 C 324.443 144.502,324.570 144.073,324.094 143.361 C 323.488 142.454,322.527 142.883,322.734 143.967 M322.101 149.400 C 322.105 150.280,322.187 150.593,322.283 150.095 C 322.379 149.598,322.375 148.878,322.275 148.495 C 322.175 148.113,322.096 148.520,322.101 149.400 M129.318 149.898 C 131.033 149.973,133.733 149.972,135.318 149.897 C 136.903 149.821,135.500 149.759,132.200 149.760 C 128.900 149.761,127.603 149.822,129.318 149.898 M272.523 149.899 C 275.120 149.969,279.260 149.968,281.723 149.898 C 284.185 149.828,282.060 149.771,277.000 149.772 C 271.940 149.772,269.925 149.829,272.523 149.899 M228.131 174.200 C 228.133 175.740,228.205 176.321,228.292 175.491 C 228.379 174.661,228.377 173.401,228.289 172.691 C 228.200 171.981,228.129 172.660,228.131 174.200 M86.557 182.000 C 86.557 184.970,86.620 186.185,86.697 184.700 C 86.774 183.215,86.774 180.785,86.697 179.300 C 86.620 177.815,86.557 179.030,86.557 182.000 M88.953 181.400 C 88.953 184.040,89.018 185.068,89.097 183.684 C 89.175 182.301,89.174 180.141,89.095 178.884 C 89.016 177.628,88.952 178.760,88.953 181.400 M89.792 233.400 C 89.792 253.640,89.840 261.979,89.900 251.930 C 89.959 241.882,89.959 225.322,89.900 215.130 C 89.840 204.939,89.792 213.160,89.792 233.400 M36.994 252.800 C 36.994 281.290,37.042 292.945,37.100 278.700 C 37.158 264.455,37.158 241.145,37.100 226.900 C 37.042 212.655,36.994 224.310,36.994 252.800 M38.548 207.600 C 38.548 209.910,38.614 210.855,38.695 209.700 C 38.776 208.545,38.776 206.655,38.695 205.500 C 38.614 204.345,38.548 205.290,38.548 207.600 M41.731 207.800 C 41.733 209.340,41.805 209.921,41.892 209.091 C 41.979 208.261,41.977 207.001,41.889 206.291 C 41.800 205.581,41.729 206.260,41.731 207.800 M316.981 226.600 C 316.981 234.960,317.034 238.437,317.099 234.326 C 317.164 230.216,317.164 223.376,317.100 219.126 C 317.035 214.877,316.982 218.240,316.981 226.600 M366.960 217.800 C 366.961 221.100,367.022 222.397,367.098 220.682 C 367.173 218.967,367.172 216.267,367.097 214.682 C 367.021 213.097,366.959 214.500,366.960 217.800 M317.693 214.400 C 317.693 215.170,317.775 215.485,317.876 215.100 C 317.976 214.715,317.976 214.085,317.876 213.700 C 317.775 213.315,317.693 213.630,317.693 214.400 M318.175 226.600 C 318.175 232.540,318.231 235.026,318.299 232.124 C 318.367 229.222,318.367 224.362,318.299 221.324 C 318.231 218.286,318.175 220.660,318.175 226.600 M320.174 227.000 C 320.175 232.720,320.231 235.004,320.299 232.076 C 320.368 229.148,320.367 224.468,320.299 221.676 C 320.230 218.884,320.174 221.280,320.174 227.000 M363.314 221.800 C 363.317 222.900,363.395 223.303,363.487 222.695 C 363.579 222.086,363.577 221.186,363.482 220.695 C 363.387 220.203,363.311 220.700,363.314 221.800 M365.293 224.800 C 365.293 225.570,365.375 225.885,365.476 225.500 C 365.576 225.115,365.576 224.485,365.476 224.100 C 365.375 223.715,365.293 224.030,365.293 224.800 M38.169 233.000 C 38.170 237.620,38.228 239.455,38.299 237.078 C 38.370 234.701,38.369 230.921,38.298 228.678 C 38.227 226.435,38.169 228.380,38.169 233.000 M39.360 232.200 C 39.361 235.500,39.422 236.797,39.498 235.082 C 39.573 233.367,39.572 230.667,39.497 229.082 C 39.421 227.497,39.359 228.900,39.360 232.200 M364.509 230.400 C 364.509 231.390,364.587 231.795,364.682 231.300 C 364.778 230.805,364.778 229.995,364.682 229.500 C 364.587 229.005,364.509 229.410,364.509 230.400 M41.309 236.400 C 41.309 237.390,41.387 237.795,41.482 237.300 C 41.578 236.805,41.578 235.995,41.482 235.500 C 41.387 235.005,41.309 235.410,41.309 236.400 M41.625 239.820 C 41.639 240.249,41.894 241.950,42.193 243.600 L 42.735 246.600 42.521 243.200 C 42.341 240.351,41.546 237.350,41.625 239.820 M368.000 244.467 C 368.000 246.703,368.066 248.458,368.147 248.367 C 368.554 247.908,368.814 240.400,368.424 240.400 C 368.153 240.400,368.000 241.868,368.000 244.467 M38.524 245.800 C 38.526 247.120,38.601 247.612,38.690 246.893 C 38.779 246.174,38.777 245.094,38.686 244.493 C 38.595 243.892,38.522 244.480,38.524 245.800 M368.000 255.400 C 368.000 257.563,368.109 259.224,368.243 259.090 C 368.527 258.807,368.481 251.948,368.194 251.661 C 368.087 251.554,368.000 253.237,368.000 255.400 M365.517 256.121 C 365.402 256.725,365.444 257.304,365.612 257.407 C 366.077 257.695,366.324 256.698,366.008 255.811 C 365.760 255.114,365.703 255.151,365.517 256.121 M41.693 264.800 C 41.693 265.570,41.775 265.885,41.876 265.500 C 41.976 265.115,41.976 264.485,41.876 264.100 C 41.775 263.715,41.693 264.030,41.693 264.800 M39.701 267.000 C 39.705 267.880,39.787 268.193,39.883 267.695 C 39.979 267.198,39.975 266.478,39.875 266.095 C 39.775 265.713,39.696 266.120,39.701 267.000 M42.405 266.200 C 42.291 267.112,42.400 268.121,42.638 268.367 C 42.979 268.717,43.027 268.148,42.771 266.800 C 42.611 265.956,42.466 265.718,42.405 266.200 M37.701 281.800 C 37.705 282.680,37.787 282.993,37.883 282.495 C 37.979 281.998,37.975 281.278,37.875 280.895 C 37.775 280.513,37.696 280.920,37.701 281.800 M38.901 289.000 C 38.905 289.880,38.987 290.193,39.083 289.695 C 39.179 289.198,39.175 288.478,39.075 288.095 C 38.975 287.713,38.896 288.120,38.901 289.000 M40.501 289.000 C 40.505 289.880,40.587 290.193,40.683 289.695 C 40.779 289.198,40.775 288.478,40.675 288.095 C 40.575 287.713,40.496 288.120,40.501 289.000 M176.893 296.000 C 176.893 296.770,176.975 297.085,177.076 296.700 C 177.176 296.315,177.176 295.685,177.076 295.300 C 176.975 294.915,176.893 295.230,176.893 296.000 M111.731 297.900 C 123.793 297.959,143.413 297.959,155.331 297.900 C 167.249 297.841,157.380 297.793,133.400 297.793 C 109.420 297.793,99.669 297.841,111.731 297.900 M251.731 297.900 C 263.793 297.959,283.413 297.959,295.331 297.900 C 307.249 297.841,297.380 297.793,273.400 297.793 C 249.420 297.793,239.669 297.841,251.731 297.900 M366.114 301.800 C 366.117 302.900,366.195 303.303,366.287 302.695 C 366.379 302.086,366.377 301.186,366.282 300.695 C 366.187 300.203,366.111 300.700,366.114 301.800 M367.600 304.576 C 367.600 305.113,367.747 305.644,367.928 305.755 C 368.108 305.867,368.177 305.427,368.082 304.779 C 367.872 303.349,367.600 303.235,367.600 304.576 M367.337 314.200 C 367.339 315.960,367.409 316.630,367.493 315.689 C 367.578 314.749,367.577 313.309,367.491 312.489 C 367.405 311.670,367.336 312.440,367.337 314.200 M36.914 319.000 C 36.917 320.100,36.995 320.503,37.087 319.895 C 37.179 319.286,37.177 318.386,37.082 317.895 C 36.987 317.403,36.911 317.900,36.914 319.000 M352.426 339.369 C 352.151 339.700,352.114 340.023,352.335 340.160 C 352.541 340.287,352.918 340.139,353.174 339.831 C 353.449 339.500,353.486 339.177,353.265 339.040 C 353.059 338.913,352.682 339.061,352.426 339.369 M76.800 342.400 C 76.800 342.620,77.160 342.800,77.600 342.800 C 78.040 342.800,78.400 342.620,78.400 342.400 C 78.400 342.180,78.040 342.000,77.600 342.000 C 77.160 342.000,76.800 342.180,76.800 342.400 M328.800 342.400 C 328.800 342.620,329.160 342.800,329.600 342.800 C 330.040 342.800,330.400 342.620,330.400 342.400 C 330.400 342.180,330.040 342.000,329.600 342.000 C 329.160 342.000,328.800 342.180,328.800 342.400 M175.931 342.700 C 191.403 342.758,216.603 342.758,231.931 342.700 C 247.259 342.642,234.600 342.594,203.800 342.594 C 173.000 342.595,160.459 342.642,175.931 342.700 " stroke="none" fill="#78c404" fill-rule="evenodd"></path><path id="path2" d="M57.200 57.206 C 56.778 57.482,57.015 57.523,58.000 57.342 C 59.725 57.025,60.051 56.798,58.767 56.806 C 58.235 56.809,57.530 56.989,57.200 57.206 M65.420 57.162 C 65.633 57.366,66.502 57.386,67.400 57.208 L 69.000 56.892 67.020 56.846 C 65.826 56.818,65.191 56.944,65.420 57.162 M74.882 57.096 C 76.358 57.173,78.878 57.173,80.482 57.097 C 82.087 57.021,80.880 56.958,77.800 56.958 C 74.720 56.957,73.407 57.019,74.882 57.096 M322.721 57.099 C 324.988 57.170,328.588 57.170,330.721 57.098 C 332.855 57.026,331.000 56.968,326.600 56.968 C 322.200 56.968,320.455 57.027,322.721 57.099 M338.705 57.083 C 339.202 57.179,339.922 57.175,340.305 57.075 C 340.687 56.975,340.280 56.896,339.400 56.901 C 338.520 56.905,338.207 56.987,338.705 57.083 M347.300 57.076 C 347.685 57.176,348.315 57.176,348.700 57.076 C 349.085 56.975,348.770 56.893,348.000 56.893 C 347.230 56.893,346.915 56.975,347.300 57.076 M43.293 74.400 C 43.293 75.170,43.375 75.485,43.476 75.100 C 43.576 74.715,43.576 74.085,43.476 73.700 C 43.375 73.315,43.293 73.630,43.293 74.400 M36.931 83.000 C 36.933 84.540,37.005 85.121,37.092 84.291 C 37.179 83.461,37.177 82.201,37.089 81.491 C 37.000 80.781,36.929 81.460,36.931 83.000 M36.928 94.000 C 36.928 95.430,37.001 96.015,37.089 95.300 C 37.178 94.585,37.178 93.415,37.089 92.700 C 37.001 91.985,36.928 92.570,36.928 94.000 M42.181 143.800 C 42.180 151.720,42.234 155.017,42.299 151.126 C 42.365 147.235,42.365 140.755,42.300 136.726 C 42.234 132.697,42.181 135.880,42.181 143.800 M322.734 143.967 C 322.843 144.535,323.004 144.785,323.092 144.522 C 323.180 144.260,323.510 144.144,323.826 144.265 C 324.443 144.502,324.570 144.073,324.094 143.361 C 323.488 142.454,322.527 142.883,322.734 143.967 M322.101 149.400 C 322.105 150.280,322.187 150.593,322.283 150.095 C 322.379 149.598,322.375 148.878,322.275 148.495 C 322.175 148.113,322.096 148.520,322.101 149.400 M129.318 149.898 C 131.033 149.973,133.733 149.972,135.318 149.897 C 136.903 149.821,135.500 149.759,132.200 149.760 C 128.900 149.761,127.603 149.822,129.318 149.898 M272.523 149.899 C 275.120 149.969,279.260 149.968,281.723 149.898 C 284.185 149.828,282.060 149.771,277.000 149.772 C 271.940 149.772,269.925 149.829,272.523 149.899 M228.131 174.200 C 228.133 175.740,228.205 176.321,228.292 175.491 C 228.379 174.661,228.377 173.401,228.289 172.691 C 228.200 171.981,228.129 172.660,228.131 174.200 M86.557 182.000 C 86.557 184.970,86.620 186.185,86.697 184.700 C 86.774 183.215,86.774 180.785,86.697 179.300 C 86.620 177.815,86.557 179.030,86.557 182.000 M88.953 181.400 C 88.953 184.040,89.018 185.068,89.097 183.684 C 89.175 182.301,89.174 180.141,89.095 178.884 C 89.016 177.628,88.952 178.760,88.953 181.400 M89.792 233.400 C 89.792 253.640,89.840 261.979,89.900 251.930 C 89.959 241.882,89.959 225.322,89.900 215.130 C 89.840 204.939,89.792 213.160,89.792 233.400 M36.994 252.800 C 36.994 281.290,37.042 292.945,37.100 278.700 C 37.158 264.455,37.158 241.145,37.100 226.900 C 37.042 212.655,36.994 224.310,36.994 252.800 M38.548 207.600 C 38.548 209.910,38.614 210.855,38.695 209.700 C 38.776 208.545,38.776 206.655,38.695 205.500 C 38.614 204.345,38.548 205.290,38.548 207.600 M41.731 207.800 C 41.733 209.340,41.805 209.921,41.892 209.091 C 41.979 208.261,41.977 207.001,41.889 206.291 C 41.800 205.581,41.729 206.260,41.731 207.800 M316.981 226.600 C 316.981 234.960,317.034 238.437,317.099 234.326 C 317.164 230.216,317.164 223.376,317.100 219.126 C 317.035 214.877,316.982 218.240,316.981 226.600 M366.960 217.800 C 366.961 221.100,367.022 222.397,367.098 220.682 C 367.173 218.967,367.172 216.267,367.097 214.682 C 367.021 213.097,366.959 214.500,366.960 217.800 M317.693 214.400 C 317.693 215.170,317.775 215.485,317.876 215.100 C 317.976 214.715,317.976 214.085,317.876 213.700 C 317.775 213.315,317.693 213.630,317.693 214.400 M318.175 226.600 C 318.175 232.540,318.231 235.026,318.299 232.124 C 318.367 229.222,318.367 224.362,318.299 221.324 C 318.231 218.286,318.175 220.660,318.175 226.600 M320.174 227.000 C 320.175 232.720,320.231 235.004,320.299 232.076 C 320.368 229.148,320.367 224.468,320.299 221.676 C 320.230 218.884,320.174 221.280,320.174 227.000 M363.314 221.800 C 363.317 222.900,363.395 223.303,363.487 222.695 C 363.579 222.086,363.577 221.186,363.482 220.695 C 363.387 220.203,363.311 220.700,363.314 221.800 M365.293 224.800 C 365.293 225.570,365.375 225.885,365.476 225.500 C 365.576 225.115,365.576 224.485,365.476 224.100 C 365.375 223.715,365.293 224.030,365.293 224.800 M38.169 233.000 C 38.170 237.620,38.228 239.455,38.299 237.078 C 38.370 234.701,38.369 230.921,38.298 228.678 C 38.227 226.435,38.169 228.380,38.169 233.000 M39.360 232.200 C 39.361 235.500,39.422 236.797,39.498 235.082 C 39.573 233.367,39.572 230.667,39.497 229.082 C 39.421 227.497,39.359 228.900,39.360 232.200 M364.509 230.400 C 364.509 231.390,364.587 231.795,364.682 231.300 C 364.778 230.805,364.778 229.995,364.682 229.500 C 364.587 229.005,364.509 229.410,364.509 230.400 M41.309 236.400 C 41.309 237.390,41.387 237.795,41.482 237.300 C 41.578 236.805,41.578 235.995,41.482 235.500 C 41.387 235.005,41.309 235.410,41.309 236.400 M41.625 239.820 C 41.639 240.249,41.894 241.950,42.193 243.600 L 42.735 246.600 42.521 243.200 C 42.341 240.351,41.546 237.350,41.625 239.820 M368.000 244.467 C 368.000 246.703,368.066 248.458,368.147 248.367 C 368.554 247.908,368.814 240.400,368.424 240.400 C 368.153 240.400,368.000 241.868,368.000 244.467 M38.524 245.800 C 38.526 247.120,38.601 247.612,38.690 246.893 C 38.779 246.174,38.777 245.094,38.686 244.493 C 38.595 243.892,38.522 244.480,38.524 245.800 M368.000 255.400 C 368.000 257.563,368.109 259.224,368.243 259.090 C 368.527 258.807,368.481 251.948,368.194 251.661 C 368.087 251.554,368.000 253.237,368.000 255.400 M365.517 256.121 C 365.402 256.725,365.444 257.304,365.612 257.407 C 366.077 257.695,366.324 256.698,366.008 255.811 C 365.760 255.114,365.703 255.151,365.517 256.121 M41.693 264.800 C 41.693 265.570,41.775 265.885,41.876 265.500 C 41.976 265.115,41.976 264.485,41.876 264.100 C 41.775 263.715,41.693 264.030,41.693 264.800 M39.701 267.000 C 39.705 267.880,39.787 268.193,39.883 267.695 C 39.979 267.198,39.975 266.478,39.875 266.095 C 39.775 265.713,39.696 266.120,39.701 267.000 M42.405 266.200 C 42.291 267.112,42.400 268.121,42.638 268.367 C 42.979 268.717,43.027 268.148,42.771 266.800 C 42.611 265.956,42.466 265.718,42.405 266.200 M37.701 281.800 C 37.705 282.680,37.787 282.993,37.883 282.495 C 37.979 281.998,37.975 281.278,37.875 280.895 C 37.775 280.513,37.696 280.920,37.701 281.800 M38.901 289.000 C 38.905 289.880,38.987 290.193,39.083 289.695 C 39.179 289.198,39.175 288.478,39.075 288.095 C 38.975 287.713,38.896 288.120,38.901 289.000 M40.501 289.000 C 40.505 289.880,40.587 290.193,40.683 289.695 C 40.779 289.198,40.775 288.478,40.675 288.095 C 40.575 287.713,40.496 288.120,40.501 289.000 M176.893 296.000 C 176.893 296.770,176.975 297.085,177.076 296.700 C 177.176 296.315,177.176 295.685,177.076 295.300 C 176.975 294.915,176.893 295.230,176.893 296.000 M111.731 297.900 C 123.793 297.959,143.413 297.959,155.331 297.900 C 167.249 297.841,157.380 297.793,133.400 297.793 C 109.420 297.793,99.669 297.841,111.731 297.900 M251.731 297.900 C 263.793 297.959,283.413 297.959,295.331 297.900 C 307.249 297.841,297.380 297.793,273.400 297.793 C 249.420 297.793,239.669 297.841,251.731 297.900 M366.114 301.800 C 366.117 302.900,366.195 303.303,366.287 302.695 C 366.379 302.086,366.377 301.186,366.282 300.695 C 366.187 300.203,366.111 300.700,366.114 301.800 M367.600 304.576 C 367.600 305.113,367.747 305.644,367.928 305.755 C 368.108 305.867,368.177 305.427,368.082 304.779 C 367.872 303.349,367.600 303.235,367.600 304.576 M367.337 314.200 C 367.339 315.960,367.409 316.630,367.493 315.689 C 367.578 314.749,367.577 313.309,367.491 312.489 C 367.405 311.670,367.336 312.440,367.337 314.200 M36.914 319.000 C 36.917 320.100,36.995 320.503,37.087 319.895 C 37.179 319.286,37.177 318.386,37.082 317.895 C 36.987 317.403,36.911 317.900,36.914 319.000 M352.426 339.369 C 352.151 339.700,352.114 340.023,352.335 340.160 C 352.541 340.287,352.918 340.139,353.174 339.831 C 353.449 339.500,353.486 339.177,353.265 339.040 C 353.059 338.913,352.682 339.061,352.426 339.369 M76.800 342.400 C 76.800 342.620,77.160 342.800,77.600 342.800 C 78.040 342.800,78.400 342.620,78.400 342.400 C 78.400 342.180,78.040 342.000,77.600 342.000 C 77.160 342.000,76.800 342.180,76.800 342.400 M328.800 342.400 C 328.800 342.620,329.160 342.800,329.600 342.800 C 330.040 342.800,330.400 342.620,330.400 342.400 C 330.400 342.180,330.040 342.000,329.600 342.000 C 329.160 342.000,328.800 342.180,328.800 342.400 M175.931 342.700 C 191.403 342.758,216.603 342.758,231.931 342.700 C 247.259 342.642,234.600 342.594,203.800 342.594 C 173.000 342.595,160.459 342.642,175.931 342.700 " stroke="none" fill="#78c404" fill-rule="evenodd"></path><path id="path3" d="M57.200 57.206 C 56.778 57.482,57.015 57.523,58.000 57.342 C 59.725 57.025,60.051 56.798,58.767 56.806 C 58.235 56.809,57.530 56.989,57.200 57.206 M65.420 57.162 C 65.633 57.366,66.502 57.386,67.400 57.208 L 69.000 56.892 67.020 56.846 C 65.826 56.818,65.191 56.944,65.420 57.162 M74.882 57.096 C 76.358 57.173,78.878 57.173,80.482 57.097 C 82.087 57.021,80.880 56.958,77.800 56.958 C 74.720 56.957,73.407 57.019,74.882 57.096 M322.721 57.099 C 324.988 57.170,328.588 57.170,330.721 57.098 C 332.855 57.026,331.000 56.968,326.600 56.968 C 322.200 56.968,320.455 57.027,322.721 57.099 M338.705 57.083 C 339.202 57.179,339.922 57.175,340.305 57.075 C 340.687 56.975,340.280 56.896,339.400 56.901 C 338.520 56.905,338.207 56.987,338.705 57.083 M347.300 57.076 C 347.685 57.176,348.315 57.176,348.700 57.076 C 349.085 56.975,348.770 56.893,348.000 56.893 C 347.230 56.893,346.915 56.975,347.300 57.076 M43.293 74.400 C 43.293 75.170,43.375 75.485,43.476 75.100 C 43.576 74.715,43.576 74.085,43.476 73.700 C 43.375 73.315,43.293 73.630,43.293 74.400 M36.931 83.000 C 36.933 84.540,37.005 85.121,37.092 84.291 C 37.179 83.461,37.177 82.201,37.089 81.491 C 37.000 80.781,36.929 81.460,36.931 83.000 M36.928 94.000 C 36.928 95.430,37.001 96.015,37.089 95.300 C 37.178 94.585,37.178 93.415,37.089 92.700 C 37.001 91.985,36.928 92.570,36.928 94.000 M42.181 143.800 C 42.180 151.720,42.234 155.017,42.299 151.126 C 42.365 147.235,42.365 140.755,42.300 136.726 C 42.234 132.697,42.181 135.880,42.181 143.800 M322.734 143.967 C 322.843 144.535,323.004 144.785,323.092 144.522 C 323.180 144.260,323.510 144.144,323.826 144.265 C 324.443 144.502,324.570 144.073,324.094 143.361 C 323.488 142.454,322.527 142.883,322.734 143.967 M322.101 149.400 C 322.105 150.280,322.187 150.593,322.283 150.095 C 322.379 149.598,322.375 148.878,322.275 148.495 C 322.175 148.113,322.096 148.520,322.101 149.400 M129.318 149.898 C 131.033 149.973,133.733 149.972,135.318 149.897 C 136.903 149.821,135.500 149.759,132.200 149.760 C 128.900 149.761,127.603 149.822,129.318 149.898 M272.523 149.899 C 275.120 149.969,279.260 149.968,281.723 149.898 C 284.185 149.828,282.060 149.771,277.000 149.772 C 271.940 149.772,269.925 149.829,272.523 149.899 M228.131 174.200 C 228.133 175.740,228.205 176.321,228.292 175.491 C 228.379 174.661,228.377 173.401,228.289 172.691 C 228.200 171.981,228.129 172.660,228.131 174.200 M86.557 182.000 C 86.557 184.970,86.620 186.185,86.697 184.700 C 86.774 183.215,86.774 180.785,86.697 179.300 C 86.620 177.815,86.557 179.030,86.557 182.000 M88.953 181.400 C 88.953 184.040,89.018 185.068,89.097 183.684 C 89.175 182.301,89.174 180.141,89.095 178.884 C 89.016 177.628,88.952 178.760,88.953 181.400 M89.792 233.400 C 89.792 253.640,89.840 261.979,89.900 251.930 C 89.959 241.882,89.959 225.322,89.900 215.130 C 89.840 204.939,89.792 213.160,89.792 233.400 M36.994 252.800 C 36.994 281.290,37.042 292.945,37.100 278.700 C 37.158 264.455,37.158 241.145,37.100 226.900 C 37.042 212.655,36.994 224.310,36.994 252.800 M38.548 207.600 C 38.548 209.910,38.614 210.855,38.695 209.700 C 38.776 208.545,38.776 206.655,38.695 205.500 C 38.614 204.345,38.548 205.290,38.548 207.600 M41.731 207.800 C 41.733 209.340,41.805 209.921,41.892 209.091 C 41.979 208.261,41.977 207.001,41.889 206.291 C 41.800 205.581,41.729 206.260,41.731 207.800 M316.981 226.600 C 316.981 234.960,317.034 238.437,317.099 234.326 C 317.164 230.216,317.164 223.376,317.100 219.126 C 317.035 214.877,316.982 218.240,316.981 226.600 M366.960 217.800 C 366.961 221.100,367.022 222.397,367.098 220.682 C 367.173 218.967,367.172 216.267,367.097 214.682 C 367.021 213.097,366.959 214.500,366.960 217.800 M317.693 214.400 C 317.693 215.170,317.775 215.485,317.876 215.100 C 317.976 214.715,317.976 214.085,317.876 213.700 C 317.775 213.315,317.693 213.630,317.693 214.400 M318.175 226.600 C 318.175 232.540,318.231 235.026,318.299 232.124 C 318.367 229.222,318.367 224.362,318.299 221.324 C 318.231 218.286,318.175 220.660,318.175 226.600 M320.174 227.000 C 320.175 232.720,320.231 235.004,320.299 232.076 C 320.368 229.148,320.367 224.468,320.299 221.676 C 320.230 218.884,320.174 221.280,320.174 227.000 M363.314 221.800 C 363.317 222.900,363.395 223.303,363.487 222.695 C 363.579 222.086,363.577 221.186,363.482 220.695 C 363.387 220.203,363.311 220.700,363.314 221.800 M365.293 224.800 C 365.293 225.570,365.375 225.885,365.476 225.500 C 365.576 225.115,365.576 224.485,365.476 224.100 C 365.375 223.715,365.293 224.030,365.293 224.800 M38.169 233.000 C 38.170 237.620,38.228 239.455,38.299 237.078 C 38.370 234.701,38.369 230.921,38.298 228.678 C 38.227 226.435,38.169 228.380,38.169 233.000 M39.360 232.200 C 39.361 235.500,39.422 236.797,39.498 235.082 C 39.573 233.367,39.572 230.667,39.497 229.082 C 39.421 227.497,39.359 228.900,39.360 232.200 M364.509 230.400 C 364.509 231.390,364.587 231.795,364.682 231.300 C 364.778 230.805,364.778 229.995,364.682 229.500 C 364.587 229.005,364.509 229.410,364.509 230.400 M41.309 236.400 C 41.309 237.390,41.387 237.795,41.482 237.300 C 41.578 236.805,41.578 235.995,41.482 235.500 C 41.387 235.005,41.309 235.410,41.309 236.400 M41.625 239.820 C 41.639 240.249,41.894 241.950,42.193 243.600 L 42.735 246.600 42.521 243.200 C 42.341 240.351,41.546 237.350,41.625 239.820 M368.000 244.467 C 368.000 246.703,368.066 248.458,368.147 248.367 C 368.554 247.908,368.814 240.400,368.424 240.400 C 368.153 240.400,368.000 241.868,368.000 244.467 M38.524 245.800 C 38.526 247.120,38.601 247.612,38.690 246.893 C 38.779 246.174,38.777 245.094,38.686 244.493 C 38.595 243.892,38.522 244.480,38.524 245.800 M368.000 255.400 C 368.000 257.563,368.109 259.224,368.243 259.090 C 368.527 258.807,368.481 251.948,368.194 251.661 C 368.087 251.554,368.000 253.237,368.000 255.400 M365.517 256.121 C 365.402 256.725,365.444 257.304,365.612 257.407 C 366.077 257.695,366.324 256.698,366.008 255.811 C 365.760 255.114,365.703 255.151,365.517 256.121 M41.693 264.800 C 41.693 265.570,41.775 265.885,41.876 265.500 C 41.976 265.115,41.976 264.485,41.876 264.100 C 41.775 263.715,41.693 264.030,41.693 264.800 M39.701 267.000 C 39.705 267.880,39.787 268.193,39.883 267.695 C 39.979 267.198,39.975 266.478,39.875 266.095 C 39.775 265.713,39.696 266.120,39.701 267.000 M42.405 266.200 C 42.291 267.112,42.400 268.121,42.638 268.367 C 42.979 268.717,43.027 268.148,42.771 266.800 C 42.611 265.956,42.466 265.718,42.405 266.200 M37.701 281.800 C 37.705 282.680,37.787 282.993,37.883 282.495 C 37.979 281.998,37.975 281.278,37.875 280.895 C 37.775 280.513,37.696 280.920,37.701 281.800 M38.901 289.000 C 38.905 289.880,38.987 290.193,39.083 289.695 C 39.179 289.198,39.175 288.478,39.075 288.095 C 38.975 287.713,38.896 288.120,38.901 289.000 M40.501 289.000 C 40.505 289.880,40.587 290.193,40.683 289.695 C 40.779 289.198,40.775 288.478,40.675 288.095 C 40.575 287.713,40.496 288.120,40.501 289.000 M176.893 296.000 C 176.893 296.770,176.975 297.085,177.076 296.700 C 177.176 296.315,177.176 295.685,177.076 295.300 C 176.975 294.915,176.893 295.230,176.893 296.000 M111.731 297.900 C 123.793 297.959,143.413 297.959,155.331 297.900 C 167.249 297.841,157.380 297.793,133.400 297.793 C 109.420 297.793,99.669 297.841,111.731 297.900 M251.731 297.900 C 263.793 297.959,283.413 297.959,295.331 297.900 C 307.249 297.841,297.380 297.793,273.400 297.793 C 249.420 297.793,239.669 297.841,251.731 297.900 M366.114 301.800 C 366.117 302.900,366.195 303.303,366.287 302.695 C 366.379 302.086,366.377 301.186,366.282 300.695 C 366.187 300.203,366.111 300.700,366.114 301.800 M367.600 304.576 C 367.600 305.113,367.747 305.644,367.928 305.755 C 368.108 305.867,368.177 305.427,368.082 304.779 C 367.872 303.349,367.600 303.235,367.600 304.576 M367.337 314.200 C 367.339 315.960,367.409 316.630,367.493 315.689 C 367.578 314.749,367.577 313.309,367.491 312.489 C 367.405 311.670,367.336 312.440,367.337 314.200 M36.914 319.000 C 36.917 320.100,36.995 320.503,37.087 319.895 C 37.179 319.286,37.177 318.386,37.082 317.895 C 36.987 317.403,36.911 317.900,36.914 319.000 M352.426 339.369 C 352.151 339.700,352.114 340.023,352.335 340.160 C 352.541 340.287,352.918 340.139,353.174 339.831 C 353.449 339.500,353.486 339.177,353.265 339.040 C 353.059 338.913,352.682 339.061,352.426 339.369 M76.800 342.400 C 76.800 342.620,77.160 342.800,77.600 342.800 C 78.040 342.800,78.400 342.620,78.400 342.400 C 78.400 342.180,78.040 342.000,77.600 342.000 C 77.160 342.000,76.800 342.180,76.800 342.400 M328.800 342.400 C 328.800 342.620,329.160 342.800,329.600 342.800 C 330.040 342.800,330.400 342.620,330.400 342.400 C 330.400 342.180,330.040 342.000,329.600 342.000 C 329.160 342.000,328.800 342.180,328.800 342.400 M175.931 342.700 C 191.403 342.758,216.603 342.758,231.931 342.700 C 247.259 342.642,234.600 342.594,203.800 342.594 C 173.000 342.595,160.459 342.642,175.931 342.700 " stroke="none" fill="#78c404" fill-rule="evenodd"></path><path id="path4" d="M57.200 57.206 C 56.778 57.482,57.015 57.523,58.000 57.342 C 59.725 57.025,60.051 56.798,58.767 56.806 C 58.235 56.809,57.530 56.989,57.200 57.206 M65.420 57.162 C 65.633 57.366,66.502 57.386,67.400 57.208 L 69.000 56.892 67.020 56.846 C 65.826 56.818,65.191 56.944,65.420 57.162 M74.882 57.096 C 76.358 57.173,78.878 57.173,80.482 57.097 C 82.087 57.021,80.880 56.958,77.800 56.958 C 74.720 56.957,73.407 57.019,74.882 57.096 M322.721 57.099 C 324.988 57.170,328.588 57.170,330.721 57.098 C 332.855 57.026,331.000 56.968,326.600 56.968 C 322.200 56.968,320.455 57.027,322.721 57.099 M338.705 57.083 C 339.202 57.179,339.922 57.175,340.305 57.075 C 340.687 56.975,340.280 56.896,339.400 56.901 C 338.520 56.905,338.207 56.987,338.705 57.083 M347.300 57.076 C 347.685 57.176,348.315 57.176,348.700 57.076 C 349.085 56.975,348.770 56.893,348.000 56.893 C 347.230 56.893,346.915 56.975,347.300 57.076 M43.293 74.400 C 43.293 75.170,43.375 75.485,43.476 75.100 C 43.576 74.715,43.576 74.085,43.476 73.700 C 43.375 73.315,43.293 73.630,43.293 74.400 M36.931 83.000 C 36.933 84.540,37.005 85.121,37.092 84.291 C 37.179 83.461,37.177 82.201,37.089 81.491 C 37.000 80.781,36.929 81.460,36.931 83.000 M36.928 94.000 C 36.928 95.430,37.001 96.015,37.089 95.300 C 37.178 94.585,37.178 93.415,37.089 92.700 C 37.001 91.985,36.928 92.570,36.928 94.000 M42.181 143.800 C 42.180 151.720,42.234 155.017,42.299 151.126 C 42.365 147.235,42.365 140.755,42.300 136.726 C 42.234 132.697,42.181 135.880,42.181 143.800 M322.734 143.967 C 322.843 144.535,323.004 144.785,323.092 144.522 C 323.180 144.260,323.510 144.144,323.826 144.265 C 324.443 144.502,324.570 144.073,324.094 143.361 C 323.488 142.454,322.527 142.883,322.734 143.967 M322.101 149.400 C 322.105 150.280,322.187 150.593,322.283 150.095 C 322.379 149.598,322.375 148.878,322.275 148.495 C 322.175 148.113,322.096 148.520,322.101 149.400 M129.318 149.898 C 131.033 149.973,133.733 149.972,135.318 149.897 C 136.903 149.821,135.500 149.759,132.200 149.760 C 128.900 149.761,127.603 149.822,129.318 149.898 M272.523 149.899 C 275.120 149.969,279.260 149.968,281.723 149.898 C 284.185 149.828,282.060 149.771,277.000 149.772 C 271.940 149.772,269.925 149.829,272.523 149.899 M228.131 174.200 C 228.133 175.740,228.205 176.321,228.292 175.491 C 228.379 174.661,228.377 173.401,228.289 172.691 C 228.200 171.981,228.129 172.660,228.131 174.200 M86.557 182.000 C 86.557 184.970,86.620 186.185,86.697 184.700 C 86.774 183.215,86.774 180.785,86.697 179.300 C 86.620 177.815,86.557 179.030,86.557 182.000 M88.953 181.400 C 88.953 184.040,89.018 185.068,89.097 183.684 C 89.175 182.301,89.174 180.141,89.095 178.884 C 89.016 177.628,88.952 178.760,88.953 181.400 M89.792 233.400 C 89.792 253.640,89.840 261.979,89.900 251.930 C 89.959 241.882,89.959 225.322,89.900 215.130 C 89.840 204.939,89.792 213.160,89.792 233.400 M36.994 252.800 C 36.994 281.290,37.042 292.945,37.100 278.700 C 37.158 264.455,37.158 241.145,37.100 226.900 C 37.042 212.655,36.994 224.310,36.994 252.800 M38.548 207.600 C 38.548 209.910,38.614 210.855,38.695 209.700 C 38.776 208.545,38.776 206.655,38.695 205.500 C 38.614 204.345,38.548 205.290,38.548 207.600 M41.731 207.800 C 41.733 209.340,41.805 209.921,41.892 209.091 C 41.979 208.261,41.977 207.001,41.889 206.291 C 41.800 205.581,41.729 206.260,41.731 207.800 M316.981 226.600 C 316.981 234.960,317.034 238.437,317.099 234.326 C 317.164 230.216,317.164 223.376,317.100 219.126 C 317.035 214.877,316.982 218.240,316.981 226.600 M366.960 217.800 C 366.961 221.100,367.022 222.397,367.098 220.682 C 367.173 218.967,367.172 216.267,367.097 214.682 C 367.021 213.097,366.959 214.500,366.960 217.800 M317.693 214.400 C 317.693 215.170,317.775 215.485,317.876 215.100 C 317.976 214.715,317.976 214.085,317.876 213.700 C 317.775 213.315,317.693 213.630,317.693 214.400 M318.175 226.600 C 318.175 232.540,318.231 235.026,318.299 232.124 C 318.367 229.222,318.367 224.362,318.299 221.324 C 318.231 218.286,318.175 220.660,318.175 226.600 M320.174 227.000 C 320.175 232.720,320.231 235.004,320.299 232.076 C 320.368 229.148,320.367 224.468,320.299 221.676 C 320.230 218.884,320.174 221.280,320.174 227.000 M363.314 221.800 C 363.317 222.900,363.395 223.303,363.487 222.695 C 363.579 222.086,363.577 221.186,363.482 220.695 C 363.387 220.203,363.311 220.700,363.314 221.800 M365.293 224.800 C 365.293 225.570,365.375 225.885,365.476 225.500 C 365.576 225.115,365.576 224.485,365.476 224.100 C 365.375 223.715,365.293 224.030,365.293 224.800 M38.169 233.000 C 38.170 237.620,38.228 239.455,38.299 237.078 C 38.370 234.701,38.369 230.921,38.298 228.678 C 38.227 226.435,38.169 228.380,38.169 233.000 M39.360 232.200 C 39.361 235.500,39.422 236.797,39.498 235.082 C 39.573 233.367,39.572 230.667,39.497 229.082 C 39.421 227.497,39.359 228.900,39.360 232.200 M364.509 230.400 C 364.509 231.390,364.587 231.795,364.682 231.300 C 364.778 230.805,364.778 229.995,364.682 229.500 C 364.587 229.005,364.509 229.410,364.509 230.400 M41.309 236.400 C 41.309 237.390,41.387 237.795,41.482 237.300 C 41.578 236.805,41.578 235.995,41.482 235.500 C 41.387 235.005,41.309 235.410,41.309 236.400 M41.625 239.820 C 41.639 240.249,41.894 241.950,42.193 243.600 L 42.735 246.600 42.521 243.200 C 42.341 240.351,41.546 237.350,41.625 239.820 M368.000 244.467 C 368.000 246.703,368.066 248.458,368.147 248.367 C 368.554 247.908,368.814 240.400,368.424 240.400 C 368.153 240.400,368.000 241.868,368.000 244.467 M38.524 245.800 C 38.526 247.120,38.601 247.612,38.690 246.893 C 38.779 246.174,38.777 245.094,38.686 244.493 C 38.595 243.892,38.522 244.480,38.524 245.800 M368.000 255.400 C 368.000 257.563,368.109 259.224,368.243 259.090 C 368.527 258.807,368.481 251.948,368.194 251.661 C 368.087 251.554,368.000 253.237,368.000 255.400 M365.517 256.121 C 365.402 256.725,365.444 257.304,365.612 257.407 C 366.077 257.695,366.324 256.698,366.008 255.811 C 365.760 255.114,365.703 255.151,365.517 256.121 M41.693 264.800 C 41.693 265.570,41.775 265.885,41.876 265.500 C 41.976 265.115,41.976 264.485,41.876 264.100 C 41.775 263.715,41.693 264.030,41.693 264.800 M39.701 267.000 C 39.705 267.880,39.787 268.193,39.883 267.695 C 39.979 267.198,39.975 266.478,39.875 266.095 C 39.775 265.713,39.696 266.120,39.701 267.000 M42.405 266.200 C 42.291 267.112,42.400 268.121,42.638 268.367 C 42.979 268.717,43.027 268.148,42.771 266.800 C 42.611 265.956,42.466 265.718,42.405 266.200 M37.701 281.800 C 37.705 282.680,37.787 282.993,37.883 282.495 C 37.979 281.998,37.975 281.278,37.875 280.895 C 37.775 280.513,37.696 280.920,37.701 281.800 M38.901 289.000 C 38.905 289.880,38.987 290.193,39.083 289.695 C 39.179 289.198,39.175 288.478,39.075 288.095 C 38.975 287.713,38.896 288.120,38.901 289.000 M40.501 289.000 C 40.505 289.880,40.587 290.193,40.683 289.695 C 40.779 289.198,40.775 288.478,40.675 288.095 C 40.575 287.713,40.496 288.120,40.501 289.000 M176.893 296.000 C 176.893 296.770,176.975 297.085,177.076 296.700 C 177.176 296.315,177.176 295.685,177.076 295.300 C 176.975 294.915,176.893 295.230,176.893 296.000 M111.731 297.900 C 123.793 297.959,143.413 297.959,155.331 297.900 C 167.249 297.841,157.380 297.793,133.400 297.793 C 109.420 297.793,99.669 297.841,111.731 297.900 M251.731 297.900 C 263.793 297.959,283.413 297.959,295.331 297.900 C 307.249 297.841,297.380 297.793,273.400 297.793 C 249.420 297.793,239.669 297.841,251.731 297.900 M366.114 301.800 C 366.117 302.900,366.195 303.303,366.287 302.695 C 366.379 302.086,366.377 301.186,366.282 300.695 C 366.187 300.203,366.111 300.700,366.114 301.800 M367.600 304.576 C 367.600 305.113,367.747 305.644,367.928 305.755 C 368.108 305.867,368.177 305.427,368.082 304.779 C 367.872 303.349,367.600 303.235,367.600 304.576 M367.337 314.200 C 367.339 315.960,367.409 316.630,367.493 315.689 C 367.578 314.749,367.577 313.309,367.491 312.489 C 367.405 311.670,367.336 312.440,367.337 314.200 M36.914 319.000 C 36.917 320.100,36.995 320.503,37.087 319.895 C 37.179 319.286,37.177 318.386,37.082 317.895 C 36.987 317.403,36.911 317.900,36.914 319.000 M352.426 339.369 C 352.151 339.700,352.114 340.023,352.335 340.160 C 352.541 340.287,352.918 340.139,353.174 339.831 C 353.449 339.500,353.486 339.177,353.265 339.040 C 353.059 338.913,352.682 339.061,352.426 339.369 M76.800 342.400 C 76.800 342.620,77.160 342.800,77.600 342.800 C 78.040 342.800,78.400 342.620,78.400 342.400 C 78.400 342.180,78.040 342.000,77.600 342.000 C 77.160 342.000,76.800 342.180,76.800 342.400 M328.800 342.400 C 328.800 342.620,329.160 342.800,329.600 342.800 C 330.040 342.800,330.400 342.620,330.400 342.400 C 330.400 342.180,330.040 342.000,329.600 342.000 C 329.160 342.000,328.800 342.180,328.800 342.400 M175.931 342.700 C 191.403 342.758,216.603 342.758,231.931 342.700 C 247.259 342.642,234.600 342.594,203.800 342.594 C 173.000 342.595,160.459 342.642,175.931 342.700 " stroke="none" fill="#78c404" fill-rule="evenodd"></path></g></svg>