<svg width="40" height="40" viewBox="0 0 40 40" fill="none" xmlns="http://www.w3.org/2000/svg">
<path d="M37.9823 3.33834C39.3443 4.6995 39.3443 6.90701 37.9823 8.26817L36.2211 10.0294L30.1216 3.92981L31.8828 2.16862C33.2447 0.807073 35.4522 0.807073 36.8138 2.16862L37.9823 3.33834Z" fill="#8FDD3D"/>
<path d="M36.2216 10.0292L20.2682 25.9838H20.267L14.1675 19.8842L30.122 3.92969L36.2216 10.0292Z" fill="#5EC14A"/>
<path d="M14.1674 19.8848L20.267 25.9843L20.2102 26.0411L11.7739 28.3782L14.1106 19.9416L14.1674 19.8848Z" fill="white"/>
<path d="M36.9168 25.1261C36.3665 25.1261 35.9206 25.5721 35.9206 26.1223V34.9671C35.9186 36.617 34.582 37.9537 32.9321 37.9556H4.98081C3.33092 37.9537 1.99427 36.617 1.99232 34.9671V9.00815C1.99427 7.35865 3.33092 6.02161 4.98081 6.01967H13.8256C14.3759 6.01967 14.8218 5.57373 14.8218 5.02351C14.8218 4.47328 14.3759 4.02734 13.8256 4.02734H4.98081C2.23125 4.03046 0.00311301 6.25859 0 9.00815V34.9671C0.00311301 37.7167 2.23125 39.9448 4.98081 39.9479H32.9321C35.6817 39.9448 37.9098 37.7167 37.9129 34.9671V26.1223C37.9129 25.5721 37.467 25.1261 36.9168 25.1261Z" fill="black"/>
<path d="M37.5186 1.46429C35.7664 -0.283668 32.9304 -0.283668 31.1786 1.46429L13.4061 19.2368C13.2846 19.3586 13.1963 19.5096 13.1504 19.675L10.8137 28.1116C10.7176 28.4576 10.8153 28.828 11.069 29.0821C11.3231 29.3358 11.6935 29.4335 12.0394 29.3378L20.4761 27.0007C20.6418 26.9547 20.7932 26.8664 20.915 26.7446L20.9714 26.6878L38.6868 8.97247C40.4374 7.22218 40.4374 4.38428 38.6868 2.634L37.5186 1.46429ZM14.6392 21.765L18.3861 25.5123L13.2029 26.9481L14.6392 21.765ZM20.2675 25.9843V25.9835L20.917 26.6329L20.2675 25.9843ZM20.2675 24.5756L15.5762 19.8843L30.1217 5.33881L34.8126 10.0293L20.2675 24.5756ZM37.2781 7.56383L36.2213 8.6207L31.5308 3.92979L32.5876 2.87292C33.5604 1.90205 35.136 1.90205 36.1092 2.87292L37.2781 4.04302C38.2509 5.01506 38.2509 6.5918 37.2781 7.56383Z" fill="black"/>
</svg>
