<svg id="svg" version="1.1" xmlns="http://www.w3.org/2000/svg" xmlns:xlink="http://www.w3.org/1999/xlink" width="400" height="400" viewBox="0, 0, 400,400"><g id="svgg"><path id="path0" d="M86.288 90.543 C 86.405 90.731,86.109 90.762,85.631 90.610 C 84.107 90.126,83.600 91.015,83.600 94.172 L 83.600 97.046 81.100 96.998 C 79.725 96.971,78.185 97.095,77.677 97.273 C 77.057 97.491,76.840 97.458,77.017 97.173 C 77.192 96.890,76.801 96.824,75.839 96.974 C 75.048 97.099,73.756 97.301,72.970 97.424 C 71.820 97.604,71.430 97.910,70.981 98.985 C 70.344 100.509,69.916 109.101,70.460 109.437 C 70.654 109.557,70.704 109.832,70.570 110.049 C 70.211 110.629,70.083 139.573,70.432 141.132 C 70.836 142.937,70.868 142.955,73.975 143.131 L 76.706 143.285 76.966 145.584 C 77.463 149.972,77.326 149.945,98.540 149.940 C 117.194 149.935,116.709 150.069,116.777 144.900 L 116.800 143.200 119.371 143.200 C 123.217 143.200,123.200 143.235,123.200 135.251 L 123.200 128.559 124.986 127.692 C 130.582 124.973,130.598 112.568,125.008 111.160 L 123.200 110.705 123.198 105.653 C 123.194 96.947,122.997 96.745,114.700 96.965 C 110.608 97.073,109.994 97.006,109.954 96.445 C 109.929 96.090,109.884 94.774,109.854 93.520 C 109.825 92.266,109.594 91.034,109.341 90.781 C 108.793 90.233,85.950 89.997,86.288 90.543 M154.000 97.112 C 151.819 97.356,151.282 97.637,150.809 98.778 C 150.538 99.432,150.381 100.767,150.458 101.745 C 150.536 102.723,150.458 103.436,150.284 103.328 C 150.110 103.221,150.085 103.598,150.227 104.166 C 150.436 105.000,150.343 105.200,149.743 105.201 C 148.378 105.204,146.358 106.796,145.543 108.511 C 145.101 109.440,144.486 110.650,144.176 111.200 C 143.744 111.966,143.610 114.052,143.606 120.113 C 143.598 130.880,144.665 134.194,148.470 135.219 C 150.236 135.694,150.436 136.208,150.295 139.913 C 150.224 141.789,150.352 142.523,150.800 142.807 C 151.614 143.324,328.383 143.325,329.200 142.808 C 329.721 142.479,329.799 139.718,329.795 121.914 C 329.790 99.431,329.726 98.750,327.518 97.692 C 326.558 97.232,157.963 96.668,154.000 97.112 M118.326 103.855 C 118.395 103.890,118.025 103.892,117.504 103.860 C 116.891 103.821,116.535 103.538,116.499 103.058 C 116.445 102.336,116.468 102.336,117.322 103.053 C 117.805 103.459,118.257 103.820,118.326 103.855 M149.824 107.184 C 149.245 107.564,148.169 108.533,147.432 109.337 C 146.695 110.142,145.846 110.795,145.546 110.788 C 145.157 110.779,145.188 110.666,145.656 110.393 C 146.017 110.182,147.182 109.121,148.244 108.036 C 149.307 106.950,150.334 106.159,150.526 106.278 C 150.719 106.397,150.403 106.805,149.824 107.184 M329.476 121.100 C 329.375 121.485,329.293 121.170,329.293 120.400 C 329.293 119.630,329.375 119.315,329.476 119.700 C 329.576 120.085,329.576 120.715,329.476 121.100 M316.000 142.000 C 316.000 142.501,315.576 142.501,314.800 142.000 C 314.315 141.686,314.372 141.611,315.100 141.606 C 315.595 141.603,316.000 141.780,316.000 142.000 M112.082 144.227 C 111.590 144.572,111.307 145.050,111.455 145.289 C 111.621 145.557,111.536 145.608,111.236 145.422 C 110.692 145.086,111.765 143.600,112.551 143.600 C 112.786 143.600,112.575 143.882,112.082 144.227 M84.203 170.502 C 83.906 170.669,83.549 171.321,83.410 171.953 C 83.272 172.584,82.330 173.965,81.317 175.022 L 79.476 176.944 76.036 177.005 C 71.018 177.095,69.871 178.183,70.528 182.231 C 70.651 182.994,70.616 183.533,70.449 183.430 C 70.186 183.268,70.141 188.653,70.400 189.200 C 70.452 189.310,70.456 189.580,70.410 189.800 C 70.196 190.803,70.186 219.200,70.399 219.200 C 70.531 219.200,70.570 219.795,70.485 220.522 C 70.272 222.347,71.063 222.868,74.406 223.108 L 77.200 223.307 77.206 224.954 C 77.222 229.533,77.903 229.718,95.400 229.896 C 116.030 230.105,116.078 230.095,116.595 225.644 L 116.879 223.200 119.239 223.200 C 123.078 223.200,123.200 222.949,123.200 215.080 L 123.200 208.559 124.986 207.692 C 127.755 206.346,128.495 204.533,128.553 198.947 C 128.609 193.628,128.118 192.583,125.103 191.602 L 123.266 191.004 123.133 184.521 C 122.975 176.830,123.068 177.000,119.024 177.000 L 116.088 177.000 115.853 175.018 C 115.518 172.187,111.499 169.426,109.507 170.658 C 109.338 170.762,109.200 170.702,109.200 170.524 C 109.200 170.114,84.933 170.094,84.203 170.502 M151.426 177.421 C 150.801 177.740,150.611 178.201,150.646 179.321 C 150.671 180.135,150.511 180.800,150.290 180.800 C 150.044 180.800,149.979 181.564,150.122 182.768 L 150.355 184.737 148.477 185.668 C 146.669 186.566,145.565 188.013,144.010 191.526 C 143.348 193.021,143.488 207.581,144.176 208.800 C 144.486 209.350,145.101 210.560,145.543 211.489 C 146.708 213.940,149.724 215.662,150.118 214.100 C 150.215 213.715,150.215 215.065,150.118 217.100 C 150.011 219.365,150.094 220.800,150.334 220.800 C 150.549 220.800,150.635 221.145,150.525 221.566 C 150.394 222.066,150.608 222.483,151.141 222.768 C 152.437 223.462,328.583 223.177,329.280 222.480 C 330.020 221.740,330.044 179.426,329.305 178.136 C 328.993 177.591,328.254 177.182,327.305 177.027 C 324.538 176.577,152.325 176.963,151.426 177.421 M166.200 180.000 C 165.622 180.248,165.567 180.367,166.000 180.429 C 166.330 180.475,165.880 180.623,165.000 180.757 C 163.800 180.939,163.428 181.167,163.511 181.670 C 163.571 182.038,163.436 182.454,163.211 182.593 C 162.981 182.736,162.800 182.485,162.800 182.024 C 162.800 181.558,162.539 181.200,162.200 181.200 C 161.870 181.200,161.600 180.930,161.600 180.600 C 161.600 180.270,161.791 180.000,162.024 180.000 C 162.257 180.000,162.348 180.161,162.226 180.358 C 162.104 180.555,162.274 180.819,162.602 180.946 C 162.958 181.082,163.200 180.947,163.200 180.613 C 163.200 180.278,163.727 179.985,164.500 179.889 C 166.695 179.617,167.039 179.639,166.200 180.000 M164.367 183.313 C 164.275 183.375,163.915 183.643,163.567 183.907 C 163.058 184.293,162.933 184.271,162.933 183.794 C 162.933 183.467,163.293 183.200,163.733 183.200 C 164.173 183.200,164.458 183.251,164.367 183.313 M148.000 188.800 C 146.894 189.900,145.767 190.795,145.495 190.788 C 145.223 190.781,145.332 190.583,145.738 190.346 C 146.145 190.110,147.111 189.216,147.885 188.359 C 148.659 187.501,149.455 186.800,149.652 186.800 C 149.849 186.800,149.106 187.700,148.000 188.800 M329.494 202.300 C 329.412 203.345,329.344 202.490,329.344 200.400 C 329.344 198.310,329.412 197.455,329.494 198.500 C 329.576 199.545,329.576 201.255,329.494 202.300 M84.400 250.483 C 84.400 250.683,84.239 250.748,84.042 250.626 C 81.943 249.328,77.827 252.097,77.416 255.083 L 77.150 257.016 75.648 256.873 C 71.825 256.509,69.968 257.942,70.543 260.815 C 70.673 261.467,70.650 262.000,70.490 262.000 C 70.331 262.000,70.200 269.830,70.200 279.400 C 70.200 288.970,70.304 296.800,70.431 296.800 C 70.558 296.800,70.582 297.339,70.486 297.997 C 69.963 301.558,71.011 302.743,74.903 302.989 C 76.450 303.087,77.489 303.348,77.635 303.674 C 78.846 306.385,79.548 307.448,80.400 307.863 C 84.098 309.667,84.910 310.000,85.612 310.000 C 86.046 310.000,86.400 309.814,86.400 309.586 C 86.400 309.306,86.661 309.312,87.206 309.603 C 88.151 310.109,109.709 310.100,109.396 309.594 C 109.288 309.418,109.558 309.368,109.996 309.483 C 113.192 310.319,115.777 308.650,116.171 305.496 L 116.447 303.288 119.216 303.131 C 123.060 302.914,122.979 303.077,123.126 295.248 L 123.251 288.535 125.011 287.679 C 130.583 284.972,130.581 272.564,125.008 271.160 L 123.200 270.705 123.200 264.553 C 123.200 256.995,122.964 256.537,119.305 256.995 C 116.771 257.311,116.416 257.037,116.406 254.760 C 116.391 251.314,114.872 249.911,111.794 250.499 C 111.247 250.604,110.800 250.560,110.800 250.403 C 110.800 250.246,104.860 250.118,97.600 250.118 C 89.935 250.119,84.400 250.272,84.400 250.483 M77.997 256.687 C 77.563 257.363,77.552 257.362,77.770 256.667 C 77.896 256.264,78.021 255.634,78.046 255.267 C 78.088 254.666,78.111 254.668,78.273 255.287 C 78.373 255.666,78.248 256.296,77.997 256.687 M151.127 257.305 C 150.457 257.553,150.348 257.838,150.545 258.825 C 150.715 259.677,150.652 259.956,150.334 259.759 C 150.006 259.557,149.939 260.208,150.093 262.120 L 150.305 264.761 148.452 265.681 C 147.091 266.356,146.370 267.056,145.731 268.321 C 145.253 269.268,144.623 270.331,144.331 270.683 C 143.927 271.171,143.800 273.335,143.800 279.762 L 143.800 288.200 145.200 290.800 C 146.358 292.951,146.926 293.562,148.487 294.336 L 150.375 295.273 150.140 296.984 C 149.997 298.031,150.074 298.799,150.340 298.963 C 150.578 299.110,150.679 299.719,150.562 300.316 C 150.437 300.955,150.594 301.728,150.943 302.200 C 151.533 302.997,321.676 303.762,327.099 302.993 C 329.904 302.594,329.800 303.487,329.800 279.762 C 329.800 256.619,329.825 256.879,327.630 257.386 C 327.063 257.517,326.808 257.484,327.062 257.312 C 327.659 256.909,152.218 256.902,151.127 257.305 M149.283 267.523 C 148.779 267.911,147.931 268.762,147.398 269.414 C 146.865 270.066,146.422 270.466,146.414 270.301 C 146.391 269.805,149.259 266.799,149.747 266.809 C 149.996 266.814,149.788 267.135,149.283 267.523 M82.199 302.802 C 82.108 302.949,82.756 303.098,83.639 303.133 C 84.716 303.175,85.155 303.051,84.973 302.757 C 84.824 302.515,85.174 302.626,85.751 303.005 C 87.102 303.890,87.117 303.876,84.959 303.782 C 83.809 303.732,83.321 303.831,83.659 304.045 C 83.957 304.233,84.020 304.393,83.800 304.400 C 83.580 304.407,83.657 304.575,83.972 304.774 C 84.286 304.973,84.586 305.421,84.637 305.770 C 84.688 306.119,84.563 306.301,84.358 306.174 C 84.154 306.048,84.089 305.779,84.214 305.577 C 84.339 305.375,84.207 305.293,83.921 305.396 C 83.634 305.498,82.950 304.972,82.400 304.228 C 81.850 303.483,81.343 302.929,81.273 302.997 C 81.203 303.066,81.795 303.972,82.588 305.012 C 84.180 307.097,84.202 307.613,82.655 306.599 C 81.042 305.542,79.939 303.435,80.736 302.932 C 81.449 302.482,82.452 302.393,82.199 302.802 M79.832 304.897 C 80.378 306.103,81.099 306.868,82.324 307.540 C 84.565 308.770,84.244 309.106,81.969 307.913 C 80.276 307.024,78.400 304.831,78.400 303.741 C 78.400 302.681,79.075 303.226,79.832 304.897 M86.418 305.529 C 86.926 305.990,86.924 306.041,86.401 305.929 C 85.722 305.783,84.825 304.799,84.825 304.200 C 84.825 303.980,85.053 304.070,85.331 304.400 C 85.609 304.730,86.098 305.238,86.418 305.529 " stroke="none" fill="#74c404" fill-rule="evenodd"></path><path id="path1" d="M93.521 90.299 C 95.788 90.370,99.388 90.370,101.521 90.298 C 103.655 90.226,101.800 90.168,97.400 90.168 C 93.000 90.168,91.255 90.227,93.521 90.299 M199.732 97.100 C 221.474 97.157,256.934 97.157,278.532 97.100 C 300.129 97.043,282.340 96.996,239.000 96.996 C 195.660 96.996,177.989 97.043,199.732 97.100 M116.499 103.058 C 116.535 103.538,116.891 103.821,117.504 103.860 C 118.025 103.892,118.395 103.890,118.326 103.855 C 118.257 103.820,117.805 103.459,117.322 103.053 C 116.468 102.336,116.445 102.336,116.499 103.058 M70.101 106.200 C 70.105 107.080,70.187 107.393,70.283 106.895 C 70.379 106.398,70.375 105.678,70.275 105.295 C 70.175 104.913,70.096 105.320,70.101 106.200 M148.244 108.036 C 147.182 109.121,146.017 110.182,145.656 110.393 C 145.188 110.666,145.157 110.779,145.546 110.788 C 145.846 110.795,146.695 110.142,147.432 109.337 C 148.169 108.533,149.245 107.564,149.824 107.184 C 150.403 106.805,150.719 106.397,150.526 106.278 C 150.334 106.159,149.307 106.950,148.244 108.036 M70.000 110.776 C 70.000 111.669,70.070 112.400,70.156 112.400 C 70.477 112.400,70.632 109.544,70.323 109.352 C 70.145 109.242,70.000 109.883,70.000 110.776 M70.157 120.400 C 70.157 123.370,70.220 124.585,70.297 123.100 C 70.374 121.615,70.374 119.185,70.297 117.700 C 70.220 116.215,70.157 117.430,70.157 120.400 M329.293 120.400 C 329.293 121.170,329.375 121.485,329.476 121.100 C 329.576 120.715,329.576 120.085,329.476 119.700 C 329.375 119.315,329.293 119.630,329.293 120.400 M70.101 135.000 C 70.105 135.880,70.187 136.193,70.283 135.695 C 70.379 135.198,70.375 134.478,70.275 134.095 C 70.175 133.713,70.096 134.120,70.101 135.000 M150.109 138.000 C 150.109 138.990,150.187 139.395,150.282 138.900 C 150.378 138.405,150.378 137.595,150.282 137.100 C 150.187 136.605,150.109 137.010,150.109 138.000 M314.800 142.000 C 315.576 142.501,316.000 142.501,316.000 142.000 C 316.000 141.780,315.595 141.603,315.100 141.606 C 314.372 141.611,314.315 141.686,314.800 142.000 M111.436 144.360 C 110.919 144.932,110.869 145.196,111.236 145.422 C 111.536 145.608,111.621 145.557,111.455 145.289 C 111.307 145.050,111.590 144.572,112.082 144.227 C 112.575 143.882,112.786 143.600,112.551 143.600 C 112.316 143.600,111.814 143.942,111.436 144.360 M88.912 170.295 C 89.964 170.377,91.584 170.376,92.512 170.292 C 93.440 170.208,92.580 170.141,90.600 170.142 C 88.620 170.143,87.860 170.212,88.912 170.295 M102.300 170.293 C 103.235 170.377,104.765 170.377,105.700 170.293 C 106.635 170.209,105.870 170.140,104.000 170.140 C 102.130 170.140,101.365 170.209,102.300 170.293 M165.127 177.100 C 170.258 177.163,178.538 177.163,183.527 177.100 C 188.517 177.036,184.320 176.984,174.200 176.984 C 164.080 176.984,159.997 177.036,165.127 177.100 M281.900 177.095 C 283.055 177.176,284.945 177.176,286.100 177.095 C 287.255 177.014,286.310 176.948,284.000 176.948 C 281.690 176.948,280.745 177.014,281.900 177.095 M317.911 177.093 C 318.851 177.178,320.291 177.177,321.111 177.091 C 321.930 177.005,321.160 176.936,319.400 176.937 C 317.640 176.939,316.970 177.009,317.911 177.093 M164.500 179.889 C 163.727 179.985,163.200 180.278,163.200 180.613 C 163.200 180.947,162.958 181.082,162.602 180.946 C 162.274 180.819,162.104 180.555,162.226 180.358 C 162.348 180.161,162.257 180.000,162.024 180.000 C 161.791 180.000,161.600 180.270,161.600 180.600 C 161.600 180.930,161.870 181.200,162.200 181.200 C 162.539 181.200,162.800 181.558,162.800 182.024 C 162.800 182.485,162.981 182.736,163.211 182.593 C 163.436 182.454,163.571 182.038,163.511 181.670 C 163.428 181.167,163.800 180.939,165.000 180.757 C 165.880 180.623,166.330 180.475,166.000 180.429 C 165.567 180.367,165.622 180.248,166.200 180.000 C 167.039 179.639,166.695 179.617,164.500 179.889 M162.933 183.794 C 162.933 184.271,163.058 184.293,163.567 183.907 C 163.915 183.643,164.275 183.375,164.367 183.313 C 164.458 183.251,164.173 183.200,163.733 183.200 C 163.293 183.200,162.933 183.467,162.933 183.794 M70.093 186.000 C 70.093 186.770,70.175 187.085,70.276 186.700 C 70.376 186.315,70.376 185.685,70.276 185.300 C 70.175 184.915,70.093 185.230,70.093 186.000 M147.885 188.359 C 147.111 189.216,146.145 190.110,145.738 190.346 C 145.332 190.583,145.223 190.781,145.495 190.788 C 145.767 190.795,146.894 189.900,148.000 188.800 C 149.106 187.700,149.849 186.800,149.652 186.800 C 149.455 186.800,148.659 187.501,147.885 188.359 M70.000 190.376 C 70.000 191.269,70.070 192.000,70.156 192.000 C 70.477 192.000,70.632 189.144,70.323 188.952 C 70.145 188.842,70.000 189.483,70.000 190.376 M70.157 200.400 C 70.157 203.370,70.220 204.585,70.297 203.100 C 70.374 201.615,70.374 199.185,70.297 197.700 C 70.220 196.215,70.157 197.430,70.157 200.400 M329.344 200.400 C 329.344 202.490,329.412 203.345,329.494 202.300 C 329.576 201.255,329.576 199.545,329.494 198.500 C 329.412 197.455,329.344 198.310,329.344 200.400 M70.093 210.400 C 70.093 211.170,70.175 211.485,70.276 211.100 C 70.376 210.715,70.376 210.085,70.276 209.700 C 70.175 209.315,70.093 209.630,70.093 210.400 M70.101 214.600 C 70.105 215.480,70.187 215.793,70.283 215.295 C 70.379 214.798,70.375 214.078,70.275 213.695 C 70.175 213.313,70.096 213.720,70.101 214.600 M86.905 250.287 C 87.514 250.379,88.414 250.377,88.905 250.282 C 89.397 250.187,88.900 250.111,87.800 250.114 C 86.700 250.117,86.297 250.195,86.905 250.287 M105.300 250.287 C 105.905 250.378,106.895 250.378,107.500 250.287 C 108.105 250.195,107.610 250.120,106.400 250.120 C 105.190 250.120,104.695 250.195,105.300 250.287 M78.046 255.267 C 78.021 255.634,77.896 256.264,77.770 256.667 C 77.552 257.362,77.563 257.363,77.997 256.687 C 78.248 256.296,78.373 255.666,78.273 255.287 C 78.111 254.668,78.088 254.666,78.046 255.267 M117.300 257.076 C 117.685 257.176,118.315 257.176,118.700 257.076 C 119.085 256.975,118.770 256.893,118.000 256.893 C 117.230 256.893,116.915 256.975,117.300 257.076 M155.907 257.090 C 156.626 257.179,157.706 257.177,158.307 257.086 C 158.908 256.995,158.320 256.922,157.000 256.924 C 155.680 256.926,155.188 257.001,155.907 257.090 M200.700 257.100 C 221.655 257.157,255.945 257.157,276.900 257.100 C 297.855 257.043,280.710 256.996,238.800 256.996 C 196.890 256.996,179.745 257.043,200.700 257.100 M320.691 257.089 C 321.401 257.177,322.661 257.179,323.491 257.092 C 324.321 257.005,323.740 256.933,322.200 256.931 C 320.660 256.929,319.981 257.000,320.691 257.089 M70.093 265.600 C 70.093 266.370,70.175 266.685,70.276 266.300 C 70.376 265.915,70.376 265.285,70.276 264.900 C 70.175 264.515,70.093 264.830,70.093 265.600 M147.847 268.401 C 147.051 269.282,146.406 270.137,146.414 270.301 C 146.422 270.466,146.865 270.066,147.398 269.414 C 147.931 268.762,148.779 267.911,149.283 267.523 C 149.788 267.135,149.996 266.814,149.747 266.809 C 149.497 266.804,148.642 267.521,147.847 268.401 M70.101 269.800 C 70.105 270.680,70.187 270.993,70.283 270.495 C 70.379 269.998,70.375 269.278,70.275 268.895 C 70.175 268.513,70.096 268.920,70.101 269.800 M70.157 280.000 C 70.157 282.970,70.220 284.185,70.297 282.700 C 70.374 281.215,70.374 278.785,70.297 277.300 C 70.220 275.815,70.157 277.030,70.157 280.000 M70.101 289.800 C 70.105 290.680,70.187 290.993,70.283 290.495 C 70.379 289.998,70.375 289.278,70.275 288.895 C 70.175 288.513,70.096 288.920,70.101 289.800 M70.093 294.000 C 70.093 294.770,70.175 295.085,70.276 294.700 C 70.376 294.315,70.376 293.685,70.276 293.300 C 70.175 292.915,70.093 293.230,70.093 294.000 M80.736 302.932 C 79.939 303.435,81.042 305.542,82.655 306.599 C 84.202 307.613,84.180 307.097,82.588 305.012 C 81.795 303.972,81.203 303.066,81.273 302.997 C 81.343 302.929,81.850 303.483,82.400 304.228 C 82.950 304.972,83.634 305.498,83.921 305.396 C 84.207 305.293,84.339 305.375,84.214 305.577 C 84.089 305.779,84.154 306.048,84.358 306.174 C 84.563 306.301,84.688 306.119,84.637 305.770 C 84.586 305.421,84.286 304.973,83.972 304.774 C 83.657 304.575,83.580 304.407,83.800 304.400 C 84.020 304.393,83.957 304.233,83.659 304.045 C 83.321 303.831,83.809 303.732,84.959 303.782 C 87.117 303.876,87.102 303.890,85.751 303.005 C 85.174 302.626,84.824 302.515,84.973 302.757 C 85.155 303.051,84.716 303.175,83.639 303.133 C 82.756 303.098,82.108 302.949,82.199 302.802 C 82.452 302.393,81.449 302.482,80.736 302.932 M78.400 303.741 C 78.400 304.831,80.276 307.024,81.969 307.913 C 84.244 309.106,84.565 308.770,82.324 307.540 C 81.099 306.868,80.378 306.103,79.832 304.897 C 79.075 303.226,78.400 302.681,78.400 303.741 M84.825 304.200 C 84.825 304.799,85.722 305.783,86.401 305.929 C 86.924 306.041,86.926 305.990,86.418 305.529 C 86.098 305.238,85.609 304.730,85.331 304.400 C 85.053 304.070,84.825 303.980,84.825 304.200 " stroke="none" fill="#78c404" fill-rule="evenodd"></path><path id="path2" d="M93.521 90.299 C 95.788 90.370,99.388 90.370,101.521 90.298 C 103.655 90.226,101.800 90.168,97.400 90.168 C 93.000 90.168,91.255 90.227,93.521 90.299 M199.732 97.100 C 221.474 97.157,256.934 97.157,278.532 97.100 C 300.129 97.043,282.340 96.996,239.000 96.996 C 195.660 96.996,177.989 97.043,199.732 97.100 M116.499 103.058 C 116.535 103.538,116.891 103.821,117.504 103.860 C 118.025 103.892,118.395 103.890,118.326 103.855 C 118.257 103.820,117.805 103.459,117.322 103.053 C 116.468 102.336,116.445 102.336,116.499 103.058 M70.101 106.200 C 70.105 107.080,70.187 107.393,70.283 106.895 C 70.379 106.398,70.375 105.678,70.275 105.295 C 70.175 104.913,70.096 105.320,70.101 106.200 M148.244 108.036 C 147.182 109.121,146.017 110.182,145.656 110.393 C 145.188 110.666,145.157 110.779,145.546 110.788 C 145.846 110.795,146.695 110.142,147.432 109.337 C 148.169 108.533,149.245 107.564,149.824 107.184 C 150.403 106.805,150.719 106.397,150.526 106.278 C 150.334 106.159,149.307 106.950,148.244 108.036 M70.000 110.776 C 70.000 111.669,70.070 112.400,70.156 112.400 C 70.477 112.400,70.632 109.544,70.323 109.352 C 70.145 109.242,70.000 109.883,70.000 110.776 M70.157 120.400 C 70.157 123.370,70.220 124.585,70.297 123.100 C 70.374 121.615,70.374 119.185,70.297 117.700 C 70.220 116.215,70.157 117.430,70.157 120.400 M329.293 120.400 C 329.293 121.170,329.375 121.485,329.476 121.100 C 329.576 120.715,329.576 120.085,329.476 119.700 C 329.375 119.315,329.293 119.630,329.293 120.400 M70.101 135.000 C 70.105 135.880,70.187 136.193,70.283 135.695 C 70.379 135.198,70.375 134.478,70.275 134.095 C 70.175 133.713,70.096 134.120,70.101 135.000 M150.109 138.000 C 150.109 138.990,150.187 139.395,150.282 138.900 C 150.378 138.405,150.378 137.595,150.282 137.100 C 150.187 136.605,150.109 137.010,150.109 138.000 M314.800 142.000 C 315.576 142.501,316.000 142.501,316.000 142.000 C 316.000 141.780,315.595 141.603,315.100 141.606 C 314.372 141.611,314.315 141.686,314.800 142.000 M111.436 144.360 C 110.919 144.932,110.869 145.196,111.236 145.422 C 111.536 145.608,111.621 145.557,111.455 145.289 C 111.307 145.050,111.590 144.572,112.082 144.227 C 112.575 143.882,112.786 143.600,112.551 143.600 C 112.316 143.600,111.814 143.942,111.436 144.360 M88.912 170.295 C 89.964 170.377,91.584 170.376,92.512 170.292 C 93.440 170.208,92.580 170.141,90.600 170.142 C 88.620 170.143,87.860 170.212,88.912 170.295 M102.300 170.293 C 103.235 170.377,104.765 170.377,105.700 170.293 C 106.635 170.209,105.870 170.140,104.000 170.140 C 102.130 170.140,101.365 170.209,102.300 170.293 M165.127 177.100 C 170.258 177.163,178.538 177.163,183.527 177.100 C 188.517 177.036,184.320 176.984,174.200 176.984 C 164.080 176.984,159.997 177.036,165.127 177.100 M281.900 177.095 C 283.055 177.176,284.945 177.176,286.100 177.095 C 287.255 177.014,286.310 176.948,284.000 176.948 C 281.690 176.948,280.745 177.014,281.900 177.095 M317.911 177.093 C 318.851 177.178,320.291 177.177,321.111 177.091 C 321.930 177.005,321.160 176.936,319.400 176.937 C 317.640 176.939,316.970 177.009,317.911 177.093 M164.500 179.889 C 163.727 179.985,163.200 180.278,163.200 180.613 C 163.200 180.947,162.958 181.082,162.602 180.946 C 162.274 180.819,162.104 180.555,162.226 180.358 C 162.348 180.161,162.257 180.000,162.024 180.000 C 161.791 180.000,161.600 180.270,161.600 180.600 C 161.600 180.930,161.870 181.200,162.200 181.200 C 162.539 181.200,162.800 181.558,162.800 182.024 C 162.800 182.485,162.981 182.736,163.211 182.593 C 163.436 182.454,163.571 182.038,163.511 181.670 C 163.428 181.167,163.800 180.939,165.000 180.757 C 165.880 180.623,166.330 180.475,166.000 180.429 C 165.567 180.367,165.622 180.248,166.200 180.000 C 167.039 179.639,166.695 179.617,164.500 179.889 M162.933 183.794 C 162.933 184.271,163.058 184.293,163.567 183.907 C 163.915 183.643,164.275 183.375,164.367 183.313 C 164.458 183.251,164.173 183.200,163.733 183.200 C 163.293 183.200,162.933 183.467,162.933 183.794 M70.093 186.000 C 70.093 186.770,70.175 187.085,70.276 186.700 C 70.376 186.315,70.376 185.685,70.276 185.300 C 70.175 184.915,70.093 185.230,70.093 186.000 M147.885 188.359 C 147.111 189.216,146.145 190.110,145.738 190.346 C 145.332 190.583,145.223 190.781,145.495 190.788 C 145.767 190.795,146.894 189.900,148.000 188.800 C 149.106 187.700,149.849 186.800,149.652 186.800 C 149.455 186.800,148.659 187.501,147.885 188.359 M70.000 190.376 C 70.000 191.269,70.070 192.000,70.156 192.000 C 70.477 192.000,70.632 189.144,70.323 188.952 C 70.145 188.842,70.000 189.483,70.000 190.376 M70.157 200.400 C 70.157 203.370,70.220 204.585,70.297 203.100 C 70.374 201.615,70.374 199.185,70.297 197.700 C 70.220 196.215,70.157 197.430,70.157 200.400 M329.344 200.400 C 329.344 202.490,329.412 203.345,329.494 202.300 C 329.576 201.255,329.576 199.545,329.494 198.500 C 329.412 197.455,329.344 198.310,329.344 200.400 M70.093 210.400 C 70.093 211.170,70.175 211.485,70.276 211.100 C 70.376 210.715,70.376 210.085,70.276 209.700 C 70.175 209.315,70.093 209.630,70.093 210.400 M70.101 214.600 C 70.105 215.480,70.187 215.793,70.283 215.295 C 70.379 214.798,70.375 214.078,70.275 213.695 C 70.175 213.313,70.096 213.720,70.101 214.600 M86.905 250.287 C 87.514 250.379,88.414 250.377,88.905 250.282 C 89.397 250.187,88.900 250.111,87.800 250.114 C 86.700 250.117,86.297 250.195,86.905 250.287 M105.300 250.287 C 105.905 250.378,106.895 250.378,107.500 250.287 C 108.105 250.195,107.610 250.120,106.400 250.120 C 105.190 250.120,104.695 250.195,105.300 250.287 M78.046 255.267 C 78.021 255.634,77.896 256.264,77.770 256.667 C 77.552 257.362,77.563 257.363,77.997 256.687 C 78.248 256.296,78.373 255.666,78.273 255.287 C 78.111 254.668,78.088 254.666,78.046 255.267 M117.300 257.076 C 117.685 257.176,118.315 257.176,118.700 257.076 C 119.085 256.975,118.770 256.893,118.000 256.893 C 117.230 256.893,116.915 256.975,117.300 257.076 M155.907 257.090 C 156.626 257.179,157.706 257.177,158.307 257.086 C 158.908 256.995,158.320 256.922,157.000 256.924 C 155.680 256.926,155.188 257.001,155.907 257.090 M200.700 257.100 C 221.655 257.157,255.945 257.157,276.900 257.100 C 297.855 257.043,280.710 256.996,238.800 256.996 C 196.890 256.996,179.745 257.043,200.700 257.100 M320.691 257.089 C 321.401 257.177,322.661 257.179,323.491 257.092 C 324.321 257.005,323.740 256.933,322.200 256.931 C 320.660 256.929,319.981 257.000,320.691 257.089 M70.093 265.600 C 70.093 266.370,70.175 266.685,70.276 266.300 C 70.376 265.915,70.376 265.285,70.276 264.900 C 70.175 264.515,70.093 264.830,70.093 265.600 M147.847 268.401 C 147.051 269.282,146.406 270.137,146.414 270.301 C 146.422 270.466,146.865 270.066,147.398 269.414 C 147.931 268.762,148.779 267.911,149.283 267.523 C 149.788 267.135,149.996 266.814,149.747 266.809 C 149.497 266.804,148.642 267.521,147.847 268.401 M70.101 269.800 C 70.105 270.680,70.187 270.993,70.283 270.495 C 70.379 269.998,70.375 269.278,70.275 268.895 C 70.175 268.513,70.096 268.920,70.101 269.800 M70.157 280.000 C 70.157 282.970,70.220 284.185,70.297 282.700 C 70.374 281.215,70.374 278.785,70.297 277.300 C 70.220 275.815,70.157 277.030,70.157 280.000 M70.101 289.800 C 70.105 290.680,70.187 290.993,70.283 290.495 C 70.379 289.998,70.375 289.278,70.275 288.895 C 70.175 288.513,70.096 288.920,70.101 289.800 M70.093 294.000 C 70.093 294.770,70.175 295.085,70.276 294.700 C 70.376 294.315,70.376 293.685,70.276 293.300 C 70.175 292.915,70.093 293.230,70.093 294.000 M80.736 302.932 C 79.939 303.435,81.042 305.542,82.655 306.599 C 84.202 307.613,84.180 307.097,82.588 305.012 C 81.795 303.972,81.203 303.066,81.273 302.997 C 81.343 302.929,81.850 303.483,82.400 304.228 C 82.950 304.972,83.634 305.498,83.921 305.396 C 84.207 305.293,84.339 305.375,84.214 305.577 C 84.089 305.779,84.154 306.048,84.358 306.174 C 84.563 306.301,84.688 306.119,84.637 305.770 C 84.586 305.421,84.286 304.973,83.972 304.774 C 83.657 304.575,83.580 304.407,83.800 304.400 C 84.020 304.393,83.957 304.233,83.659 304.045 C 83.321 303.831,83.809 303.732,84.959 303.782 C 87.117 303.876,87.102 303.890,85.751 303.005 C 85.174 302.626,84.824 302.515,84.973 302.757 C 85.155 303.051,84.716 303.175,83.639 303.133 C 82.756 303.098,82.108 302.949,82.199 302.802 C 82.452 302.393,81.449 302.482,80.736 302.932 M78.400 303.741 C 78.400 304.831,80.276 307.024,81.969 307.913 C 84.244 309.106,84.565 308.770,82.324 307.540 C 81.099 306.868,80.378 306.103,79.832 304.897 C 79.075 303.226,78.400 302.681,78.400 303.741 M84.825 304.200 C 84.825 304.799,85.722 305.783,86.401 305.929 C 86.924 306.041,86.926 305.990,86.418 305.529 C 86.098 305.238,85.609 304.730,85.331 304.400 C 85.053 304.070,84.825 303.980,84.825 304.200 " stroke="none" fill="#78c404" fill-rule="evenodd"></path><path id="path3" d="M93.521 90.299 C 95.788 90.370,99.388 90.370,101.521 90.298 C 103.655 90.226,101.800 90.168,97.400 90.168 C 93.000 90.168,91.255 90.227,93.521 90.299 M199.732 97.100 C 221.474 97.157,256.934 97.157,278.532 97.100 C 300.129 97.043,282.340 96.996,239.000 96.996 C 195.660 96.996,177.989 97.043,199.732 97.100 M116.499 103.058 C 116.535 103.538,116.891 103.821,117.504 103.860 C 118.025 103.892,118.395 103.890,118.326 103.855 C 118.257 103.820,117.805 103.459,117.322 103.053 C 116.468 102.336,116.445 102.336,116.499 103.058 M70.101 106.200 C 70.105 107.080,70.187 107.393,70.283 106.895 C 70.379 106.398,70.375 105.678,70.275 105.295 C 70.175 104.913,70.096 105.320,70.101 106.200 M148.244 108.036 C 147.182 109.121,146.017 110.182,145.656 110.393 C 145.188 110.666,145.157 110.779,145.546 110.788 C 145.846 110.795,146.695 110.142,147.432 109.337 C 148.169 108.533,149.245 107.564,149.824 107.184 C 150.403 106.805,150.719 106.397,150.526 106.278 C 150.334 106.159,149.307 106.950,148.244 108.036 M70.000 110.776 C 70.000 111.669,70.070 112.400,70.156 112.400 C 70.477 112.400,70.632 109.544,70.323 109.352 C 70.145 109.242,70.000 109.883,70.000 110.776 M70.157 120.400 C 70.157 123.370,70.220 124.585,70.297 123.100 C 70.374 121.615,70.374 119.185,70.297 117.700 C 70.220 116.215,70.157 117.430,70.157 120.400 M329.293 120.400 C 329.293 121.170,329.375 121.485,329.476 121.100 C 329.576 120.715,329.576 120.085,329.476 119.700 C 329.375 119.315,329.293 119.630,329.293 120.400 M70.101 135.000 C 70.105 135.880,70.187 136.193,70.283 135.695 C 70.379 135.198,70.375 134.478,70.275 134.095 C 70.175 133.713,70.096 134.120,70.101 135.000 M150.109 138.000 C 150.109 138.990,150.187 139.395,150.282 138.900 C 150.378 138.405,150.378 137.595,150.282 137.100 C 150.187 136.605,150.109 137.010,150.109 138.000 M314.800 142.000 C 315.576 142.501,316.000 142.501,316.000 142.000 C 316.000 141.780,315.595 141.603,315.100 141.606 C 314.372 141.611,314.315 141.686,314.800 142.000 M111.436 144.360 C 110.919 144.932,110.869 145.196,111.236 145.422 C 111.536 145.608,111.621 145.557,111.455 145.289 C 111.307 145.050,111.590 144.572,112.082 144.227 C 112.575 143.882,112.786 143.600,112.551 143.600 C 112.316 143.600,111.814 143.942,111.436 144.360 M88.912 170.295 C 89.964 170.377,91.584 170.376,92.512 170.292 C 93.440 170.208,92.580 170.141,90.600 170.142 C 88.620 170.143,87.860 170.212,88.912 170.295 M102.300 170.293 C 103.235 170.377,104.765 170.377,105.700 170.293 C 106.635 170.209,105.870 170.140,104.000 170.140 C 102.130 170.140,101.365 170.209,102.300 170.293 M165.127 177.100 C 170.258 177.163,178.538 177.163,183.527 177.100 C 188.517 177.036,184.320 176.984,174.200 176.984 C 164.080 176.984,159.997 177.036,165.127 177.100 M281.900 177.095 C 283.055 177.176,284.945 177.176,286.100 177.095 C 287.255 177.014,286.310 176.948,284.000 176.948 C 281.690 176.948,280.745 177.014,281.900 177.095 M317.911 177.093 C 318.851 177.178,320.291 177.177,321.111 177.091 C 321.930 177.005,321.160 176.936,319.400 176.937 C 317.640 176.939,316.970 177.009,317.911 177.093 M164.500 179.889 C 163.727 179.985,163.200 180.278,163.200 180.613 C 163.200 180.947,162.958 181.082,162.602 180.946 C 162.274 180.819,162.104 180.555,162.226 180.358 C 162.348 180.161,162.257 180.000,162.024 180.000 C 161.791 180.000,161.600 180.270,161.600 180.600 C 161.600 180.930,161.870 181.200,162.200 181.200 C 162.539 181.200,162.800 181.558,162.800 182.024 C 162.800 182.485,162.981 182.736,163.211 182.593 C 163.436 182.454,163.571 182.038,163.511 181.670 C 163.428 181.167,163.800 180.939,165.000 180.757 C 165.880 180.623,166.330 180.475,166.000 180.429 C 165.567 180.367,165.622 180.248,166.200 180.000 C 167.039 179.639,166.695 179.617,164.500 179.889 M162.933 183.794 C 162.933 184.271,163.058 184.293,163.567 183.907 C 163.915 183.643,164.275 183.375,164.367 183.313 C 164.458 183.251,164.173 183.200,163.733 183.200 C 163.293 183.200,162.933 183.467,162.933 183.794 M70.093 186.000 C 70.093 186.770,70.175 187.085,70.276 186.700 C 70.376 186.315,70.376 185.685,70.276 185.300 C 70.175 184.915,70.093 185.230,70.093 186.000 M147.885 188.359 C 147.111 189.216,146.145 190.110,145.738 190.346 C 145.332 190.583,145.223 190.781,145.495 190.788 C 145.767 190.795,146.894 189.900,148.000 188.800 C 149.106 187.700,149.849 186.800,149.652 186.800 C 149.455 186.800,148.659 187.501,147.885 188.359 M70.000 190.376 C 70.000 191.269,70.070 192.000,70.156 192.000 C 70.477 192.000,70.632 189.144,70.323 188.952 C 70.145 188.842,70.000 189.483,70.000 190.376 M70.157 200.400 C 70.157 203.370,70.220 204.585,70.297 203.100 C 70.374 201.615,70.374 199.185,70.297 197.700 C 70.220 196.215,70.157 197.430,70.157 200.400 M329.344 200.400 C 329.344 202.490,329.412 203.345,329.494 202.300 C 329.576 201.255,329.576 199.545,329.494 198.500 C 329.412 197.455,329.344 198.310,329.344 200.400 M70.093 210.400 C 70.093 211.170,70.175 211.485,70.276 211.100 C 70.376 210.715,70.376 210.085,70.276 209.700 C 70.175 209.315,70.093 209.630,70.093 210.400 M70.101 214.600 C 70.105 215.480,70.187 215.793,70.283 215.295 C 70.379 214.798,70.375 214.078,70.275 213.695 C 70.175 213.313,70.096 213.720,70.101 214.600 M86.905 250.287 C 87.514 250.379,88.414 250.377,88.905 250.282 C 89.397 250.187,88.900 250.111,87.800 250.114 C 86.700 250.117,86.297 250.195,86.905 250.287 M105.300 250.287 C 105.905 250.378,106.895 250.378,107.500 250.287 C 108.105 250.195,107.610 250.120,106.400 250.120 C 105.190 250.120,104.695 250.195,105.300 250.287 M78.046 255.267 C 78.021 255.634,77.896 256.264,77.770 256.667 C 77.552 257.362,77.563 257.363,77.997 256.687 C 78.248 256.296,78.373 255.666,78.273 255.287 C 78.111 254.668,78.088 254.666,78.046 255.267 M117.300 257.076 C 117.685 257.176,118.315 257.176,118.700 257.076 C 119.085 256.975,118.770 256.893,118.000 256.893 C 117.230 256.893,116.915 256.975,117.300 257.076 M155.907 257.090 C 156.626 257.179,157.706 257.177,158.307 257.086 C 158.908 256.995,158.320 256.922,157.000 256.924 C 155.680 256.926,155.188 257.001,155.907 257.090 M200.700 257.100 C 221.655 257.157,255.945 257.157,276.900 257.100 C 297.855 257.043,280.710 256.996,238.800 256.996 C 196.890 256.996,179.745 257.043,200.700 257.100 M320.691 257.089 C 321.401 257.177,322.661 257.179,323.491 257.092 C 324.321 257.005,323.740 256.933,322.200 256.931 C 320.660 256.929,319.981 257.000,320.691 257.089 M70.093 265.600 C 70.093 266.370,70.175 266.685,70.276 266.300 C 70.376 265.915,70.376 265.285,70.276 264.900 C 70.175 264.515,70.093 264.830,70.093 265.600 M147.847 268.401 C 147.051 269.282,146.406 270.137,146.414 270.301 C 146.422 270.466,146.865 270.066,147.398 269.414 C 147.931 268.762,148.779 267.911,149.283 267.523 C 149.788 267.135,149.996 266.814,149.747 266.809 C 149.497 266.804,148.642 267.521,147.847 268.401 M70.101 269.800 C 70.105 270.680,70.187 270.993,70.283 270.495 C 70.379 269.998,70.375 269.278,70.275 268.895 C 70.175 268.513,70.096 268.920,70.101 269.800 M70.157 280.000 C 70.157 282.970,70.220 284.185,70.297 282.700 C 70.374 281.215,70.374 278.785,70.297 277.300 C 70.220 275.815,70.157 277.030,70.157 280.000 M70.101 289.800 C 70.105 290.680,70.187 290.993,70.283 290.495 C 70.379 289.998,70.375 289.278,70.275 288.895 C 70.175 288.513,70.096 288.920,70.101 289.800 M70.093 294.000 C 70.093 294.770,70.175 295.085,70.276 294.700 C 70.376 294.315,70.376 293.685,70.276 293.300 C 70.175 292.915,70.093 293.230,70.093 294.000 M80.736 302.932 C 79.939 303.435,81.042 305.542,82.655 306.599 C 84.202 307.613,84.180 307.097,82.588 305.012 C 81.795 303.972,81.203 303.066,81.273 302.997 C 81.343 302.929,81.850 303.483,82.400 304.228 C 82.950 304.972,83.634 305.498,83.921 305.396 C 84.207 305.293,84.339 305.375,84.214 305.577 C 84.089 305.779,84.154 306.048,84.358 306.174 C 84.563 306.301,84.688 306.119,84.637 305.770 C 84.586 305.421,84.286 304.973,83.972 304.774 C 83.657 304.575,83.580 304.407,83.800 304.400 C 84.020 304.393,83.957 304.233,83.659 304.045 C 83.321 303.831,83.809 303.732,84.959 303.782 C 87.117 303.876,87.102 303.890,85.751 303.005 C 85.174 302.626,84.824 302.515,84.973 302.757 C 85.155 303.051,84.716 303.175,83.639 303.133 C 82.756 303.098,82.108 302.949,82.199 302.802 C 82.452 302.393,81.449 302.482,80.736 302.932 M78.400 303.741 C 78.400 304.831,80.276 307.024,81.969 307.913 C 84.244 309.106,84.565 308.770,82.324 307.540 C 81.099 306.868,80.378 306.103,79.832 304.897 C 79.075 303.226,78.400 302.681,78.400 303.741 M84.825 304.200 C 84.825 304.799,85.722 305.783,86.401 305.929 C 86.924 306.041,86.926 305.990,86.418 305.529 C 86.098 305.238,85.609 304.730,85.331 304.400 C 85.053 304.070,84.825 303.980,84.825 304.200 " stroke="none" fill="#78c404" fill-rule="evenodd"></path><path id="path4" d="M93.521 90.299 C 95.788 90.370,99.388 90.370,101.521 90.298 C 103.655 90.226,101.800 90.168,97.400 90.168 C 93.000 90.168,91.255 90.227,93.521 90.299 M199.732 97.100 C 221.474 97.157,256.934 97.157,278.532 97.100 C 300.129 97.043,282.340 96.996,239.000 96.996 C 195.660 96.996,177.989 97.043,199.732 97.100 M116.499 103.058 C 116.535 103.538,116.891 103.821,117.504 103.860 C 118.025 103.892,118.395 103.890,118.326 103.855 C 118.257 103.820,117.805 103.459,117.322 103.053 C 116.468 102.336,116.445 102.336,116.499 103.058 M70.101 106.200 C 70.105 107.080,70.187 107.393,70.283 106.895 C 70.379 106.398,70.375 105.678,70.275 105.295 C 70.175 104.913,70.096 105.320,70.101 106.200 M148.244 108.036 C 147.182 109.121,146.017 110.182,145.656 110.393 C 145.188 110.666,145.157 110.779,145.546 110.788 C 145.846 110.795,146.695 110.142,147.432 109.337 C 148.169 108.533,149.245 107.564,149.824 107.184 C 150.403 106.805,150.719 106.397,150.526 106.278 C 150.334 106.159,149.307 106.950,148.244 108.036 M70.000 110.776 C 70.000 111.669,70.070 112.400,70.156 112.400 C 70.477 112.400,70.632 109.544,70.323 109.352 C 70.145 109.242,70.000 109.883,70.000 110.776 M70.157 120.400 C 70.157 123.370,70.220 124.585,70.297 123.100 C 70.374 121.615,70.374 119.185,70.297 117.700 C 70.220 116.215,70.157 117.430,70.157 120.400 M329.293 120.400 C 329.293 121.170,329.375 121.485,329.476 121.100 C 329.576 120.715,329.576 120.085,329.476 119.700 C 329.375 119.315,329.293 119.630,329.293 120.400 M70.101 135.000 C 70.105 135.880,70.187 136.193,70.283 135.695 C 70.379 135.198,70.375 134.478,70.275 134.095 C 70.175 133.713,70.096 134.120,70.101 135.000 M150.109 138.000 C 150.109 138.990,150.187 139.395,150.282 138.900 C 150.378 138.405,150.378 137.595,150.282 137.100 C 150.187 136.605,150.109 137.010,150.109 138.000 M314.800 142.000 C 315.576 142.501,316.000 142.501,316.000 142.000 C 316.000 141.780,315.595 141.603,315.100 141.606 C 314.372 141.611,314.315 141.686,314.800 142.000 M111.436 144.360 C 110.919 144.932,110.869 145.196,111.236 145.422 C 111.536 145.608,111.621 145.557,111.455 145.289 C 111.307 145.050,111.590 144.572,112.082 144.227 C 112.575 143.882,112.786 143.600,112.551 143.600 C 112.316 143.600,111.814 143.942,111.436 144.360 M88.912 170.295 C 89.964 170.377,91.584 170.376,92.512 170.292 C 93.440 170.208,92.580 170.141,90.600 170.142 C 88.620 170.143,87.860 170.212,88.912 170.295 M102.300 170.293 C 103.235 170.377,104.765 170.377,105.700 170.293 C 106.635 170.209,105.870 170.140,104.000 170.140 C 102.130 170.140,101.365 170.209,102.300 170.293 M165.127 177.100 C 170.258 177.163,178.538 177.163,183.527 177.100 C 188.517 177.036,184.320 176.984,174.200 176.984 C 164.080 176.984,159.997 177.036,165.127 177.100 M281.900 177.095 C 283.055 177.176,284.945 177.176,286.100 177.095 C 287.255 177.014,286.310 176.948,284.000 176.948 C 281.690 176.948,280.745 177.014,281.900 177.095 M317.911 177.093 C 318.851 177.178,320.291 177.177,321.111 177.091 C 321.930 177.005,321.160 176.936,319.400 176.937 C 317.640 176.939,316.970 177.009,317.911 177.093 M164.500 179.889 C 163.727 179.985,163.200 180.278,163.200 180.613 C 163.200 180.947,162.958 181.082,162.602 180.946 C 162.274 180.819,162.104 180.555,162.226 180.358 C 162.348 180.161,162.257 180.000,162.024 180.000 C 161.791 180.000,161.600 180.270,161.600 180.600 C 161.600 180.930,161.870 181.200,162.200 181.200 C 162.539 181.200,162.800 181.558,162.800 182.024 C 162.800 182.485,162.981 182.736,163.211 182.593 C 163.436 182.454,163.571 182.038,163.511 181.670 C 163.428 181.167,163.800 180.939,165.000 180.757 C 165.880 180.623,166.330 180.475,166.000 180.429 C 165.567 180.367,165.622 180.248,166.200 180.000 C 167.039 179.639,166.695 179.617,164.500 179.889 M162.933 183.794 C 162.933 184.271,163.058 184.293,163.567 183.907 C 163.915 183.643,164.275 183.375,164.367 183.313 C 164.458 183.251,164.173 183.200,163.733 183.200 C 163.293 183.200,162.933 183.467,162.933 183.794 M70.093 186.000 C 70.093 186.770,70.175 187.085,70.276 186.700 C 70.376 186.315,70.376 185.685,70.276 185.300 C 70.175 184.915,70.093 185.230,70.093 186.000 M147.885 188.359 C 147.111 189.216,146.145 190.110,145.738 190.346 C 145.332 190.583,145.223 190.781,145.495 190.788 C 145.767 190.795,146.894 189.900,148.000 188.800 C 149.106 187.700,149.849 186.800,149.652 186.800 C 149.455 186.800,148.659 187.501,147.885 188.359 M70.000 190.376 C 70.000 191.269,70.070 192.000,70.156 192.000 C 70.477 192.000,70.632 189.144,70.323 188.952 C 70.145 188.842,70.000 189.483,70.000 190.376 M70.157 200.400 C 70.157 203.370,70.220 204.585,70.297 203.100 C 70.374 201.615,70.374 199.185,70.297 197.700 C 70.220 196.215,70.157 197.430,70.157 200.400 M329.344 200.400 C 329.344 202.490,329.412 203.345,329.494 202.300 C 329.576 201.255,329.576 199.545,329.494 198.500 C 329.412 197.455,329.344 198.310,329.344 200.400 M70.093 210.400 C 70.093 211.170,70.175 211.485,70.276 211.100 C 70.376 210.715,70.376 210.085,70.276 209.700 C 70.175 209.315,70.093 209.630,70.093 210.400 M70.101 214.600 C 70.105 215.480,70.187 215.793,70.283 215.295 C 70.379 214.798,70.375 214.078,70.275 213.695 C 70.175 213.313,70.096 213.720,70.101 214.600 M86.905 250.287 C 87.514 250.379,88.414 250.377,88.905 250.282 C 89.397 250.187,88.900 250.111,87.800 250.114 C 86.700 250.117,86.297 250.195,86.905 250.287 M105.300 250.287 C 105.905 250.378,106.895 250.378,107.500 250.287 C 108.105 250.195,107.610 250.120,106.400 250.120 C 105.190 250.120,104.695 250.195,105.300 250.287 M78.046 255.267 C 78.021 255.634,77.896 256.264,77.770 256.667 C 77.552 257.362,77.563 257.363,77.997 256.687 C 78.248 256.296,78.373 255.666,78.273 255.287 C 78.111 254.668,78.088 254.666,78.046 255.267 M117.300 257.076 C 117.685 257.176,118.315 257.176,118.700 257.076 C 119.085 256.975,118.770 256.893,118.000 256.893 C 117.230 256.893,116.915 256.975,117.300 257.076 M155.907 257.090 C 156.626 257.179,157.706 257.177,158.307 257.086 C 158.908 256.995,158.320 256.922,157.000 256.924 C 155.680 256.926,155.188 257.001,155.907 257.090 M200.700 257.100 C 221.655 257.157,255.945 257.157,276.900 257.100 C 297.855 257.043,280.710 256.996,238.800 256.996 C 196.890 256.996,179.745 257.043,200.700 257.100 M320.691 257.089 C 321.401 257.177,322.661 257.179,323.491 257.092 C 324.321 257.005,323.740 256.933,322.200 256.931 C 320.660 256.929,319.981 257.000,320.691 257.089 M70.093 265.600 C 70.093 266.370,70.175 266.685,70.276 266.300 C 70.376 265.915,70.376 265.285,70.276 264.900 C 70.175 264.515,70.093 264.830,70.093 265.600 M147.847 268.401 C 147.051 269.282,146.406 270.137,146.414 270.301 C 146.422 270.466,146.865 270.066,147.398 269.414 C 147.931 268.762,148.779 267.911,149.283 267.523 C 149.788 267.135,149.996 266.814,149.747 266.809 C 149.497 266.804,148.642 267.521,147.847 268.401 M70.101 269.800 C 70.105 270.680,70.187 270.993,70.283 270.495 C 70.379 269.998,70.375 269.278,70.275 268.895 C 70.175 268.513,70.096 268.920,70.101 269.800 M70.157 280.000 C 70.157 282.970,70.220 284.185,70.297 282.700 C 70.374 281.215,70.374 278.785,70.297 277.300 C 70.220 275.815,70.157 277.030,70.157 280.000 M70.101 289.800 C 70.105 290.680,70.187 290.993,70.283 290.495 C 70.379 289.998,70.375 289.278,70.275 288.895 C 70.175 288.513,70.096 288.920,70.101 289.800 M70.093 294.000 C 70.093 294.770,70.175 295.085,70.276 294.700 C 70.376 294.315,70.376 293.685,70.276 293.300 C 70.175 292.915,70.093 293.230,70.093 294.000 M80.736 302.932 C 79.939 303.435,81.042 305.542,82.655 306.599 C 84.202 307.613,84.180 307.097,82.588 305.012 C 81.795 303.972,81.203 303.066,81.273 302.997 C 81.343 302.929,81.850 303.483,82.400 304.228 C 82.950 304.972,83.634 305.498,83.921 305.396 C 84.207 305.293,84.339 305.375,84.214 305.577 C 84.089 305.779,84.154 306.048,84.358 306.174 C 84.563 306.301,84.688 306.119,84.637 305.770 C 84.586 305.421,84.286 304.973,83.972 304.774 C 83.657 304.575,83.580 304.407,83.800 304.400 C 84.020 304.393,83.957 304.233,83.659 304.045 C 83.321 303.831,83.809 303.732,84.959 303.782 C 87.117 303.876,87.102 303.890,85.751 303.005 C 85.174 302.626,84.824 302.515,84.973 302.757 C 85.155 303.051,84.716 303.175,83.639 303.133 C 82.756 303.098,82.108 302.949,82.199 302.802 C 82.452 302.393,81.449 302.482,80.736 302.932 M78.400 303.741 C 78.400 304.831,80.276 307.024,81.969 307.913 C 84.244 309.106,84.565 308.770,82.324 307.540 C 81.099 306.868,80.378 306.103,79.832 304.897 C 79.075 303.226,78.400 302.681,78.400 303.741 M84.825 304.200 C 84.825 304.799,85.722 305.783,86.401 305.929 C 86.924 306.041,86.926 305.990,86.418 305.529 C 86.098 305.238,85.609 304.730,85.331 304.400 C 85.053 304.070,84.825 303.980,84.825 304.200 " stroke="none" fill="#78c404" fill-rule="evenodd"></path></g></svg>