<svg width="246" height="246" viewBox="0 0 246 246" fill="none" xmlns="http://www.w3.org/2000/svg">
<g id="premium 1">
<path id="Vector" d="M246 123C246 114.652 243.067 106.563 237.826 100.159C240.217 92.2387 239.831 83.6429 236.636 75.9291C233.442 68.2172 227.637 61.866 220.346 57.9547C219.524 49.7229 215.877 41.9284 209.974 36.0258C204.07 30.1231 196.277 26.4765 188.045 25.6544C184.134 18.3629 177.783 12.5579 170.071 9.36163C162.357 6.16914 153.761 5.78252 145.841 8.1736C139.437 2.93349 131.348 0 123 0L50.9297 123L123 246C131.348 246 139.437 243.067 145.841 237.826C153.761 240.217 162.357 239.831 170.071 236.636C177.783 233.442 184.134 227.637 188.045 220.346C196.277 219.524 204.072 215.877 209.974 209.974C215.877 204.072 219.524 196.277 220.346 188.043C227.637 184.134 233.442 177.781 236.636 170.069C239.831 162.357 240.217 153.761 237.826 145.839C243.067 139.437 246 131.348 246 123Z" fill="#FF9D3B"/>
<path id="Vector_2" d="M100.159 8.1736C92.2387 5.78252 83.6429 6.16914 75.9291 9.36351C68.2172 12.5579 61.866 18.3629 57.9547 25.6544C49.7229 26.4765 41.9284 30.1231 36.0258 36.0258C30.1231 41.9284 26.4765 49.7229 25.6544 57.9565C18.3629 61.866 12.5579 68.2191 9.36351 75.931C6.16914 83.6429 5.78252 92.2387 8.1736 100.161C2.93349 106.563 0 114.652 0 123C0 131.348 2.93349 139.437 8.1736 145.841C5.78252 153.761 6.16914 162.357 9.36351 170.071C12.5579 177.783 18.3629 184.134 25.6544 188.045C26.4765 196.277 30.1231 204.072 36.0258 209.974C41.9284 215.877 49.7229 219.524 57.9547 220.346C61.866 227.637 68.2172 233.442 75.9291 236.638C83.6429 239.831 92.2387 240.217 100.159 237.828C106.563 243.067 114.652 246 123 246V0C114.652 0 106.563 2.93349 100.159 8.1736Z" fill="#FFC40F"/>
<path id="Vector_3" d="M123 36.5156L79.7578 123L123 209.484C170.763 209.484 209.484 170.763 209.484 123C209.484 75.2365 170.763 36.5156 123 36.5156Z" fill="#FF7666"/>
<path id="Vector_4" d="M36.5156 123C36.5156 170.763 75.2365 209.484 123 209.484V36.5156C75.2365 36.5156 36.5156 75.2365 36.5156 123Z" fill="#FF9D3B"/>
<path id="Vector_5" d="M167.158 131.648L94.1719 102.82L123 167.684H161.614L167.158 131.648Z" fill="#FF9D3B"/>
<path id="Vector_6" d="M78.8418 131.648L84.386 167.684H123V102.82L78.8418 131.648Z" fill="#FFC40F"/>
<path id="Vector_7" d="M167.158 131.649L173.778 88.6263L146.611 94.8367L123 67.8535L94.1719 114.164L123 131.649H167.158Z" fill="#FFC40F"/>
<path id="Vector_8" d="M123 67.8535L99.3893 94.8367L72.2222 88.6263L78.8418 131.649H123V67.8535Z" fill="#FFD959"/>
</g>
</svg>
