<svg width="33" height="33" viewBox="0 0 33 33" fill="none" xmlns="http://www.w3.org/2000/svg">
    <g id="thunder 1">
        <g clip-path="url(#clip0)">
            <path id="Vector"
                  d="M13.9255 32.827L26.6542 10.9101C26.9424 10.4139 26.5337 9.80324 25.9651 9.88058L17.4983 11.0314L19.5213 0.410678C19.5894 0.0526411 19.1278 -0.152513 18.9078 0.137977L6.39267 16.658C6.02812 17.1391 6.41413 17.8233 7.01445 17.7601L16.3491 16.7775L13.2889 32.5884C13.2151 32.9698 13.7304 33.1629 13.9255 32.827Z"
                  fill="#FFDC64"/>
            <path id="Vector_2"
                  d="M10.3064 15.4871C10.0726 15.5058 9.91735 15.2503 10.0416 15.0514L19.3989 0.079862C19.2596 -0.0302884 19.0405 -0.0373783 18.9078 0.137805L6.39267 16.6578C6.02812 17.139 6.41413 17.8231 7.01445 17.7599L16.3491 16.7773L13.2889 32.5882C13.2476 32.8015 13.3915 32.9515 13.5597 32.9874L18.8035 16.3942C19.0493 15.6164 18.4292 14.8372 17.6161 14.9023L10.3064 15.4871Z"
                  fill="#FFC850"/>
        </g>
    </g>
    <defs>
        <clipPath id="clip0">
            <rect width="33" height="33" fill="white"/>
        </clipPath>
    </defs>
</svg>
