<svg width="25" height="25" viewBox="0 0 25 25" fill="none" xmlns="http://www.w3.org/2000/svg">
<g id="user 1">
<g clip-path="url(#clip0)">
<path id="Vector" d="M16.0715 18.0805V16.7412H8.92871V18.0805L12.5001 21.6519L16.0715 18.0805Z" fill="#F9F5F2"/>
<path id="Vector_2" d="M23.8212 20.9015C23.4637 19.2564 22.0092 18.0823 20.3257 18.0801H16.0713L12.4998 21.6515L8.9284 18.0801H4.67397C2.99047 18.0823 1.53603 19.2564 1.17842 20.9015L0.446289 24.3301H24.5534L23.8212 20.9015Z" fill="#24537E"/>
<g id="Group">
<path id="Vector_3" d="M5.35693 10.9381C5.35693 11.9243 6.15649 12.7238 7.14262 12.7238V9.15234C6.15649 9.15234 5.35693 9.95191 5.35693 10.9381Z" fill="#F9F5F2"/>
<path id="Vector_4" d="M19.6426 10.938C19.6426 9.95185 18.8431 9.15234 17.8569 9.15234V12.7238C18.8431 12.7237 19.6426 11.9242 19.6426 10.938Z" fill="#F9F5F2"/>
</g>
<g id="Group_2">
<path id="Vector_5" d="M17.8572 4.24135V3.34848C17.8572 1.86904 16.6581 0.669922 15.1786 0.669922H4.46436V3.34848C4.46436 4.82792 5.66347 6.02704 7.14291 6.02704H17.8572V4.24135Z" fill="#FDCA6E"/>
<path id="Vector_6" d="M17.8575 8.70546C18.8437 8.70546 19.6432 7.9059 19.6432 6.91977V5.13408C19.6432 4.64077 19.2436 4.24121 18.7503 4.24121H17.8574V8.70546H17.8575Z" fill="#FDCA6E"/>
<path id="Vector_7" d="M5.80371 6.02734V7.81303C5.80371 8.30634 6.20327 8.7059 6.69658 8.7059H7.14302V6.02734H5.80371Z" fill="#FDCA6E"/>
</g>
<path id="Vector_8" d="M7.14307 6.02734V14.9559C7.14307 15.9421 7.94262 16.7416 8.92875 16.7416H16.0716C17.0578 16.7416 17.8573 15.942 17.8573 14.9559V6.02734H7.14307Z" fill="#F9F5F2"/>
<g id="Group_3">
<path id="Vector_9" d="M24.258 20.8071C23.8487 18.9615 22.2165 17.6446 20.3259 17.6343H16.5179V17.1433C17.5562 16.9299 18.3022 16.016 18.3035 14.9558V13.1254C19.5089 12.8825 20.2888 11.7085 20.046 10.5031C19.9072 9.81292 19.4495 9.22899 18.8125 8.92899C19.5897 8.56156 20.0866 7.77987 20.0893 6.92005V5.13437C20.0893 4.39462 19.4897 3.79506 18.75 3.79506H18.3035V3.34863C18.3017 1.62363 16.9036 0.225439 15.1786 0.223633H4.46432C4.21788 0.223633 4.01788 0.423632 4.01788 0.670067V3.34863C4.01876 4.379 4.52726 5.34281 5.3777 5.92494C5.36651 5.958 5.35983 5.99237 5.35714 6.02719V7.81288C5.35846 8.3075 5.63346 8.76107 6.07144 8.991C4.99244 9.57718 4.59288 10.9272 5.17902 12.0066C5.49376 12.5861 6.04957 12.9959 6.69644 13.1254V14.9557C6.69776 16.016 7.44376 16.9298 8.48213 17.1432V17.6343H4.67413C2.78307 17.6445 1.15046 18.9624 0.742012 20.8088L0.00988447 24.2375C-0.0414338 24.4785 0.11213 24.7156 0.353194 24.7674C0.384005 24.7741 0.415255 24.7772 0.446505 24.7772H24.5536C24.8 24.7772 25 24.5772 25 24.3308C25 24.2995 24.9969 24.2683 24.9902 24.2375L24.258 20.8071ZM9.375 17.1879H15.625V17.896L12.5 21.021L9.375 17.896V17.1879ZM19.1964 10.9379C19.1955 11.5053 18.8384 12.0111 18.3035 12.2009V9.67498C18.8384 9.86512 19.196 10.3705 19.1964 10.9379ZM18.75 4.68793C18.9964 4.68793 19.1964 4.88793 19.1964 5.13437V6.92005C19.1955 7.48748 18.8384 7.99325 18.3035 8.18299V4.68793H18.75ZM4.91075 3.34863V1.1165H15.1786C16.4107 1.11782 17.4094 2.1165 17.4107 3.34863V5.58075H7.14288C5.91075 5.57943 4.91251 4.58075 4.91075 3.34863ZM6.69644 8.25936C6.45001 8.25936 6.25001 8.05936 6.25001 7.81292V6.47362H6.69644V8.25936ZM5.80362 10.9379C5.8045 10.3705 6.16168 9.86473 6.69649 9.67498V12.2009C6.16207 12.0111 5.8045 11.5053 5.80362 10.9379ZM7.58931 14.9557V6.47362H17.4107V14.9557C17.4107 15.6955 16.8112 16.295 16.0714 16.295H8.92862C8.18887 16.295 7.58931 15.6955 7.58931 14.9557ZM20.4674 23.8843L20.083 21.5785L19.2027 21.7258L19.5625 23.8843H5.43751L5.79732 21.7258L4.91695 21.5785L4.53258 23.8843H0.998261L1.61476 20.9968C1.93307 19.5602 3.2027 18.5352 4.67413 18.5272H8.74375L12.1844 21.9678C12.3585 22.142 12.6415 22.142 12.8156 21.9678L16.2562 18.5272H20.3259C21.7969 18.5353 23.0665 19.5598 23.3852 20.9955L24.0017 23.8843H20.4674Z" fill="#231F20"/>
<path id="Vector_10" d="M15.1785 10.4918C15.6716 10.4918 16.0714 10.092 16.0714 9.59892C16.0714 9.10581 15.6716 8.70605 15.1785 8.70605C14.6854 8.70605 14.2856 9.10581 14.2856 9.59892C14.2856 10.092 14.6854 10.4918 15.1785 10.4918Z" fill="#231F20"/>
<path id="Vector_11" d="M9.82158 10.4918C10.3147 10.4918 10.7144 10.092 10.7144 9.59892C10.7144 9.10581 10.3147 8.70605 9.82158 8.70605C9.32846 8.70605 8.92871 9.10581 8.92871 9.59892C8.92871 10.092 9.32846 10.4918 9.82158 10.4918Z" fill="#231F20"/>
<path id="Vector_12" d="M17.411 22.0986H14.7324V22.9915H17.411V22.0986Z" fill="#231F20"/>
<path id="Vector_13" d="M18.7503 22.0986H17.8574V22.9915H18.7503V22.0986Z" fill="#231F20"/>
</g>
</g>
</g>
<defs>
<clipPath id="clip0">
<rect width="25" height="25" fill="white"/>
</clipPath>
</defs>
</svg>
