<svg width="25" height="25" viewBox="0 0 25 25" fill="none" xmlns="http://www.w3.org/2000/svg">
<path d="M21.7224 5.36094L16.5141 0.152588C16.4164 0.0549316 16.2842 0 16.1458 0H5.2083C4.05986 0 3.125 0.934326 3.125 2.08335V22.9167C3.125 24.0657 4.05986 25 5.20835 25H19.7917C20.9401 25 21.875 24.0657 21.875 22.9167V5.72915C21.875 5.59082 21.8201 5.45859 21.7224 5.36094ZM16.6667 1.77817L20.0968 5.20835H17.7083C17.1335 5.20835 16.6667 4.74092 16.6667 4.1667V1.77817ZM20.8333 22.9167C20.8333 23.4909 20.3664 23.9583 19.7917 23.9583H5.20835C4.63359 23.9583 4.1667 23.4909 4.1667 22.9167V2.08335C4.1667 1.50913 4.63364 1.0417 5.20835 1.0417H15.625V4.1667C15.625 5.31567 16.5599 6.25 17.7083 6.25H20.8333V22.9167Z" fill="#BBBBBB"/>
<path d="M18.2292 14.583H6.77085C6.48296 14.583 6.25 14.816 6.25 15.1039C6.25 15.3918 6.48296 15.6247 6.77085 15.6247H18.2292C18.5171 15.6247 18.75 15.3918 18.75 15.1039C18.75 14.816 18.517 14.583 18.2292 14.583Z" fill="#BBBBBB"/>
<path d="M18.2292 11.458H6.77085C6.48296 11.458 6.25 11.691 6.25 11.9789C6.25 12.2668 6.48296 12.4997 6.77085 12.4997H18.2292C18.5171 12.4997 18.75 12.2668 18.75 11.9789C18.75 11.691 18.517 11.458 18.2292 11.458Z" fill="#BBBBBB"/>
<path d="M18.2292 17.708H6.77085C6.48296 17.708 6.25 17.941 6.25 18.2289C6.25 18.5168 6.48296 18.7497 6.77085 18.7497H18.2292C18.5171 18.7497 18.75 18.5168 18.75 18.2289C18.75 17.941 18.517 17.708 18.2292 17.708Z" fill="#BBBBBB"/>
<path d="M13.0208 20.833H6.77085C6.48296 20.833 6.25 21.066 6.25 21.3539C6.25 21.6418 6.48296 21.8747 6.77085 21.8747H13.0208C13.3087 21.8747 13.5417 21.6418 13.5417 21.3539C13.5417 21.066 13.3087 20.833 13.0208 20.833Z" fill="#BBBBBB"/>
<path d="M11.4584 8.85386C11.4584 9.14175 11.6913 9.37471 11.9792 9.37471H18.2292C18.5171 9.37471 18.7501 9.14175 18.7501 8.85386C18.7501 8.56597 18.5171 8.33301 18.2292 8.33301H11.9792C11.6913 8.33306 11.4584 8.56602 11.4584 8.85386Z" fill="#BBBBBB"/>
<path d="M7.8125 8.33311H6.77085C6.48296 8.33311 6.25 8.56607 6.25 8.85396C6.25 9.14185 6.48296 9.37481 6.77085 9.37481H7.2917C7.2917 9.6627 7.52466 9.89565 7.81255 9.89565C8.10044 9.89565 8.3334 9.6627 8.3334 9.37481V9.27886C8.93828 9.06309 9.375 8.49038 9.375 7.81226C9.375 6.95064 8.67412 6.24976 7.8125 6.24976C7.52563 6.24976 7.29165 6.01631 7.29165 5.72891C7.29165 5.44155 7.52563 5.20806 7.8125 5.20806H8.85415C9.14204 5.20806 9.375 4.9751 9.375 4.68721C9.375 4.39932 9.14204 4.16636 8.85415 4.16636H8.3333C8.3333 3.87847 8.10034 3.64551 7.81245 3.64551C7.52456 3.64551 7.2916 3.87847 7.2916 4.16636V4.2623C6.68672 4.47808 6.25 5.05078 6.25 5.72891C6.25 6.59053 6.95088 7.29141 7.8125 7.29141C8.09937 7.29141 8.33335 7.52485 8.33335 7.81226C8.33335 8.09966 8.09937 8.33311 7.8125 8.33311Z" fill="#BBBBBB"/>
</svg>
