<svg width="25" height="25" viewBox="0 0 25 25" fill="none" xmlns="http://www.w3.org/2000/svg">
<g clip-path="url(#clip0)">
<path d="M24.5802 11.1762L22.4683 9.25183V2.87083C22.4683 2.46482 22.1391 2.13562 21.7331 2.13562H16.6493C16.2433 2.13562 15.9141 2.46477 15.9141 2.87083V3.27971L13.3635 0.95564C12.8712 0.506958 12.1288 0.507007 11.6366 0.955591L0.419939 11.1762C0.0256029 11.5356 -0.104719 12.0893 0.0879564 12.5868C0.280681 13.0844 0.749919 13.4058 1.28346 13.4058H3.07492V23.6461C3.07492 24.0521 3.40407 24.3813 3.81012 24.3813H9.95822C10.3642 24.3813 10.6934 24.0521 10.6934 23.6461V17.4285H14.3068V23.6461C14.3068 24.0521 14.6359 24.3813 15.042 24.3813H21.1898C21.5958 24.3813 21.925 24.0522 21.925 23.6461V13.4058H23.7168C24.2503 13.4058 24.7196 13.0844 24.9123 12.5869C25.1049 12.0893 24.9747 11.5356 24.5802 11.1762ZM21.1898 11.9354C20.7838 11.9354 20.4546 12.2646 20.4546 12.6706V22.9109H15.7772V16.6933C15.7772 16.2873 15.448 15.9581 15.042 15.9581H9.95822C9.55221 15.9581 9.22301 16.2872 9.22301 16.6933V22.9109H4.54528V12.6706C4.54528 12.2646 4.21613 11.9354 3.81008 11.9354H1.76989L12.5002 2.15808L16.1543 5.48772C16.3695 5.68381 16.6802 5.73435 16.9465 5.61682C17.2128 5.49915 17.3846 5.23538 17.3846 4.94426V3.60603H20.998V9.57654C20.998 9.78342 21.0851 9.98064 21.238 10.12L23.2303 11.9354H21.1898Z" fill="#BBBBBB"/>
</g>
<defs>
<clipPath id="clip0">
<rect width="25" height="25" fill="white"/>
</clipPath>
</defs>
</svg>
