<svg width="25" height="25" viewBox="0 0 25 25" fill="none" xmlns="http://www.w3.org/2000/svg">
<path d="M11.5367 11.5176C12.9893 11.5176 14.167 10.2884 14.167 8.77205C14.167 7.2557 12.9893 6.02637 11.5367 6.02637C10.0841 6.02637 8.90662 7.2557 8.90662 8.77205C8.9082 10.2876 10.0847 11.5159 11.5367 11.5176ZM11.5367 6.89191C12.5314 6.89191 13.3378 7.7337 13.3378 8.77205C13.3378 9.8104 12.5314 10.652 11.5367 10.652C10.542 10.652 9.73576 9.8104 9.73576 8.77205C9.73677 7.73415 10.5423 6.89296 11.5367 6.89191Z" fill="#BBBBBB"/>
<path d="M18.4173 10.2617H17.2979C15.8312 10.2617 14.505 11.1857 13.9105 12.5644C13.3579 12.2356 12.7327 12.0628 12.0967 12.0634H10.9774C10.3445 12.0628 9.72217 12.234 9.1717 12.5596C8.57777 11.1686 7.25833 10.2695 5.79941 10.2619H4.6802C2.64851 10.2641 1.0023 11.9826 1 14.1033V17.7889C1 18.0281 1.18569 18.2217 1.41457 18.2217H7.29749V19.5906C7.29749 19.8298 7.48289 20.0234 7.71206 20.0234H15.3619C15.5908 20.0234 15.7765 19.8298 15.7765 19.5906V18.2217H21.6826C21.9115 18.2217 22.0972 18.0278 22.0972 17.7889V14.1033C22.0949 11.9826 20.4488 10.2641 18.4173 10.2617ZM18.4173 11.1273C18.438 11.1273 18.4583 11.1286 18.4789 11.1289L17.9787 13.3691C17.9592 13.4693 17.8809 13.5458 17.7836 13.5592C17.778 13.5595 17.7708 13.5595 17.7669 13.5596C17.6624 13.5536 17.5755 13.4746 17.5553 13.3676L17.0578 11.1381C17.1373 11.131 17.2173 11.1274 17.2981 11.1273H18.4173ZM12.0967 12.929C12.1726 12.929 12.2476 12.933 12.3219 12.939L11.6407 15.2561L10.9567 12.9296C10.9636 12.9296 10.9702 12.929 10.9771 12.929H12.0967ZM5.79926 11.1273C5.82748 11.1273 5.8554 11.1283 5.88347 11.1291L5.1918 13.7533L4.50142 11.1336C4.56044 11.1298 4.62003 11.1273 4.67992 11.1273H5.79926ZM1.82915 14.1033C1.83059 12.8592 2.57192 11.7471 3.68868 11.3131L4.77722 15.4432V17.3561H1.82915V14.1033ZM5.60637 17.3561V15.4432L6.70269 11.2831C7.52464 11.5743 8.17802 12.2358 8.4819 13.0846C7.7266 13.8104 7.29691 14.8331 7.2972 15.9049V17.3561H5.60637ZM8.12663 15.905C8.12807 14.6031 8.93865 13.4528 10.129 13.0636L11.2261 16.7961V19.1578H8.12663V15.905ZM14.9474 19.1578H12.0553V16.7961L13.1322 13.1332C14.2258 13.5795 14.9459 14.6791 14.9474 15.9049V19.1578ZM14.598 13.0906C14.8889 12.2902 15.4886 11.6539 16.2508 11.3372L16.748 13.564C16.822 13.9058 17.046 14.1912 17.3526 14.3341V17.3564H15.7765V15.9049C15.777 14.8362 15.3496 13.8161 14.598 13.0906ZM21.268 17.356H18.1818V14.3328C18.4867 14.1891 18.7101 13.9055 18.7861 13.5655L19.2979 11.2732C20.4717 11.6727 21.2665 12.8146 21.268 14.1033V17.356Z" fill="#BBBBBB"/>
<path d="M17.8343 9.74008C19.0246 9.74038 20.0668 8.9061 20.375 7.70562C20.683 6.50543 20.1801 5.23883 19.1491 4.61778V4.20214C19.1491 3.53811 18.6336 3 17.9975 3C17.3614 3 16.8459 3.53811 16.8459 4.20214V4.45053C15.68 4.94416 15.0122 6.23089 15.2531 7.52004C15.4941 8.80933 16.576 9.73993 17.8343 9.73993V9.74008ZM17.8343 8.87454C17.0829 8.87364 16.4109 8.38648 16.1471 7.65212C16.4796 7.59337 16.8043 7.49374 17.1148 7.35564C17.4998 7.18419 17.8549 6.94677 18.1651 6.65299C18.4587 6.99651 18.9174 7.40598 19.5415 7.60343C19.2977 8.36965 18.6076 8.88341 17.8343 8.87454ZM19.6149 6.71175C19.2035 6.53353 18.8998 6.22458 18.7137 5.99002C18.8081 5.84426 18.8929 5.69204 18.9676 5.53441C19.3164 5.82893 19.5473 6.24893 19.6149 6.71175ZM17.6751 4.20214C17.6751 4.01626 17.8193 3.86554 17.9975 3.86554C18.1757 3.86554 18.32 4.01626 18.32 4.20214V4.2962C18.1599 4.26465 17.9972 4.24872 17.8343 4.24857C17.7809 4.24857 17.7278 4.25082 17.6751 4.25398V4.20214ZM17.8343 5.11411C17.9643 5.11426 18.094 5.12899 18.2208 5.15829C17.6569 6.33533 16.6214 6.68906 16.0433 6.79515C16.1419 5.8399 16.9137 5.11546 17.8343 5.11411Z" fill="#BBBBBB"/>
<path d="M5.23961 9.74039C6.68673 9.74039 7.84221 8.5378 7.86985 7.00282C7.86985 7.00011 7.86985 6.99726 7.86985 6.99455C7.86985 5.47821 6.69235 4.24902 5.23961 4.24902C3.78702 4.24902 2.60938 5.47821 2.60938 6.99455C2.60938 8.51105 3.78702 9.74039 5.23961 9.74039ZM5.23961 5.11456C6.23243 5.11591 7.03739 5.95441 7.04071 6.99065C7.01969 8.04763 6.22912 8.875 5.23961 8.875C4.24493 8.875 3.43852 8.0332 3.43852 6.99486C3.43852 5.95651 4.24493 5.11456 5.23961 5.11456Z" fill="#BBBBBB"/>
<path d="M20.0706 13.4824H19.2875C19.0586 13.4824 18.8729 13.6763 18.8729 13.9152C18.8729 14.1541 19.0586 14.348 19.2875 14.348H20.0706C20.2995 14.348 20.4852 14.1541 20.4852 13.9152C20.4852 13.6763 20.2995 13.4824 20.0706 13.4824Z" fill="#BBBBBB"/>
<path d="M13.1609 15.4062C12.932 15.4062 12.7463 15.6001 12.7463 15.839C12.7463 16.078 12.932 16.2718 13.1609 16.2718H13.944C14.1729 16.2718 14.3586 16.078 14.3586 15.839C14.3586 15.6001 14.1729 15.4062 13.944 15.4062H13.1609Z" fill="#BBBBBB"/>
<path d="M7.63318 14.505C7.63318 14.2661 7.44749 14.0723 7.21861 14.0723H6.61978C6.3909 14.0723 6.2052 14.2661 6.2052 14.505C6.2052 14.744 6.3909 14.9378 6.61978 14.9378H7.21861C7.44749 14.9378 7.63318 14.744 7.63318 14.505Z" fill="#BBBBBB"/>
</svg>
