<svg width="32" height="32" viewBox="0 0 32 32" fill="none" xmlns="http://www.w3.org/2000/svg">
    <g clip-path="url(#clip0)">
        <path d="M4.27301 11.7625C1.5677 16.4571 3.28752 23.5814 6.27915 27.901C7.77245 30.0607 9.28432 31.9992 11.3551 31.9992C11.3941 31.9992 11.4332 31.9985 11.4733 31.9969C12.4462 31.9581 13.1493 31.6586 13.8291 31.3691C14.5922 31.0439 15.3815 30.7076 16.6196 30.7076C17.7974 30.7076 18.549 31.0329 19.2759 31.3475C19.9923 31.6574 20.7301 31.9781 21.8204 31.9576C24.153 31.9142 25.5851 29.8223 26.8486 27.9769C28.1672 26.0501 28.8286 24.1793 29.0517 23.4644L29.0607 23.4359C29.1032 23.3089 29.0432 23.1702 28.9214 23.1143C28.918 23.1127 28.9057 23.1075 28.9022 23.1061C28.4915 22.9381 24.8884 21.3397 24.8505 16.9831C24.8153 13.4435 27.5535 11.5692 28.1026 11.2295L28.1282 11.2135C28.1877 11.1752 28.2292 11.1145 28.2432 11.045C28.2573 10.9757 28.2426 10.9035 28.2027 10.8451C26.3127 8.07929 23.4159 7.66245 22.2497 7.6123C22.0804 7.59541 21.9057 7.58691 21.7303 7.58691C20.3605 7.58691 19.0483 8.10426 17.9941 8.51995C17.2664 8.8069 16.6378 9.05472 16.2043 9.05472C15.7172 9.05472 15.085 8.80386 14.353 8.51345C13.3741 8.12493 12.2646 7.6847 11.0901 7.6847C11.062 7.6847 11.0345 7.68501 11.0073 7.68554C8.27626 7.72572 5.6957 9.28816 4.27301 11.7625Z" fill="#202020"/>
        <path d="M22.2525 0.000201593C20.5987 0.067559 18.6148 1.08558 17.4291 2.47448C16.4213 3.64191 15.4369 5.58835 15.6962 7.55031C15.7125 7.67307 15.8124 7.76781 15.9359 7.77736C16.0475 7.78607 16.1614 7.79047 16.275 7.79058C17.8921 7.79058 19.6365 6.89594 20.8279 5.45542C22.0817 3.93431 22.7158 1.98221 22.524 0.233644C22.5089 0.0966213 22.3883 -0.00514923 22.2525 0.000201593Z" fill="#202020"/>
    </g>
    <defs>
        <clipPath id="clip0">
            <rect width="32" height="32" fill="white"/>
        </clipPath>
    </defs>
</svg>
