<svg width="32" height="32" viewBox="0 0 32 32" fill="none" xmlns="http://www.w3.org/2000/svg">
    <g clip-path="url(#clip0)">
        <path d="M23.9988 0.00665807L19.8491 0C15.1872 0 12.1744 3.09101 12.1744 7.87516V11.5061H8.0021C7.64157 11.5061 7.34961 11.7984 7.34961 12.159V17.4198C7.34961 17.7804 7.6419 18.0723 8.0021 18.0723H12.1744V31.3472C12.1744 31.7077 12.4663 31.9997 12.8269 31.9997H18.2705C18.631 31.9997 18.923 31.7074 18.923 31.3472V18.0723H23.8014C24.1619 18.0723 24.4539 17.7804 24.4539 17.4198L24.4559 12.159C24.4559 11.9859 24.3869 11.8201 24.2648 11.6976C24.1426 11.575 23.9761 11.5061 23.803 11.5061H18.923V8.42811C18.923 6.94869 19.2755 6.19766 21.2027 6.19766L23.9981 6.19666C24.3583 6.19666 24.6503 5.90437 24.6503 5.54417V0.659149C24.6503 0.29928 24.3586 0.00732387 23.9988 0.00665807Z" fill="#2174EE"/>
    </g>
    <defs>
        <clipPath id="clip0">
            <rect width="32" height="31.9997" fill="white"/>
        </clipPath>
    </defs>
</svg>
