<svg width="250" height="50" viewBox="0 0 250 50" fill="none" xmlns="http://www.w3.org/2000/svg">
<path d="M13.551 6.05794H2.76551C1.24448 6.05794 0 4.80448 0 3.27247C0 1.74046 1.24448 0.556641 2.76551 0.556641H30.2132C31.7342 0.556641 32.9096 1.74046 32.9096 3.27247C32.9096 4.80448 31.7342 6.05794 30.2132 6.05794H19.4277V46.865C19.4277 48.4667 18.1141 49.8594 16.4548 49.8594C14.8646 49.8594 13.551 48.4667 13.551 46.865V6.05794V6.05794Z" fill="#5CC04A"/>
<path d="M28.8994 31.5465C28.8994 21.2403 36.7811 13.0928 47.1518 13.0928C52.1989 13.0928 56.4163 15.0426 59.1126 17.5495C59.7349 18.1066 60.1497 18.8726 60.1497 19.7083C60.1497 20.4046 59.9423 21.0314 59.2509 21.7974L46.9444 36.63C46.3913 37.2567 45.769 37.5352 45.0085 37.5352C43.4875 37.5352 42.3813 36.4907 42.3813 35.0283C42.3813 34.4016 42.5196 33.7749 43.0035 33.2874L53.789 20.4743C51.9914 18.9423 49.4333 18.2459 47.1518 18.2459C40.0997 18.2459 34.4996 24.0954 34.4996 31.5465C34.4996 38.928 40.0306 44.8471 47.1518 44.8471C51.0927 44.8471 54.2039 43.1062 56.3471 40.6689C57.1076 39.9725 57.7299 39.4154 58.6978 39.4154C60.288 39.4154 61.4633 40.5296 61.4633 42.0616C61.4633 42.6187 61.1176 43.3847 60.6337 43.9418C57.7299 47.4236 52.9594 50.0002 47.1518 50.0002C36.8503 50.0002 28.8994 41.8527 28.8994 31.5465Z" fill="#5CC04A"/>
<path d="M69.0685 28.1343C69.0685 19.1512 74.7378 13.0928 83.3108 13.0928C84.6936 13.0928 85.8689 14.207 85.8689 15.6693C85.8689 17.0621 84.6936 18.2459 83.3108 18.2459C78.1946 18.2459 74.5995 21.6581 74.5995 28.1343V47.0058C74.5995 48.6075 73.355 49.8609 71.834 49.8609C70.2438 49.8609 69.0685 48.6075 69.0685 47.0058V28.1343V28.1343Z" fill="#5CC04A"/>
<path d="M90.6398 28.1343C90.6398 19.1512 96.3091 13.0928 104.882 13.0928C106.265 13.0928 107.44 14.207 107.44 15.6693C107.44 17.0621 106.265 18.2459 104.882 18.2459C99.766 18.2459 96.1708 21.6581 96.1708 28.1343V47.0058C96.1708 48.6075 94.9263 49.8609 93.4053 49.8609C91.8151 49.8609 90.6398 48.6075 90.6398 47.0058V28.1343Z" fill="#5CC04A"/>
<path d="M141.246 44.4293C137.997 47.9111 133.503 50.0002 128.318 50.0002C118.154 50.0002 110.411 41.8527 110.411 31.5465C110.411 21.2403 118.154 13.0928 128.318 13.0928C133.503 13.0928 137.997 15.2515 141.246 18.6637V16.0175C141.246 14.4855 142.491 13.232 144.012 13.232C145.602 13.232 146.777 14.4855 146.777 16.0175V47.0058C146.777 48.6075 145.602 49.8609 144.012 49.8609C142.491 49.8609 141.246 48.6075 141.246 47.0058V44.4293ZM141.246 32.1036V30.9894C140.97 23.7472 135.508 18.2459 128.663 18.2459C121.611 18.2459 116.011 24.0257 116.011 31.5465C116.011 39.0672 121.611 44.8471 128.663 44.8471C135.508 44.8471 140.97 39.3458 141.246 32.1036Z" fill="#5CC04A"/>
<path d="M185.425 44.4282C182.176 47.91 177.682 49.9991 172.497 49.9991C162.333 49.9991 154.59 41.8516 154.59 31.5454C154.59 21.2392 162.333 13.0917 172.497 13.0917C177.682 13.0917 182.176 15.2504 185.425 18.6626V2.78546C185.425 1.25346 186.67 0 188.191 0C189.781 0 190.956 1.25346 190.956 2.78546V47.0047C190.956 48.6064 189.781 49.8598 188.191 49.8598C186.67 49.8598 185.425 48.6064 185.425 47.0047V44.4282ZM185.425 32.1025V30.9883C185.149 23.7461 179.687 18.2448 172.842 18.2448C165.79 18.2448 160.19 24.0246 160.19 31.5454C160.19 39.0662 165.79 44.846 172.842 44.846C179.687 44.846 185.149 39.3447 185.425 32.1025Z" fill="#5CC04A"/>
<path d="M199.668 5.15273C199.668 3.2029 201.189 1.6709 203.125 1.6709C204.991 1.6709 206.582 3.2029 206.582 5.15273C206.582 7.03292 204.991 8.63456 203.125 8.63456C201.189 8.63456 199.668 7.03292 199.668 5.15273ZM200.359 16.016C200.359 14.484 201.535 13.2306 203.125 13.2306C204.646 13.2306 205.89 14.484 205.89 16.016V47.0044C205.89 48.606 204.646 49.8595 203.125 49.8595C201.535 49.8595 200.359 48.606 200.359 47.0044V16.016Z" fill="#5CC04A"/>
<path d="M244.469 44.4293C241.22 47.9111 236.726 50.0002 231.54 50.0002C221.377 50.0002 213.634 41.8527 213.634 31.5465C213.634 21.2403 221.377 13.0928 231.54 13.0928C236.726 13.0928 241.22 15.2515 244.469 18.6637V16.0175C244.469 14.4855 245.713 13.232 247.234 13.232C248.825 13.232 250 14.4855 250 16.0175V47.0058C250 48.6075 248.825 49.8609 247.234 49.8609C245.713 49.8609 244.469 48.6075 244.469 47.0058V44.4293ZM244.469 32.1036V30.9894C244.192 23.7472 238.731 18.2459 231.886 18.2459C224.834 18.2459 219.234 24.0257 219.234 31.5465C219.234 39.0672 224.834 44.8471 231.886 44.8471C238.731 44.8471 244.192 39.3458 244.469 32.1036Z" fill="#5CC04A"/>
</svg>
