<svg width="43" height="43" viewBox="0 0 43 43" fill="none" xmlns="http://www.w3.org/2000/svg">
    <g id="work 1">
        <g id="Group">
            <g id="Group_2">
                <path id="Vector" d="M16.4836 14.333H15.0503V15.7663H16.4836V14.333Z" fill="white"/>
            </g>
        </g>
        <g id="Group_3">
            <g id="Group_4">
                <path id="Vector_2" d="M16.4836 17.2002H15.0503V18.6335H16.4836V17.2002Z" fill="#BBBBBB"/>
            </g>
        </g>
        <g id="Group_5">
            <g id="Group_6">
                <path id="Vector_3" d="M16.4836 20.0664H15.0503V21.4997H16.4836V20.0664Z" fill="#BBBBBB"/>
            </g>
        </g>
        <g id="Group_7">
            <g id="Group_8">
                <path id="Vector_4" d="M16.4836 22.9336H15.0503V24.3669H16.4836V22.9336Z" fill="#BBBBBB"/>
            </g>
        </g>
        <g id="Group_9">
            <g id="Group_10">
                <path id="Vector_5" d="M19.3498 14.333H17.9165V15.7663H19.3498V14.333Z" fill="#BBBBBB"/>
            </g>
        </g>
        <g id="Group_11">
            <g id="Group_12">
                <path id="Vector_6" d="M19.3498 17.2002H17.9165V18.6335H19.3498V17.2002Z" fill="#BBBBBB"/>
            </g>
        </g>
        <g id="Group_13">
            <g id="Group_14">
                <path id="Vector_7" d="M19.3498 20.0664H17.9165V21.4997H19.3498V20.0664Z" fill="#BBBBBB"/>
            </g>
        </g>
        <g id="Group_15">
            <g id="Group_16">
                <path id="Vector_8" d="M19.3498 22.9336H17.9165V24.3669H19.3498V22.9336Z" fill="#BBBBBB"/>
            </g>
        </g>
        <g id="Group_17">
            <g id="Group_18">
                <path id="Vector_9" d="M22.2165 14.333H20.7832V15.7663H22.2165V14.333Z" fill="#BBBBBB"/>
            </g>
        </g>
        <g id="Group_19">
            <g id="Group_20">
                <path id="Vector_10" d="M22.2165 17.2002H20.7832V18.6335H22.2165V17.2002Z" fill="#BBBBBB"/>
            </g>
        </g>
        <g id="Group_21">
            <g id="Group_22">
                <path id="Vector_11" d="M22.2165 20.0664H20.7832V21.4997H22.2165V20.0664Z" fill="#BBBBBB"/>
            </g>
        </g>
        <g id="Group_23">
            <g id="Group_24">
                <path id="Vector_12" d="M22.2165 22.9336H20.7832V24.3669H22.2165V22.9336Z" fill="#BBBBBB"/>
            </g>
        </g>
        <g id="Group_25">
            <g id="Group_26">
                <path id="Vector_13" d="M25.0832 14.333H23.6499V15.7663H25.0832V14.333Z" fill="#BBBBBB"/>
            </g>
        </g>
        <g id="Group_27">
            <g id="Group_28">
                <path id="Vector_14" d="M19.3498 11.4658H17.9165V12.8992H19.3498V11.4658Z" fill="#BBBBBB"/>
            </g>
        </g>
        <g id="Group_29">
            <g id="Group_30">
                <path id="Vector_15" d="M22.2165 11.4658H20.7832V12.8992H22.2165V11.4658Z" fill="#BBBBBB"/>
            </g>
        </g>
        <g id="Group_31">
            <g id="Group_32">
                <path id="Vector_16" d="M25.0832 11.4658H23.6499V12.8992H25.0832V11.4658Z" fill="#BBBBBB"/>
            </g>
        </g>
        <g id="Group_33">
            <g id="Group_34">
                <path id="Vector_17" d="M25.0832 17.2002H23.6499V18.6335H25.0832V17.2002Z" fill="#BBBBBB"/>
            </g>
        </g>
        <g id="Group_35">
            <g id="Group_36">
                <path id="Vector_18" d="M25.0832 20.0664H23.6499V21.4997H25.0832V20.0664Z" fill="#BBBBBB"/>
            </g>
        </g>
        <g id="Group_37">
            <g id="Group_38">
                <path id="Vector_19" d="M25.0832 22.9336H23.6499V24.3669H25.0832V22.9336Z" fill="#BBBBBB"/>
            </g>
        </g>
        <g id="Group_39">
            <g id="Group_40">
                <path id="Vector_20" d="M27.9504 14.333H26.5171V15.7663H27.9504V14.333Z" fill="#BBBBBB"/>
            </g>
        </g>
        <g id="Group_41">
            <g id="Group_42">
                <path id="Vector_21" d="M27.9504 17.2002H26.5171V18.6335H27.9504V17.2002Z" fill="#BBBBBB"/>
            </g>
        </g>
        <g id="Group_43">
            <g id="Group_44">
                <path id="Vector_22" d="M27.9504 20.0664H26.5171V21.4997H27.9504V20.0664Z" fill="#BBBBBB"/>
            </g>
        </g>
        <g id="Group_45">
            <g id="Group_46">
                <path id="Vector_23" d="M27.9504 22.9336H26.5171V24.3669H27.9504V22.9336Z" fill="#BBBBBB"/>
            </g>
        </g>
        <g id="Group_47">
            <g id="Group_48">
                <path id="Vector_24"
                      d="M42.2841 10.75C42.2839 10.75 42.2836 10.75 42.2833 10.75H31.5333V0.716667C31.5336 0.321067 31.2131 0.000268919 30.8175 1.68878e-07C30.8172 1.68878e-07 30.8169 1.68878e-07 30.8167 1.68878e-07H12.1833C11.7877 -0.000268581 11.4669 0.320261 11.4667 0.715861C11.4667 0.716129 11.4667 0.716398 11.4667 0.716667V10.75H0.716667C0.321067 10.7497 0.000268919 11.0703 1.68878e-07 11.4659C1.68878e-07 11.4661 1.68878e-07 11.4664 1.68878e-07 11.4667V37.2667C-0.000268581 37.6623 0.320261 37.9831 0.715861 37.9833C0.716129 37.9833 0.716398 37.9833 0.716667 37.9833H2.21477C2.1732 38.22 2.15152 38.4597 2.15 38.7V42.2833C2.14973 42.6789 2.47026 42.9997 2.86586 43C2.86613 43 2.8664 43 2.86667 43H40.1333C40.5289 43.0003 40.8497 42.6797 40.85 42.2841C40.85 42.2839 40.85 42.2836 40.85 42.2833V38.7C40.8486 38.4597 40.8269 38.22 40.7852 37.9833H42.2833C42.6789 37.9836 42.9997 37.6631 43 37.2675C43 37.2672 43 37.2669 43 37.2667V11.4667C43.0003 11.0711 42.6797 10.7503 42.2841 10.75ZM30.8167 30.8167C30.8167 31.6083 30.175 32.25 29.3833 32.25C28.5917 32.25 27.95 31.6083 27.95 30.8167C27.95 30.025 28.5917 29.3833 29.3833 29.3833C30.1745 29.3843 30.8157 30.0255 30.8167 30.8167ZM13.6167 29.3833C14.4083 29.3833 15.05 30.025 15.05 30.8167C15.05 31.6083 14.4083 32.25 13.6167 32.25C12.825 32.25 12.1833 31.6083 12.1833 30.8167C12.1843 30.0255 12.8255 29.3843 13.6167 29.3833ZM9.31667 41.5667H3.58333V38.7C3.58333 37.1168 4.86679 35.8333 6.45 35.8333C8.03321 35.8333 9.31667 37.1168 9.31667 38.7V41.5667ZM5.01667 32.9667C5.01667 32.175 5.65835 31.5333 6.45 31.5333C7.24165 31.5333 7.88333 32.175 7.88333 32.9667C7.88333 33.7583 7.24165 34.4 6.45 34.4C5.6588 34.399 5.01765 33.7579 5.01667 32.9667ZM9.42524 35.6027C9.15497 35.342 8.85191 35.1177 8.52367 34.9353C9.61677 33.7901 9.57458 31.9755 8.42934 30.8823C7.28411 29.7891 5.46951 29.8314 4.37633 30.9767C3.31897 32.0844 3.31897 33.8276 4.37633 34.9353C3.69227 35.3149 3.12395 35.8729 2.73175 36.5499H1.43333V12.1833H11.4667V28.9404C10.4825 30.0447 10.5157 31.721 11.543 32.7854C10.468 33.3799 9.69766 34.4047 9.42524 35.6027ZM16.4833 41.5667H10.75V36.55C10.75 34.9668 12.0335 33.6833 13.6167 33.6833C15.1999 33.6833 16.4833 34.9668 16.4833 36.55V41.5667ZM25.0833 41.5667H17.9167V36.55C17.9167 34.571 19.521 32.9667 21.5 32.9667C23.479 32.9667 25.0833 34.571 25.0833 36.55V41.5667ZM19.35 29.3833C19.35 28.1959 20.3126 27.2333 21.5 27.2333C22.6874 27.2333 23.65 28.1959 23.65 29.3833C23.65 30.5708 22.6874 31.5333 21.5 31.5333C20.3131 31.5321 19.3513 30.5702 19.35 29.3833ZM25.8647 34.086C25.3848 33.24 24.6708 32.5506 23.8085 32.1008C25.3222 30.8259 25.5157 28.5653 24.2408 27.0516C22.9659 25.5379 20.7052 25.3444 19.1915 26.6192C17.6778 27.8942 17.4843 30.1548 18.7592 31.6685C18.8907 31.8247 19.0353 31.9692 19.1915 32.1008C18.3292 32.5506 17.6152 33.24 17.1353 34.086C16.7585 33.5485 16.2644 33.1037 15.6903 32.7854C16.7891 31.6613 16.7687 29.8594 15.6446 28.7606C14.9208 28.0531 13.8758 27.7833 12.9 28.0518V1.43333H30.1V28.0518C29.8665 27.9874 29.6256 27.9531 29.3833 27.95C27.8043 27.9458 26.5209 29.2224 26.5167 30.8015C26.5147 31.5404 26.7989 32.2514 27.3097 32.7854C26.7356 33.1037 26.2415 33.5485 25.8647 34.086ZM32.25 38.7V41.5667H26.5167V36.55C26.5167 34.9668 27.8001 33.6833 29.3833 33.6833C30.9665 33.6833 32.25 34.9668 32.25 36.55V38.7ZM39.4167 41.5667H33.6833V38.7C33.6833 37.1168 34.9668 35.8333 36.55 35.8333C38.1332 35.8333 39.4167 37.1168 39.4167 38.7V41.5667ZM35.1167 32.9667C35.1167 32.175 35.7584 31.5333 36.55 31.5333C37.3416 31.5333 37.9833 32.175 37.9833 32.9667C37.9833 33.7583 37.3416 34.4 36.55 34.4C35.7588 34.399 35.1176 33.7579 35.1167 32.9667ZM41.5667 36.55H40.2682C39.876 35.873 39.3077 35.315 38.6237 34.9353C39.7168 33.7901 39.6746 31.9755 38.5293 30.8823C37.3841 29.7892 35.5695 29.8314 34.4763 30.9767C33.419 32.0844 33.419 33.8276 34.4763 34.9353C34.1481 35.1176 33.8449 35.3419 33.5748 35.6026C33.3024 34.4047 32.532 33.3798 31.457 32.7853C32.4843 31.7209 32.5176 30.0446 31.5334 28.9403V12.1833H41.5668V36.55H41.5667Z"
                      fill="#BBBBBB"/>
            </g>
        </g>
        <g id="Group_49">
            <g id="Group_50">
                <path id="Vector_25" d="M35.1169 16.4834H33.6836V27.9501H35.1169V16.4834Z" fill="#BBBBBB"/>
            </g>
        </g>
        <g id="Group_51">
            <g id="Group_52">
                <path id="Vector_26" d="M39.4162 16.4834H37.9829V27.9501H39.4162V16.4834Z" fill="#BBBBBB"/>
            </g>
        </g>
        <g id="Group_53">
            <g id="Group_54">
                <path id="Vector_27" d="M5.01683 16.4834H3.5835V27.9501H5.01683V16.4834Z" fill="#BBBBBB"/>
            </g>
        </g>
        <g id="Group_55">
            <g id="Group_56">
                <path id="Vector_28" d="M9.31663 16.4834H7.8833V27.9501H9.31663V16.4834Z" fill="#BBBBBB"/>
            </g>
        </g>
        <g id="Group_57">
            <g id="Group_58">
                <path id="Vector_29"
                      d="M25.8004 2.86719C25.8001 2.86719 25.7998 2.86719 25.7996 2.86719H17.1996C16.804 2.86692 16.4832 3.18745 16.4829 3.58305C16.4829 3.58332 16.4829 3.58359 16.4829 3.58385V9.31719C16.4826 9.71279 16.8032 10.0336 17.1988 10.0339C17.199 10.0339 17.1993 10.0339 17.1996 10.0339H25.7996C26.1952 10.0341 26.516 9.71359 26.5162 9.31799C26.5162 9.31772 26.5162 9.31746 26.5162 9.31719V3.58385C26.5165 3.18825 26.196 2.86746 25.8004 2.86719ZM25.0829 8.60052H17.9162V4.30052H25.0829V8.60052Z"
                      fill="#BBBBBB"/>
            </g>
        </g>
    </g>
</svg>
