<?xml version="1.0" encoding="UTF-8" standalone="no"?>
<svg
   xmlns="http://www.w3.org/2000/svg"
   width="64"
   height="64"
   viewBox="0 0 64 64"
   version="1.1"
   id="svg16"
   style="fill:none">
  <path
     d="M 55.609344,13.724006 42.276096,0.390625 C 42.025984,0.140625 41.687552,0 41.333248,0 h -28 C 10.393242,0 8,2.391875 8,5.333376 V 58.666752 C 8,61.608192 10.393242,64 13.333376,64 H 50.666752 C 53.606656,64 56,61.608192 56,58.666752 V 14.666624 c 0,-0.354125 -0.140544,-0.692634 -0.390656,-0.942618 z m -12.942592,-9.171891 8.781056,8.781261 h -6.11456 c -1.471488,0 -2.666496,-1.196621 -2.666496,-2.666624 z m 10.666496,54.114637 c 0,1.469952 -1.195264,2.666496 -2.666496,2.666496 H 13.333376 c -1.471386,0 -2.666624,-1.196544 -2.666624,-2.666496 V 5.333376 c 0,-1.470003 1.195366,-2.666624 2.666624,-2.666624 H 40 v 8 C 40,13.608115 42.393344,16 45.333248,16 h 8 z"
     id="path2"
     style="fill:#bbbbbb;stroke-width:2.55999994" />
  <path
     d="M 46.666752,37.33248 H 17.333376 C 16.596378,37.33248 16,37.92896 16,38.665984 c 0,0.737024 0.596378,1.333248 1.333376,1.333248 H 46.666752 C 47.403776,39.999232 48,39.403008 48,38.665984 48,37.92896 47.40352,37.33248 46.666752,37.33248 Z"
     id="path4"
     style="fill:#bbbbbb;stroke-width:2.55999994" />
  <path
     d="M 46.666752,29.33248 H 17.333376 C 16.596378,29.33248 16,29.92896 16,30.665984 c 0,0.737024 0.596378,1.333248 1.333376,1.333248 H 46.666752 C 47.403776,31.999232 48,31.403008 48,30.665984 48,29.92896 47.40352,29.33248 46.666752,29.33248 Z"
     id="path6"
     style="fill:#bbbbbb;stroke-width:2.55999994" />
  <path
     d="M 46.666752,45.33248 H 17.333376 C 16.596378,45.33248 16,45.92896 16,46.665984 c 0,0.737024 0.596378,1.333248 1.333376,1.333248 H 46.666752 C 47.403776,47.999232 48,47.403008 48,46.665984 48,45.92896 47.40352,45.33248 46.666752,45.33248 Z"
     id="path8"
     style="fill:#bbbbbb;stroke-width:2.55999994" />
  <path
     d="M 33.333248,53.33248 H 17.333376 C 16.596378,53.33248 16,53.92896 16,54.665984 c 0,0.737024 0.596378,1.333248 1.333376,1.333248 h 15.999872 c 0.737024,0 1.333504,-0.596224 1.333504,-1.333248 0,-0.737024 -0.59648,-1.333504 -1.333504,-1.333504 z"
     id="path10"
     style="fill:#bbbbbb;stroke-width:2.55999994" />
  <path
     d="m 29.333504,22.665882 c 0,0.736998 0.596224,1.333376 1.333248,1.333376 h 16 c 0.737024,0 1.333504,-0.596378 1.333504,-1.333376 0,-0.736999 -0.59648,-1.333376 -1.333504,-1.333376 h -16 c -0.737024,1.28e-4 -1.333248,0.596505 -1.333248,1.333376 z"
     id="path12"
     style="fill:#bbbbbb;stroke-width:2.55999994" />
  <path
     d="M 20,21.332762 H 17.333376 C 16.596378,21.332762 16,21.929139 16,22.666138 c 0,0.736998 0.596378,1.333376 1.333376,1.333376 h 1.333376 c 0,0.736998 0.596378,1.33335 1.333376,1.33335 0.736998,0 1.333376,-0.596352 1.333376,-1.33335 V 23.753882 C 22.881997,23.20151 24,21.735373 24,19.999386 c 0,-2.205748 -1.794253,-4 -4,-4 -0.734387,0 -1.333376,-0.597632 -1.333376,-1.333376 0,-0.735642 0.598989,-1.333376 1.333376,-1.333376 h 2.666624 C 23.403622,13.332634 24,12.736256 24,11.999258 24,11.262259 23.403622,10.665882 22.666624,10.665882 h -1.333376 c 0,-0.736999 -0.596378,-1.333376 -1.333376,-1.333376 -0.736998,0 -1.333376,0.596377 -1.333376,1.333376 v 0.245606 C 17.118003,11.463885 16,12.929997 16,14.66601 c 0,2.205747 1.794253,4 4,4 0.734387,0 1.333376,0.597606 1.333376,1.333376 0,0.735744 -0.598989,1.333376 -1.333376,1.333376 z"
     id="path14"
     style="fill:#bbbbbb;stroke-width:2.55999994" />
</svg>
