<?xml version="1.0" encoding="UTF-8" standalone="no"?>
<svg
   xmlns="http://www.w3.org/2000/svg"
   width="25"
   height="25"
   viewBox="0 0 25 25"
   version="1.1"
   id="svg3763"
   style="fill:none">
  <g
     id="g3772"
     clip-path="none"
     transform="matrix(0.62502688,0,0,0.625,-2.5479048,-0.00696163)">
    <path
       id="path3741"
       d="m 32.2812,30.625 v 3.125 c 0,3.4464 -2.8036,6.25 -6.25,6.25 H 10.3281 C 6.88177,40 4.07812,37.1964 4.07812,33.75 V 6.25 C 4.07812,2.80365 6.88177,0 10.3281,0 h 15.7031 c 3.4464,0 6.25,2.80365 6.25,6.25 v 3.125 c 0,0.863 -0.6994,1.5625 -1.5624,1.5625 -0.8631,0 -1.5626,-0.6995 -1.5626,-1.5625 V 6.25 c 0,-1.72302 -1.4019,-3.125 -3.125,-3.125 H 10.3281 c -1.723,0 -3.12498,1.40198 -3.12498,3.125 v 27.5 c 0,1.723 1.40198,3.125 3.12498,3.125 h 15.7031 c 1.7231,0 3.125,-1.402 3.125,-3.125 v -3.125 c 0,-0.863 0.6995,-1.5625 1.5626,-1.5625 0.863,0 1.5624,0.6995 1.5624,1.5625 z M 42.934,17.316 39.4352,13.8171 c -0.6104,-0.6103 -1.5998,-0.6103 -2.2098,0 -0.6103,0.6101 -0.6103,1.5995 0,2.2095 l 2.4887,2.489 h -18.761 c -0.863,0 -1.5625,0.6995 -1.5625,1.5625 0,0.8631 0.6995,1.5625 1.5625,1.5625 h 18.761 l -2.4887,2.489 c -0.6103,0.6101 -0.6103,1.5995 0,2.2095 0.3052,0.3052 0.705,0.4578 1.1047,0.4578 0.4001,0 0.7999,-0.1526 1.1051,-0.4578 l 3.4988,-3.4988 c 1.5232,-1.5232 1.5232,-4.0012 0,-5.5243 z"
       style="fill:#5cc04a" />
  </g>
</svg>
