<svg width="25" height="20" viewBox="0 0 25 20" fill="none" xmlns="http://www.w3.org/2000/svg">
<g clip-path="url(#clip0)">
<path d="M23.8476 19.2186H22.7766V6.77859C22.7766 6.19957 22.1877 5.72852 21.464 5.72852H19.0703C18.3465 5.72852 17.7577 6.19961 17.7577 6.77859V19.2186H15.0383V12.4149C15.0383 11.8359 14.4495 11.3648 13.7257 11.3648H11.332C10.6082 11.3648 10.0194 11.8359 10.0194 12.4149V19.2186H7.30005V15.695C7.30005 15.116 6.71118 14.6449 5.98745 14.6449H3.59365C2.86987 14.6449 2.28105 15.116 2.28105 15.695V19.2186H1.15234C0.882666 19.2186 0.664062 19.3935 0.664062 19.6092C0.664062 19.825 0.882666 19.9998 1.15234 19.9998H23.8476C24.1172 19.9998 24.3358 19.825 24.3358 19.6092C24.3358 19.3935 24.1172 19.2186 23.8476 19.2186ZM6.32339 19.2186H3.25757V15.695C3.25757 15.5468 3.4083 15.4262 3.5936 15.4262H5.98735C6.17266 15.4262 6.32339 15.5468 6.32339 15.695V19.2186ZM14.0617 19.2186H10.9959V12.4149C10.9959 12.2666 11.1466 12.1461 11.3319 12.1461H13.7257C13.9109 12.1461 14.0617 12.2666 14.0617 12.4149V19.2186ZM21.8001 19.2186H18.7342V6.77859C18.7342 6.63035 18.885 6.50977 19.0703 6.50977H21.464C21.6493 6.50977 21.8001 6.63035 21.8001 6.77859V19.2186Z" fill="#BBBBBB"/>
<path d="M22.7755 0.410781C22.7824 0.30418 22.7355 0.195781 22.6338 0.114375C22.532 0.0329687 22.3965 -0.00457031 22.2632 0.0009375C22.2554 0.000664063 22.2476 0 22.2396 0H19.2855C19.0158 0 18.7972 0.174883 18.7972 0.390625C18.7972 0.606367 19.0158 0.78125 19.2855 0.78125H21.1096L16.2826 4.64289L14.4623 3.18664C14.3707 3.1134 14.2465 3.07223 14.117 3.07223C13.9875 3.07223 13.8633 3.1134 13.7717 3.18664L4.99396 10.2089C4.80328 10.3614 4.80328 10.6088 4.99396 10.7614C5.08932 10.8376 5.21427 10.8757 5.33922 10.8757C5.46417 10.8757 5.58917 10.8376 5.68448 10.7613L14.117 4.01523L15.9373 5.47148C16.128 5.62402 16.4372 5.62402 16.6279 5.47148L21.8002 1.33371V2.65441C21.8002 2.87016 22.0188 3.04504 22.2884 3.04504C22.5581 3.04504 22.7767 2.87016 22.7767 2.65441V0.429688C22.7767 0.42332 22.7759 0.417109 22.7755 0.410781Z" fill="#BBBBBB"/>
<path d="M3.69324 12.2383C3.96291 12.2383 4.18152 12.0634 4.18152 11.8477C4.18152 11.6319 3.96291 11.457 3.69324 11.457C3.42357 11.457 3.20496 11.6319 3.20496 11.8477C3.20496 12.0634 3.42357 12.2383 3.69324 12.2383Z" fill="#BBBBBB"/>
</g>
<defs>
<clipPath id="clip0">
<rect width="25" height="20" fill="white"/>
</clipPath>
</defs>
</svg>
