<svg width="25" height="25" viewBox="0 0 25 25" fill="" xmlns="http://www.w3.org/2000/svg">
<path d="M23.4375 9.76567H21.5154L21.9234 8.38716L21.9269 8.37636C21.9269 8.37592 21.9269 8.37548 21.9269 8.37509L21.9336 8.35234C22.0847 7.73959 22.0994 7.10113 21.9768 6.48206C21.8541 5.86299 21.597 5.2784 21.2236 4.76958L21.5006 3.81743L21.5172 3.82158C21.548 3.82915 21.5797 3.83299 21.6114 3.833C21.6986 3.83292 21.7833 3.80372 21.852 3.75002C21.9207 3.69632 21.9694 3.62121 21.9906 3.53662L22.3675 2.02026C22.3924 1.9197 22.3764 1.81336 22.323 1.72459C22.2695 1.63583 22.1831 1.57191 22.0825 1.54687L19.0499 0.79272C18.9493 0.767814 18.8429 0.783829 18.7541 0.837253C18.6653 0.890676 18.6013 0.977144 18.5762 1.07768L18.1994 2.59404C18.1755 2.69148 18.1902 2.79437 18.2405 2.88122C18.2907 2.96806 18.3725 3.03215 18.4688 3.0601L18.1948 4.00283C17.6507 4.26284 17.1665 4.63305 16.773 5.08999C16.3441 5.59324 16.0369 6.18863 15.8754 6.82988L15.0017 9.76567H14.0625V2.34379C14.0625 1.92939 13.8979 1.53197 13.6049 1.23894C13.3118 0.945915 12.9144 0.781295 12.5 0.781295C12.0856 0.781295 11.6882 0.945915 11.3951 1.23894C11.1021 1.53197 10.9375 1.92939 10.9375 2.34379V9.76567H10.1562V5.4688C10.1562 5.39288 10.1341 5.31863 10.0925 5.2551C10.0509 5.19158 9.99177 5.14154 9.92222 5.11111C9.85267 5.08068 9.77577 5.07117 9.70091 5.08375C9.62604 5.09632 9.55647 5.13044 9.50068 5.18193L6.85283 7.62612L6.19853 4.54375C6.04802 3.83425 5.62183 3.2136 5.01371 2.81833C4.40559 2.42307 3.66536 2.28557 2.95586 2.43608C2.60455 2.51061 2.27136 2.6536 1.97531 2.85689C1.67927 3.06018 1.42616 3.3198 1.23045 3.62091C0.835182 4.22903 0.697682 4.96926 0.848193 5.67876L1.71333 9.76567H1.5625C1.25181 9.76602 0.953938 9.8896 0.734245 10.1093C0.514551 10.329 0.390974 10.6269 0.390625 10.9375V11.7188C0.390974 12.0295 0.514551 12.3274 0.734245 12.5471C0.953938 12.7667 1.25181 12.8903 1.5625 12.8907H2.38618L2.96724 17.9252C2.34957 18.267 1.88817 18.8346 1.67975 19.509C1.47133 20.1835 1.53207 20.9124 1.84923 21.5431C2.1664 22.1737 2.71536 22.6571 3.38107 22.892C4.04678 23.1268 4.77755 23.0948 5.42021 22.8028C5.825 22.9627 6.25613 23.0455 6.69136 23.0469H18.3086C18.8387 23.0457 19.3617 22.9249 19.8385 22.6934C20.3154 22.4618 20.7338 22.1256 21.0625 21.7098L21.8438 22.491C22.1368 22.784 22.5343 22.9486 22.9487 22.9486C23.3631 22.9486 23.7605 22.784 24.0536 22.4909C24.3466 22.1979 24.5112 21.8004 24.5112 21.386C24.5112 20.9716 24.3465 20.5742 24.0535 20.2811L21.9997 18.2276L22.614 12.8907H23.4375C23.7482 12.8903 24.0461 12.7667 24.2658 12.5471C24.4854 12.3274 24.609 12.0295 24.6094 11.7188V10.9375C24.609 10.6269 24.4854 10.329 24.2658 10.1093C24.0461 9.8896 23.7482 9.76602 23.4375 9.76567ZM21.5151 2.21103L21.3267 2.96904L21.2263 2.94404L19.0521 2.40239L19.2404 1.64555L21.5151 2.21103ZM17.3662 5.59887C17.7221 5.18495 18.1686 4.85862 18.671 4.64521C18.7246 4.62259 18.7725 4.58832 18.8112 4.54491C18.8499 4.50149 18.8784 4.45 18.8948 4.39419L19.2268 3.25205L20.7419 3.6288L20.418 4.74248C20.4002 4.80322 20.3976 4.86736 20.4102 4.92936C20.4228 4.99137 20.4503 5.04938 20.4903 5.09838C20.7921 5.4703 21.0149 5.8998 21.1453 6.36068C21.2756 6.82156 21.3107 7.30416 21.2484 7.77905L16.7455 6.66157C16.8885 6.27371 17.0986 5.91401 17.3662 5.59887ZM16.5177 7.4104L21.0558 8.53637L20.6638 9.76567H15.8167L16.5177 7.4104ZM12.1765 10.6143C11.9819 10.8047 11.8418 11.0439 11.7711 11.3069C11.7003 11.5698 11.7013 11.847 11.774 12.1094H9.28652L10.7188 10.5469H12.2597C12.2326 10.5703 12.2021 10.5885 12.1765 10.6141V10.6143ZM2.84121 10.5469H9.65879L6.25 14.2659L2.84121 10.5469ZM11.7188 2.34379C11.7188 2.13659 11.8011 1.93788 11.9476 1.79137C12.0941 1.64485 12.2928 1.56254 12.5 1.56254C12.7072 1.56254 12.9059 1.64485 13.0524 1.79137C13.1989 1.93788 13.2812 2.13659 13.2812 2.34379V9.76567H11.7188V2.34379ZM9.375 9.76567H5.68657L9.375 6.36103V9.76567ZM1.75293 4.2893C1.90873 3.9492 2.15948 3.66134 2.47501 3.46038C2.79054 3.25941 3.15741 3.15388 3.53149 3.15649C4.00207 3.1539 4.45702 3.32519 4.80903 3.6375C5.12802 3.91641 5.34758 4.29155 5.43457 4.70625L6.1852 8.24253L4.53496 9.76567H2.51201L1.61245 5.5165C1.52493 5.10303 1.57423 4.6723 1.75293 4.2893ZM1.17188 11.7188V10.9375C1.17198 10.834 1.21317 10.7347 1.2864 10.6614C1.35963 10.5882 1.45893 10.547 1.5625 10.5469H1.7812L1.99116 10.7761C1.99258 10.7775 1.9937 10.779 1.99512 10.7804L3.21348 12.1094H1.5625C1.45893 12.1093 1.35963 12.0681 1.2864 11.9949C1.21317 11.9217 1.17198 11.8224 1.17188 11.7188ZM2.34375 20.3125C2.34509 19.8445 2.51472 19.3925 2.82167 19.0392C3.12862 18.6858 3.55241 18.4547 4.01567 18.3879C3.9752 18.5489 3.9468 18.7127 3.93071 18.8779C3.84802 18.8567 3.76752 18.8277 3.69033 18.7913C3.59766 18.7449 3.49038 18.7373 3.39209 18.7701C3.2938 18.8028 3.21255 18.8733 3.16621 18.966C3.11988 19.0586 3.11225 19.1659 3.14502 19.2642C3.17778 19.3625 3.24825 19.4438 3.34092 19.4901C3.63792 19.6379 3.96514 19.7148 4.29688 19.7148C4.62861 19.7148 4.95583 19.6379 5.25283 19.4901C5.29872 19.4671 5.33963 19.4354 5.37325 19.3966C5.40686 19.3579 5.43251 19.3129 5.44873 19.2642C5.46496 19.2155 5.47144 19.1642 5.4678 19.113C5.46416 19.0618 5.45048 19.0119 5.42754 18.966C5.4046 18.9201 5.37284 18.8792 5.33408 18.8455C5.29533 18.8119 5.25033 18.7863 5.20166 18.7701C5.15299 18.7538 5.1016 18.7474 5.05043 18.751C4.99926 18.7546 4.9493 18.7683 4.90342 18.7913C4.84252 18.8186 4.77964 18.8412 4.71533 18.859C4.73383 18.7155 4.76441 18.5739 4.80674 18.4355C5.15753 18.5313 5.47454 18.7232 5.72195 18.9897C5.96937 19.2562 6.13731 19.5866 6.20682 19.9435C6.27633 20.3004 6.24463 20.6697 6.1153 21.0096C5.98596 21.3494 5.76416 21.6463 5.47494 21.8667C5.18573 22.0871 4.84063 22.2223 4.47865 22.2568C4.11666 22.2914 3.75222 22.2241 3.42651 22.0624C3.10079 21.9007 2.82679 21.6512 2.63545 21.342C2.44411 21.0327 2.34307 20.6762 2.34375 20.3125ZM6.24722 22.2255C6.60967 21.8569 6.86003 21.393 6.96919 20.8876C7.04831 21.0849 7.14027 21.2767 7.24448 21.4619L7.70386 22.2657H6.69136C6.54246 22.2644 6.39392 22.251 6.24722 22.2255ZM9.93921 18.3953C10.0763 18.3954 10.2114 18.3617 10.3323 18.297C10.4532 18.2323 10.5562 18.1387 10.6321 18.0245C10.7449 17.8554 10.9064 17.7245 11.0952 17.6493C11.2841 17.5742 11.4913 17.5582 11.6894 17.6035C11.8876 17.6489 12.0672 17.7534 12.2046 17.9033C12.3419 18.0532 12.4304 18.2412 12.4583 18.4426C12.5865 19.3513 12.4098 20.2768 11.9559 21.0744L11.3885 22.0666C11.2668 22.2794 10.9393 22.3237 10.7665 22.1501L10.2153 21.5989C10.142 21.5257 10.0427 21.4845 9.93909 21.4845C9.83549 21.4845 9.73615 21.5257 9.66289 21.5989L9.11206 22.1498C9.06797 22.1903 9.0155 22.2207 8.95836 22.2387C8.90122 22.2567 8.84082 22.262 8.78143 22.2541C8.72204 22.2461 8.66513 22.2253 8.61471 22.1929C8.56429 22.1605 8.52162 22.1174 8.4897 22.0667L7.92275 21.0743C7.46826 20.2754 7.29175 19.3483 7.4209 18.4383C7.44961 18.2374 7.53865 18.05 7.67621 17.9008C7.81378 17.7516 7.9934 17.6477 8.1913 17.6029C8.3892 17.558 8.59606 17.5743 8.7845 17.6496C8.97295 17.7248 9.1341 17.8555 9.24663 18.0244C9.32253 18.1386 9.42549 18.2321 9.54633 18.2968C9.66717 18.3616 9.80214 18.3954 9.93921 18.3953ZM18.3086 22.2657H12.175L12.6345 21.4619C13.1748 20.5121 13.3847 19.4098 13.2313 18.3278C13.1887 18.0284 13.0707 17.7448 12.8882 17.5036C12.7058 17.2624 12.4649 17.0717 12.1884 16.9493C11.9119 16.827 11.6087 16.777 11.3076 16.8042C11.0064 16.8313 10.7171 16.9347 10.4669 17.1045C10.593 16.7772 10.7852 16.4794 11.0315 16.2297C11.2778 15.9799 11.5729 15.7836 11.8984 15.6529L12.0376 15.5972C12.1339 15.5587 12.2109 15.4836 12.2517 15.3883C12.2925 15.2931 12.2938 15.1855 12.2553 15.0893C12.2168 14.9931 12.1417 14.9161 12.0464 14.8753C11.9512 14.8344 11.8436 14.8331 11.7474 14.8716L11.6083 14.9273C11.1124 15.1264 10.6717 15.4417 10.3232 15.8467C9.97468 16.2517 9.72866 16.7346 9.60586 17.2546C9.36536 17.0382 9.0705 16.8913 8.75289 16.8296C8.43528 16.7679 8.10687 16.7938 7.80286 16.9045C7.49885 17.0152 7.23068 17.2066 7.02708 17.458C6.82349 17.7095 6.69215 18.0116 6.64712 18.332C6.62361 18.5045 6.60943 18.6782 6.60464 18.8522C6.26765 18.3208 5.75826 17.9213 5.16182 17.7207C5.44664 17.3188 5.84146 17.0077 6.29883 16.8248L6.43809 16.7691C6.5343 16.7306 6.61129 16.6554 6.6521 16.5602C6.69291 16.4649 6.69421 16.3573 6.65571 16.2611C6.61721 16.1649 6.54207 16.0879 6.44681 16.0471C6.35154 16.0063 6.24397 16.005 6.14775 16.0435L6.00874 16.0992C5.29685 16.3854 4.70549 16.9085 4.33447 17.5801C4.32183 17.5801 4.30957 17.5782 4.29688 17.5782C4.10315 17.5784 3.91001 17.5993 3.7207 17.6404L3.1727 12.8907H3.92954L5.96191 15.1078C5.99851 15.1477 6.04302 15.1796 6.09262 15.2015C6.14221 15.2233 6.19581 15.2346 6.25 15.2346C6.30419 15.2346 6.35779 15.2233 6.40738 15.2015C6.45698 15.1796 6.50149 15.1477 6.53809 15.1078L8.57036 12.8907H12.2437L20.5045 21.1517C20.2511 21.4961 19.9204 21.7763 19.539 21.9698C19.1577 22.1632 18.7363 22.2646 18.3086 22.2657ZM23.5012 21.9388C23.3524 22.0809 23.1545 22.1602 22.9488 22.1602C22.743 22.1602 22.5451 22.0809 22.3963 21.9388L12.7289 12.2711C12.7147 12.257 12.7045 12.2405 12.6914 12.2256C12.6907 12.2249 12.6903 12.2241 12.6896 12.2233C12.5585 12.0702 12.4919 11.8722 12.5037 11.671C12.5155 11.4698 12.6048 11.281 12.7528 11.1442C12.9009 11.0074 13.0962 10.9333 13.2977 10.9374C13.4992 10.9416 13.6913 11.0237 13.8336 11.1665L15.4407 12.7735L15.4456 12.7784L23.5012 20.8337C23.6474 20.9805 23.7295 21.1791 23.7295 21.3863C23.7295 21.5934 23.6474 21.792 23.5012 21.9388ZM21.2942 17.5221L16.6627 12.8907H21.8275L21.2942 17.5221ZM23.8281 11.7188C23.828 11.8224 23.7868 11.9217 23.7136 11.9949C23.6404 12.0681 23.5411 12.1093 23.4375 12.1094H15.8814L14.386 10.6141C14.3604 10.5885 14.3299 10.5701 14.303 10.5469H23.4375C23.5411 10.547 23.6404 10.5882 23.7136 10.6614C23.7868 10.7347 23.828 10.834 23.8281 10.9375V11.7188Z" fill="#BBBBBB"/>
<path d="M2.75852 5.66283C2.78582 5.66285 2.81305 5.66003 2.83977 5.65443L4.36853 5.33056C4.46991 5.30908 4.55859 5.24821 4.61509 5.16134C4.67158 5.07447 4.69126 4.96872 4.66978 4.86735C4.6483 4.76598 4.58743 4.67729 4.50056 4.62079C4.4137 4.5643 4.30794 4.54463 4.20657 4.5661L2.67786 4.88998C2.58334 4.9099 2.49955 4.96414 2.44268 5.04222C2.38581 5.1203 2.35988 5.21668 2.36991 5.31276C2.37994 5.40883 2.42521 5.49778 2.49698 5.56244C2.56875 5.62709 2.66193 5.66286 2.75852 5.66283Z" fill="#BBBBBB"/>
<path d="M3.00171 6.4183C2.90719 6.43822 2.82341 6.49246 2.76653 6.57054C2.70966 6.64862 2.68373 6.745 2.69376 6.84108C2.70379 6.93715 2.74906 7.0261 2.82083 7.09076C2.8926 7.15541 2.98578 7.19118 3.08238 7.19115C3.10967 7.19118 3.1369 7.18838 3.16363 7.1828L4.69229 6.85892C4.79367 6.83745 4.88236 6.77658 4.93886 6.6897C4.99536 6.60283 5.01503 6.49707 4.99356 6.39569C4.97208 6.29431 4.91121 6.20562 4.82434 6.14912C4.73746 6.09262 4.6317 6.07295 4.53032 6.09442L3.00171 6.4183Z" fill="#BBBBBB"/>
<path d="M3.32556 7.94662C3.23104 7.96654 3.14725 8.02078 3.09038 8.09886C3.03351 8.17695 3.00758 8.27334 3.01762 8.36942C3.02765 8.46549 3.07293 8.55445 3.14471 8.61909C3.21649 8.68374 3.30968 8.7195 3.40628 8.71947C3.43358 8.71948 3.46081 8.71666 3.48753 8.71107L5.01624 8.38719C5.11761 8.36572 5.2063 8.30486 5.2628 8.21799C5.3193 8.13113 5.33898 8.02538 5.31751 7.92401C5.29604 7.82264 5.23517 7.73394 5.14831 7.67744C5.06145 7.62095 4.9557 7.60127 4.85432 7.62274L3.32556 7.94662Z" fill="#BBBBBB"/>
<path d="M8.80859 18.966C8.78564 19.0118 8.77196 19.0618 8.76832 19.113C8.76468 19.1641 8.77116 19.2155 8.78738 19.2642C8.8036 19.3129 8.82925 19.3579 8.86287 19.3966C8.89649 19.4354 8.93741 19.4671 8.98329 19.4901C9.2803 19.6379 9.60753 19.7148 9.93927 19.7148C10.271 19.7148 10.5982 19.6379 10.8953 19.4901C10.9411 19.4671 10.9821 19.4354 11.0157 19.3966C11.0493 19.3579 11.0749 19.3129 11.0912 19.2642C11.1074 19.2155 11.1138 19.1641 11.1102 19.113C11.1066 19.0618 11.0929 19.0118 11.0699 18.9659C11.047 18.9201 11.0152 18.8791 10.9765 18.8455C10.9377 18.8119 10.8927 18.7863 10.844 18.77C10.7954 18.7538 10.744 18.7473 10.6928 18.751C10.6416 18.7546 10.5917 18.7683 10.5458 18.7913C10.3573 18.885 10.1497 18.9337 9.93927 18.9337C9.72881 18.9337 9.52121 18.885 9.33276 18.7913C9.24007 18.745 9.1328 18.7374 9.03452 18.7701C8.93624 18.8029 8.85497 18.8733 8.80859 18.966Z" fill="#BBBBBB"/>
<path d="M15.625 19.1406H16.4062V19.9219H15.625V19.1406Z" fill="#BBBBBB"/>
<path d="M14.0625 19.1406H14.8438V19.9219H14.0625V19.1406Z" fill="#BBBBBB"/>
<path d="M14.0625 20.7031H14.8438V21.4844H14.0625V20.7031Z" fill="#BBBBBB"/>
<path d="M14.0625 16.0156H14.8438V16.7969H14.0625V16.0156Z" fill="#BBBBBB"/>
<path d="M14.0625 17.5781H14.8438V18.3594H14.0625V17.5781Z" fill="#BBBBBB"/>
<path d="M17.1875 19.1406H17.9688V19.9219H17.1875V19.1406Z" fill="#BBBBBB"/>
<path d="M17.1875 20.7031H17.9688V21.4844H17.1875V20.7031Z" fill="#BBBBBB"/>
<path d="M15.625 20.7031H16.4062V21.4844H15.625V20.7031Z" fill="#BBBBBB"/>
<path d="M15.625 17.5781H16.4062V18.3594H15.625V17.5781Z" fill="#BBBBBB"/>
</svg>
