<svg width="598" height="118" viewBox="0 0 598 118" fill="none" xmlns="http://www.w3.org/2000/svg">
    <path d="M32.3807 14.2994H6.6083C2.97374 14.2994 0 11.3413 0 7.72574C0 4.11022 2.97374 1.31641 6.6083 1.31641H72.1957C75.8303 1.31641 78.6388 4.11022 78.6388 7.72574C78.6388 11.3413 75.8303 14.2994 72.1957 14.2994H46.4233V110.604C46.4233 114.384 43.2844 117.67 39.3194 117.67C35.5196 117.67 32.3807 114.384 32.3807 110.604V14.2994V14.2994Z" fill="white"/>
    <path d="M69.0566 74.449C69.0566 50.1264 87.8903 30.8984 112.671 30.8984C124.732 30.8984 134.809 35.5 141.252 41.4163C142.739 42.7311 143.731 44.5388 143.731 46.5109C143.731 48.1543 143.235 49.6334 141.583 51.4412L112.176 86.446C110.854 87.9251 109.367 88.5824 107.55 88.5824C103.915 88.5824 101.272 86.1173 101.272 82.6661C101.272 81.1871 101.603 79.708 102.759 78.5576L128.531 48.3187C124.236 44.7032 118.123 43.0597 112.671 43.0597C95.8203 43.0597 82.4385 56.8645 82.4385 74.449C82.4385 91.8693 95.6551 105.838 112.671 105.838C122.088 105.838 129.523 101.73 134.644 95.9778C136.461 94.3344 137.948 93.0197 140.261 93.0197C144.061 93.0197 146.869 95.6491 146.869 99.2647C146.869 100.579 146.043 102.387 144.887 103.702C137.948 111.919 126.549 118 112.671 118C88.0555 118 69.0566 98.7717 69.0566 74.449Z" fill="white"/>
    <path d="M165.042 66.3963C165.042 45.1962 178.588 30.8984 199.074 30.8984C202.378 30.8984 205.187 33.5279 205.187 36.9791C205.187 40.2659 202.378 43.0597 199.074 43.0597C186.849 43.0597 178.258 51.1125 178.258 66.3963V110.933C178.258 114.713 175.284 117.671 171.65 117.671C167.85 117.671 165.042 114.713 165.042 110.933V66.3963V66.3963Z" fill="white"/>
    <path d="M216.587 66.3963C216.587 45.1962 230.134 30.8984 250.62 30.8984C253.924 30.8984 256.732 33.5279 256.732 36.9791C256.732 40.2659 253.924 43.0597 250.62 43.0597C238.394 43.0597 229.804 51.1125 229.804 66.3963V110.933C229.804 114.713 226.83 117.671 223.195 117.671C219.395 117.671 216.587 114.713 216.587 110.933V66.3963Z" fill="white"/>
    <path d="M337.514 104.852C329.749 113.069 319.011 118 306.62 118C282.335 118 263.832 98.7717 263.832 74.449C263.832 50.1264 282.335 30.8984 306.62 30.8984C319.011 30.8984 329.749 35.993 337.514 44.0458V37.8008C337.514 34.1853 340.488 31.2271 344.122 31.2271C347.922 31.2271 350.731 34.1853 350.731 37.8008V110.933C350.731 114.713 347.922 117.671 344.122 117.671C340.488 117.671 337.514 114.713 337.514 110.933V104.852ZM337.514 75.7638V73.1343C336.853 56.0427 323.802 43.0597 307.446 43.0597C290.595 43.0597 277.214 56.7001 277.214 74.449C277.214 92.198 290.595 105.838 307.446 105.838C323.802 105.838 336.853 92.8553 337.514 75.7638Z" fill="white"/>
    <path d="M443.081 104.85C435.316 113.067 424.577 117.997 412.187 117.997C387.901 117.997 369.398 98.7695 369.398 74.4469C369.398 50.1243 387.901 30.8963 412.187 30.8963C424.577 30.8963 435.316 35.9909 443.081 44.0436V6.57367C443.081 2.95815 446.054 0 449.689 0C453.489 0 456.297 2.95815 456.297 6.57367V110.931C456.297 114.711 453.489 117.669 449.689 117.669C446.054 117.669 443.081 114.711 443.081 110.931V104.85ZM443.081 75.7616V73.1321C442.42 56.0406 429.368 43.0576 413.013 43.0576C396.162 43.0576 382.78 56.698 382.78 74.4469C382.78 92.1958 396.162 105.836 413.013 105.836C429.368 105.836 442.42 92.8532 443.081 75.7616Z" fill="white"/>
    <path d="M477.114 12.1624C477.114 7.56083 480.749 3.94531 485.374 3.94531C489.835 3.94531 493.635 7.56083 493.635 12.1624C493.635 16.5996 489.835 20.3795 485.374 20.3795C480.749 20.3795 477.114 16.5996 477.114 12.1624ZM478.766 37.7997C478.766 34.1842 481.575 31.2261 485.374 31.2261C489.009 31.2261 491.983 34.1842 491.983 37.7997V110.932C491.983 114.712 489.009 117.67 485.374 117.67C481.575 117.67 478.766 114.712 478.766 110.932V37.7997Z" fill="white"/>
    <path d="M584.168 104.852C576.404 113.069 565.665 118 553.275 118C528.989 118 510.486 98.7717 510.486 74.449C510.486 50.1264 528.989 30.8984 553.275 30.8984C565.665 30.8984 576.404 35.993 584.168 44.0458V37.8008C584.168 34.1853 587.142 31.2271 590.777 31.2271C594.577 31.2271 597.385 34.1853 597.385 37.8008V110.933C597.385 114.713 594.577 117.671 590.777 117.671C587.142 117.671 584.168 114.713 584.168 110.933V104.852ZM584.168 75.7638V73.1343C583.508 56.0427 570.456 43.0597 554.101 43.0597C537.249 43.0597 523.868 56.7001 523.868 74.449C523.868 92.198 537.249 105.838 554.101 105.838C570.456 105.838 583.508 92.8553 584.168 75.7638Z" fill="white"/>
</svg>
