<svg width="25" height="25" viewBox="0 0 25 25" fill="none" xmlns="http://www.w3.org/2000/svg">
<path d="M19.5312 0H5.46875C2.44844 0 0 2.44844 0 5.46875V19.5312C0 22.5516 2.44844 25 5.46875 25H19.5312C22.5516 25 25 22.5516 25 19.5312V5.46875C25 2.44844 22.5516 0 19.5312 0ZM23.4375 19.5312C23.4375 21.6886 21.6886 23.4375 19.5312 23.4375H5.46875C3.31138 23.4375 1.5625 21.6886 1.5625 19.5312V5.46875C1.5625 3.31138 3.31138 1.5625 5.46875 1.5625H19.5312C21.6886 1.5625 23.4375 3.31138 23.4375 5.46875V19.5312Z" fill="#BBBBBB"/>
<path d="M7.8125 5.46875H6.25C5.81851 5.46875 5.46875 5.81851 5.46875 6.25V7.8125C5.46875 8.24399 5.81851 8.59375 6.25 8.59375H7.8125C8.24399 8.59375 8.59375 8.24399 8.59375 7.8125V6.25C8.59375 5.81851 8.24399 5.46875 7.8125 5.46875Z" fill="#BBBBBB"/>
<path d="M7.8125 10.9375H6.25C5.81851 10.9375 5.46875 11.2873 5.46875 11.7188V13.2812C5.46875 13.7127 5.81851 14.0625 6.25 14.0625H7.8125C8.24399 14.0625 8.59375 13.7127 8.59375 13.2812V11.7188C8.59375 11.2873 8.24399 10.9375 7.8125 10.9375Z" fill="#BBBBBB"/>
<path d="M7.8125 16.4062H6.25C5.81851 16.4062 5.46875 16.756 5.46875 17.1875V18.75C5.46875 19.1815 5.81851 19.5312 6.25 19.5312H7.8125C8.24399 19.5312 8.59375 19.1815 8.59375 18.75V17.1875C8.59375 16.756 8.24399 16.4062 7.8125 16.4062Z" fill="#BBBBBB"/>
<path d="M19.5312 6.25H10.1562V7.8125H19.5312V6.25Z" fill="#BBBBBB"/>
<path d="M19.5312 11.7188H10.1562V13.2812H19.5312V11.7188Z" fill="#BBBBBB"/>
<path d="M19.5312 17.1875H10.1562V18.75H19.5312V17.1875Z" fill="#BBBBBB"/>
</svg>
